<svg width="203" height="200" viewBox="0 0 203 200" fill="none" xmlns="http://www.w3.org/2000/svg">
<g id="Swag">
<g id="Illustration">
<g id="Group">
<path id="Rectangle 41" d="M126.624 39.093L125.744 39.5683L126.208 40.4543L159.472 104.014C160.24 105.482 162.044 106.033 163.502 105.246L200.204 85.4196C201.662 84.6321 202.221 82.8037 201.452 81.3357L169.116 19.5482C168.348 18.0803 166.543 17.5286 165.085 18.3161L126.624 39.093Z" fill="white" stroke="#72777D" stroke-width="2"/>
<path id="Rectangle 41_2" fill-rule="evenodd" clip-rule="evenodd" d="M154.239 91.86L194.46 70.1325L200.572 81.8111C201.085 82.7897 200.712 84.0087 199.74 84.5337L163.038 104.36C162.066 104.885 160.863 104.517 160.351 103.539L154.239 91.86Z" fill="#EAECF0"/>
</g>
<g id="Group_2">
<path id="Rectangle 41_3" d="M76.3763 39.093L77.2561 39.5683L76.7924 40.4543L43.5284 104.014C42.7602 105.482 40.9556 106.033 39.4979 105.246L2.79604 85.4196C1.33828 84.6321 0.779344 82.8037 1.54761 81.3357L33.8842 19.5482C34.6525 18.0803 36.457 17.5286 37.9148 18.3161L76.3763 39.093Z" fill="white" stroke="#72777D" stroke-width="2"/>
<path id="Rectangle 41_4" fill-rule="evenodd" clip-rule="evenodd" d="M48.7607 91.86L8.53957 70.1325L2.42755 81.8111C1.91538 82.7897 2.288 84.0087 3.25984 84.5337L39.9617 104.36C40.9335 104.885 42.1365 104.517 42.6487 103.539L48.7607 91.86Z" fill="#EAECF0"/>
</g>
<g id="Combined Shape">
<mask id="path-5-outside-1_302_1948" maskUnits="userSpaceOnUse" x="33.4604" y="9" width="136" height="181" fill="black">
<rect fill="white" x="33.4604" y="9" width="136" height="181"/>
<path fill-rule="evenodd" clip-rule="evenodd" d="M71.7986 12.0171L36.975 20.7294C36.0849 20.9521 35.4604 21.752 35.4604 22.6696V186C35.4604 187.105 36.3559 188 37.4604 188H165.446C166.55 188 167.446 187.105 167.446 186V26.3306C167.446 25.4923 166.923 24.743 166.136 24.4536L132.285 12H132.225C125.328 13.7713 114.346 14.917 101.978 14.917C89.6499 14.917 78.6998 13.7787 71.7986 12.0171Z"/>
</mask>
<path fill-rule="evenodd" clip-rule="evenodd" d="M71.7986 12.0171L36.975 20.7294C36.0849 20.9521 35.4604 21.752 35.4604 22.6696V186C35.4604 187.105 36.3559 188 37.4604 188H165.446C166.55 188 167.446 187.105 167.446 186V26.3306C167.446 25.4923 166.923 24.743 166.136 24.4536L132.285 12H132.225C125.328 13.7713 114.346 14.917 101.978 14.917C89.6499 14.917 78.6998 13.7787 71.7986 12.0171Z" fill="#EAECF0"/>
<path d="M36.975 20.7294L36.4896 18.7892L36.4896 18.7892L36.975 20.7294ZM71.7986 12.0171L72.2932 10.0793L71.8035 9.95425L71.3132 10.0769L71.7986 12.0171ZM166.136 24.4536L166.827 22.5766L166.136 24.4536ZM132.285 12L132.976 10.123L132.641 10H132.285V12ZM132.225 12V10H131.972L131.727 10.0629L132.225 12ZM37.4604 22.6696L72.284 13.9573L71.3132 10.0769L36.4896 18.7892L37.4604 22.6696ZM37.4604 22.6696L37.4604 22.6696L36.4896 18.7892C34.7093 19.2346 33.4604 20.8344 33.4604 22.6696H37.4604ZM37.4604 186V22.6696H33.4604V186H37.4604ZM37.4604 186H37.4604H33.4604C33.4604 188.209 35.2513 190 37.4604 190V186ZM165.446 186H37.4604V190H165.446V186ZM165.446 186V190C167.655 190 169.446 188.209 169.446 186H165.446ZM165.446 26.3306V186H169.446V26.3306H165.446ZM165.446 26.3306H169.446C169.446 24.6541 168.4 23.1554 166.827 22.5766L165.446 26.3306ZM131.595 13.877L165.446 26.3306L166.827 22.5766L132.976 10.123L131.595 13.877ZM132.225 14H132.285V10H132.225V14ZM131.727 10.0629C125.056 11.7761 114.261 12.917 101.978 12.917V16.917C114.432 16.917 125.599 15.7665 132.722 13.9371L131.727 10.0629ZM101.978 12.917C89.736 12.917 78.9699 11.7835 72.2932 10.0793L71.3039 13.955C78.4297 15.7739 89.5637 16.917 101.978 16.917V12.917Z" fill="#72777D" mask="url(#path-5-outside-1_302_1948)"/>
</g>
<g id="Combined Shape_2">
<mask id="path-7-outside-2_302_1948" maskUnits="userSpaceOnUse" x="33.0195" y="9" width="137" height="181" fill="black">
<rect fill="white" x="33.0195" y="9" width="137" height="181"/>
<path fill-rule="evenodd" clip-rule="evenodd" d="M101.978 43.1157C118.629 43.1157 132.127 29.4023 132.127 12.4859C132.127 12.3236 132.125 12.1617 132.123 12H132.172L165.831 18.6124C166.769 18.7967 167.446 19.619 167.446 20.5749V186C167.446 187.105 166.55 188 165.446 188H37.4551C36.3526 188 35.458 187.108 35.4551 186.005L35.0195 20.5934C35.017 19.6292 35.7027 18.8004 36.6504 18.6225L71.8333 12.0145C71.831 12.1713 71.8298 12.3285 71.8298 12.4859C71.8298 29.4023 85.3277 43.1157 101.978 43.1157Z"/>
</mask>
<path fill-rule="evenodd" clip-rule="evenodd" d="M101.978 43.1157C118.629 43.1157 132.127 29.4023 132.127 12.4859C132.127 12.3236 132.125 12.1617 132.123 12H132.172L165.831 18.6124C166.769 18.7967 167.446 19.619 167.446 20.5749V186C167.446 187.105 166.55 188 165.446 188H37.4551C36.3526 188 35.458 187.108 35.4551 186.005L35.0195 20.5934C35.017 19.6292 35.7027 18.8004 36.6504 18.6225L71.8333 12.0145C71.831 12.1713 71.8298 12.3285 71.8298 12.4859C71.8298 29.4023 85.3277 43.1157 101.978 43.1157Z" fill="white"/>
<path d="M132.123 12V10H130.092L130.123 12.0306L132.123 12ZM132.172 12L132.558 10.0375L132.367 10H132.172V12ZM165.831 18.6124L166.217 16.6499L166.217 16.6499L165.831 18.6124ZM35.4551 186.005L33.4551 186.011L35.4551 186.005ZM35.0195 20.5934L37.0195 20.5881L35.0195 20.5934ZM36.6504 18.6225L37.0195 20.5881L37.0195 20.5881L36.6504 18.6225ZM71.8333 12.0145L73.8331 12.0442L73.8695 9.5971L71.4642 10.0489L71.8333 12.0145ZM130.127 12.4859C130.127 28.3277 117.494 41.1157 101.978 41.1157V45.1157C119.763 45.1157 134.127 30.4769 134.127 12.4859H130.127ZM130.123 12.0306C130.125 12.1821 130.127 12.3339 130.127 12.4859H134.127C134.127 12.3134 134.125 12.1413 134.123 11.9694L130.123 12.0306ZM132.123 14H132.172V10H132.123V14ZM131.787 13.9625L165.446 20.5749L166.217 16.6499L132.558 10.0375L131.787 13.9625ZM165.446 20.5749V20.5749H169.446C169.446 18.663 168.093 17.0185 166.217 16.6499L165.446 20.5749ZM165.446 20.5749V186H169.446V20.5749H165.446ZM165.446 186V190C167.655 190 169.446 188.209 169.446 186H165.446ZM165.446 186H37.4551V190H165.446V186ZM37.4551 186H37.4551L33.4551 186.011C33.4609 188.216 35.25 190 37.4551 190V186ZM37.4551 186L37.0195 20.5881L33.0195 20.5986L33.4551 186.011L37.4551 186ZM37.0195 20.5881L37.0195 20.5881L36.2812 16.6568C34.3859 17.0128 33.0145 18.6703 33.0195 20.5986L37.0195 20.5881ZM37.0195 20.5881L72.2025 13.9801L71.4642 10.0489L36.2812 16.6568L37.0195 20.5881ZM73.8298 12.4859C73.8298 12.3384 73.8309 12.1911 73.8331 12.0442L69.8336 11.9848C69.8311 12.1516 69.8298 12.3186 69.8298 12.4859H73.8298ZM101.978 41.1157C86.4621 41.1157 73.8298 28.3277 73.8298 12.4859H69.8298C69.8298 30.4769 84.1934 45.1157 101.978 45.1157V41.1157Z" fill="#72777D" mask="url(#path-7-outside-2_302_1948)"/>
</g>
<g id="logo-wikipedia">
<path id="path3898" d="M68.112 70.2221C68.112 70.2221 67.3664 68.6386 67.1124 68.1122C65.4181 64.6057 65.4546 64.4189 63.742 64.1812C63.2625 64.1153 63.0146 64.0517 63.0146 63.8033V62.6932L63.1589 62.5849C66.2531 62.5807 73.1382 62.5807 73.1382 62.5807L73.4023 62.672V63.7779C73.4023 64.0304 73.2296 64.1599 72.8782 64.1599L72.1549 64.2682C70.3265 64.4168 70.6251 65.1979 71.84 67.7259L83.3735 92.38L83.7677 92.4925L94.007 67.104C94.3626 66.0809 94.3077 65.355 93.8506 64.9283C93.3914 64.5144 93.0684 64.2661 91.882 64.2151L90.921 64.1663C90.8032 64.1663 90.6914 64.1217 90.5837 64.0368C90.4781 63.9583 90.4233 63.8543 90.4233 63.729V62.672L90.5695 62.5637C93.4544 62.5637 102.138 62.5637 102.138 62.5637L102.255 62.672V63.729C102.255 64.0156 102.099 64.1599 101.79 64.1599C100.275 64.23 99.1511 64.5738 98.4238 65.1873C97.6944 65.8049 97.1256 66.654 96.7172 67.762C96.7172 67.762 87.3006 90.2787 84.0785 97.7651C82.8453 100.219 81.6324 99.9939 80.5658 97.6951C78.3128 92.847 71.968 78.1394 71.968 78.1394L68.112 70.2221Z" fill="#27292D"/>
<path id="path3900" d="M87.7812 62.5731C87.7812 62.5731 81.1575 62.5519 78.2085 62.5731L78.0617 62.6812V63.7325C78.0617 63.8618 78.1155 63.9635 78.223 64.0419C78.3326 64.1246 78.4443 64.167 78.5642 64.167L79.0378 64.2199C80.2434 64.2687 80.7976 64.5951 80.9631 64.7964C81.2505 65.1567 81.3932 65.5467 80.6963 67.1045L68.3298 92.3851L68.0051 92.2982C68.0051 92.2982 59.1479 73.1576 56.5836 66.7527C56.3168 66.0914 56.1969 65.5976 56.1969 65.2945C56.1969 64.6438 56.7697 64.292 57.9154 64.2433L59.2513 64.186C59.6049 64.186 59.7848 64.0461 59.7848 63.7558V62.7045L59.6649 62.5965C59.6649 62.5965 49.0561 62.5837 46.8641 62.5965L46.7441 62.7045V63.8088C46.7441 64.008 46.9902 64.1309 47.4845 64.186C48.8307 64.2602 49.7158 64.4806 50.1418 64.8473C50.5658 65.2182 51.0145 66.155 51.6101 67.6153C54.83 75.542 61.6708 89.6871 65.0024 97.7431C65.9619 99.9431 67.1676 100.284 68.6317 97.6753C71.167 92.8578 78.041 78.1383 78.041 78.1383L83.455 67.7615C84.0857 66.6637 84.6937 65.6866 85.0018 65.233C85.5664 64.4001 85.8828 64.2433 87.4255 64.1691C87.7399 64.1691 87.8991 64.025 87.8991 63.7346V62.6834L87.7812 62.5731Z" fill="#27292D"/>
</g>
</g>
<path id="Shape" fill-rule="evenodd" clip-rule="evenodd" d="M131.606 67.7596C129.886 63.2797 125.067 60 120.053 60C113.524 60 108.5 64.9972 108.5 71.6394C108.5 80.7673 118.238 87.826 131.606 101.385C144.975 87.826 154.713 80.7673 154.713 71.6394C154.713 64.9972 149.688 60 143.16 60C138.14 60 133.327 63.2797 131.606 67.7596Z" fill="#DD3333"/>
</g>
</svg>
