<svg width="53" height="40" viewBox="0 0 53 40" fill="none" xmlns="http://www.w3.org/2000/svg">
<path d="M32.2966 32.8691L26.9228 20.2124C24.7937 24.3899 22.4347 28.7311 20.4159 32.8625C20.4047 32.8839 19.4402 32.8713 19.4398 32.8586C16.3545 25.6588 13.1558 18.5065 10.0557 11.3123C9.3367 9.55363 6.81928 6.72454 5.09694 6.74062C5.0963 6.53627 5.08678 6.08096 5.08398 5.80483L15.705 5.7998L15.6978 6.72329C14.4504 6.78142 12.2952 7.57708 12.8531 8.95414C14.3507 12.186 19.6511 24.7082 21.0836 27.8871C22.0836 25.9307 24.875 20.7152 26.0238 18.51C25.123 16.6613 22.1453 9.75813 21.2526 8.01921C20.5794 6.88598 18.89 6.7471 17.5885 6.72767C17.5889 6.43649 17.6047 6.2137 17.5979 5.81584L26.9356 5.8446V6.69249C25.671 6.72759 24.4745 7.1979 25.016 8.40608C26.2722 11.0135 27.0049 12.8692 28.1598 15.2804C28.5287 14.5743 30.4146 10.7025 31.3147 8.65817C31.8588 7.30026 31.0466 6.79053 28.7715 6.72937C28.8016 6.50594 28.7817 6.05723 28.8008 5.84341C31.7043 5.83248 36.0883 5.82232 36.8647 5.81061L36.8689 6.69299C35.3868 6.75049 33.8539 7.54024 33.0529 8.76552L29.1698 16.8188C29.5963 17.8852 33.3291 26.1781 33.7226 27.0979L41.751 8.56955C41.18 7.06897 39.3577 6.73397 38.6452 6.71706C38.6503 6.47849 38.6507 6.11394 38.6527 5.81028L47.0335 5.87403L47.0449 5.91638L47.0305 6.71319C45.1919 6.7686 44.0546 7.75167 43.375 9.36344C41.705 13.1359 36.5995 25.0846 33.1919 32.8717C33.1874 32.876 32.2986 32.8704 32.2966 32.8691Z" fill="black"/>
</svg>
