<?xml version="1.0" encoding="utf-8"?>
<!-- Generator: Adobe Illustrator 17.0.2, SVG Export Plug-In . SVG Version: 6.00 Build 0)  -->
<!DOCTYPE svg PUBLIC "-//W3C//DTD SVG 1.1//EN" "http://www.w3.org/Graphics/SVG/1.1/DTD/svg11.dtd">
<svg version="1.1" id="Layer_1" xmlns="http://www.w3.org/2000/svg" xmlns:xlink="http://www.w3.org/1999/xlink" x="0px" y="0px"
	 width="512px" height="512px" viewBox="50 140 512 512" enable-background="new 50 140 512 512" xml:space="preserve">
<g>
	<rect x="50" y="140" fill="#EEEEEE" width="512" height="512"/>
	<path id="letterw" fill="#333333" d="M475.763,312.302c0,1.28-0.376,2.334-1.129,3.388c-0.753,0.979-1.581,1.506-2.56,1.506
		c-7.529,0.753-13.779,3.162-18.522,7.304c-4.819,4.141-9.788,12.047-14.908,23.642L360.413,524.33
		c-0.527,1.656-1.958,2.485-4.292,2.485c-1.882,0-3.238-0.828-4.292-2.485l-43.821-91.633l-50.447,91.708
		c-1.054,1.656-2.485,2.485-4.292,2.485c-2.259,0-3.765-0.828-4.442-2.485l-76.8-176.188c-4.819-10.918-9.864-18.598-15.209-22.889
		c-5.271-4.367-12.725-7.002-22.212-8.056c-0.828,0-1.581-0.452-2.334-1.28c-0.753-0.828-1.054-1.882-1.054-2.936
		c0-2.861,0.828-4.292,2.485-4.292c6.852,0,14.005,0.301,21.459,0.904c6.927,0.602,13.478,0.904,19.576,0.904
		c6.249,0,13.628-0.301,22.061-0.904c8.885-0.602,16.791-0.904,23.642-0.904c1.656,0,2.485,1.431,2.485,4.292
		s-0.527,4.292-1.506,4.292c-6.852,0.527-12.273,2.259-16.188,5.195s-5.873,6.852-5.873,11.671c0,2.485,0.828,5.496,2.485,9.186
		l63.473,143.36l36.066-68.066l-33.581-70.4c-6.024-12.574-10.993-20.706-14.908-24.32s-9.788-5.873-17.619-6.701
		c-0.753,0-1.431-0.452-2.033-1.28c-0.678-0.828-0.979-1.882-0.979-2.936c0-2.861,0.678-4.292,2.184-4.292
		c6.852,0,13.101,0.301,18.824,0.904c5.496,0.602,11.369,0.904,17.619,0.904c6.099,0,12.574-0.301,19.426-0.904
		c7.078-0.602,14.005-0.904,20.856-0.904c1.656,0,2.485,1.431,2.485,4.292c0,2.861-0.452,4.292-1.506,4.292
		c-13.704,0.904-20.555,4.819-20.555,11.671c0,3.087,1.581,7.831,4.744,14.231l22.212,45.101l22.061-41.261
		c3.087-5.798,4.593-10.767,4.593-14.758c0-9.412-6.852-14.381-20.555-15.059c-1.28,0-1.882-1.431-1.882-4.292
		c0-1.054,0.301-2.033,0.904-2.936c0.602-0.904,1.28-1.431,1.882-1.431c4.894,0,10.918,0.301,18.071,0.904
		c6.852,0.602,12.499,0.904,16.866,0.904c3.162,0,7.831-0.301,13.929-0.753c7.755-0.678,14.306-1.054,19.501-1.054
		c1.205,0,1.807,1.205,1.807,3.689c0,3.238-1.129,4.894-3.388,4.894c-7.981,0.828-14.381,3.012-19.275,6.626
		c-4.894,3.614-10.918,11.671-18.146,24.395l-29.44,54.438l39.906,81.242l58.88-136.96c2.033-4.969,3.087-9.638,3.087-13.779
		c0-10.014-6.852-15.36-20.555-15.962c-1.28,0-1.882-1.431-1.882-4.292s0.904-4.292,2.786-4.292c4.969,0,10.918,0.301,17.769,0.904
		c6.325,0.602,11.671,0.904,15.962,0.904c4.518,0,9.713-0.301,15.661-0.904c6.174-0.602,11.671-0.904,16.565-0.904
		C475.086,308.613,475.763,309.818,475.763,312.302z"/>
</g>
</svg>
