<svg width="201" height="200" viewBox="0 0 201 200" fill="none" xmlns="http://www.w3.org/2000/svg">
<path fill-rule="evenodd" clip-rule="evenodd" d="M22.5 28C21.3954 28 20.5 28.8954 20.5 30V125.574C20.5 126.679 21.3954 127.574 22.5 127.574H31.1666V142.837L53.6559 127.574H117.548C118.652 127.574 119.548 126.679 119.548 125.574V30C119.548 28.8954 118.652 28 117.548 28H22.5Z" fill="#678DD9"/>
<path d="M31.1666 127.574H32.1666V126.574H31.1666V127.574ZM31.1666 142.837H30.1666V144.724L31.7282 143.664L31.1666 142.837ZM53.6559 127.574V126.574H53.3487L53.0944 126.747L53.6559 127.574ZM21.5 30C21.5 29.4477 21.9477 29 22.5 29V27C20.8431 27 19.5 28.3431 19.5 30H21.5ZM21.5 125.574V30H19.5V125.574H21.5ZM22.5 126.574C21.9477 126.574 21.5 126.127 21.5 125.574H19.5C19.5 127.231 20.8431 128.574 22.5 128.574V126.574ZM31.1666 126.574H22.5V128.574H31.1666V126.574ZM32.1666 142.837V127.574H30.1666V142.837H32.1666ZM53.0944 126.747L30.6051 142.01L31.7282 143.664L54.2175 128.402L53.0944 126.747ZM117.548 126.574H53.6559V128.574H117.548V126.574ZM118.548 125.574C118.548 126.127 118.1 126.574 117.548 126.574V128.574C119.204 128.574 120.548 127.231 120.548 125.574H118.548ZM118.548 30V125.574H120.548V30H118.548ZM117.548 29C118.1 29 118.548 29.4477 118.548 30H120.548C120.548 28.3431 119.204 27 117.548 27V29ZM22.5 29H117.548V27H22.5V29Z" fill="#72777D"/>
<path fill-rule="evenodd" clip-rule="evenodd" d="M93.6309 104.596H90.2146V101.849H76.8807V84.681H93.6426V104.596H93.6309ZM90.2146 87.9987H80.3552V98.5111H90.2146V87.9987Z" fill="white"/>
<path fill-rule="evenodd" clip-rule="evenodd" d="M96.6904 60.1702H75.3571V63.234H96.6904V60.1702Z" fill="white"/>
<path fill-rule="evenodd" clip-rule="evenodd" d="M93.6426 52.5106H78.4045V55.5745H93.6426V52.5106Z" fill="white"/>
<path fill-rule="evenodd" clip-rule="evenodd" d="M70.7856 104.596H67.0783V101.885H50.1701V104.238H46.4047V83.1489H70.7856V104.596ZM67.0898 86.7493H50.1817V98.2258H67.0898V86.7493Z" fill="white"/>
<path fill-rule="evenodd" clip-rule="evenodd" d="M43.3569 76.5224H48.974V64.1337H61.7701L60.8133 57.5612H45.4366V54.0426H73.3364V57.5612H64.4633C64.8038 59.6177 65.1358 61.9036 65.4764 64.1337H72.2135V67.6493H66.0364C66.5964 70.8796 67.1564 73.9246 67.663 76.5106H75.3569V80.0852H43.3569V76.5224ZM52.624 76.5227H63.9144C63.4079 73.9367 62.8479 70.8329 62.3413 67.6614H52.624V76.5227Z" fill="white"/>
<path fill-rule="evenodd" clip-rule="evenodd" d="M93.6426 69.3619H76.8807V72.4258H93.6426V69.3619Z" fill="white"/>
<path fill-rule="evenodd" clip-rule="evenodd" d="M93.6426 77.0214H76.8807V80.0852H93.6426V77.0214Z" fill="white"/>
<path fill-rule="evenodd" clip-rule="evenodd" d="M172.52 149.516C177.565 141.676 180.5 132.295 180.5 122.213C180.5 94.716 158.669 72.4255 131.738 72.4255C104.808 72.4255 82.9766 94.716 82.9766 122.213C82.9766 149.709 104.808 172 131.738 172C142.149 172 151.798 168.669 159.718 162.994L172.52 171.683V149.516Z" fill="#3366CC"/>
<path d="M172.52 149.516L171.679 148.975L171.52 149.222V149.516H172.52ZM159.718 162.994L160.279 162.166L159.702 161.774L159.135 162.181L159.718 162.994ZM172.52 171.683L171.959 172.511L173.52 173.571V171.683H172.52ZM179.5 122.213C179.5 132.098 176.623 141.293 171.679 148.975L173.361 150.057C178.508 142.06 181.5 132.491 181.5 122.213H179.5ZM131.738 73.4255C158.097 73.4255 179.5 95.2486 179.5 122.213H181.5C181.5 94.1835 159.241 71.4255 131.738 71.4255V73.4255ZM83.9766 122.213C83.9766 95.2486 105.38 73.4255 131.738 73.4255V71.4255C104.236 71.4255 81.9766 94.1835 81.9766 122.213H83.9766ZM131.738 171C105.38 171 83.9766 149.177 83.9766 122.213H81.9766C81.9766 150.242 104.236 173 131.738 173V171ZM159.135 162.181C151.378 167.739 141.932 171 131.738 171V173C142.366 173 152.217 169.599 160.3 163.806L159.135 162.181ZM159.156 163.821L171.959 172.511L173.082 170.856L160.279 162.166L159.156 163.821ZM173.52 171.683V149.516H171.52V171.683H173.52Z" fill="#72777D"/>
<path d="M106.973 138V106.998H118.295C127.534 106.998 133.034 112.584 133.034 122.381V122.424C133.034 132.242 127.577 138 118.295 138H106.973ZM112.516 133.316H117.715C123.946 133.316 127.383 129.514 127.383 122.445V122.402C127.383 115.484 123.881 111.682 117.715 111.682H112.516V133.316ZM137.605 138V106.998H157.671V111.66H143.148V120.018H156.877V124.508H143.148V133.338H157.671V138H137.605Z" fill="white"/>
</svg>
