<svg width="20" height="19" viewBox="0 0 20 19" fill="none" xmlns="http://www.w3.org/2000/svg">
<path d="M3.15103 19C2.10069 19 1.31126 18.7317 0.78274 18.195C0.260913 17.6652 0 16.8671 0 15.8007V3.19935C0 2.1329 0.260913 1.33478 0.78274 0.804997C1.31126 0.268332 2.10069 0 3.15103 0H16.859C17.9093 0 18.6954 0.268332 19.2173 0.804997C19.7391 1.33478 20 2.1329 20 3.19935V15.8007C20 16.8671 19.7391 17.6652 19.2173 18.195C18.6954 18.7317 17.9093 19 16.859 19H3.15103ZM3.0005 17.3384H16.9895C17.4377 17.3384 17.7822 17.2146 18.0231 16.9669C18.2639 16.7261 18.3843 16.3683 18.3843 15.8935V6.16133C18.3843 5.68658 18.2639 5.32881 18.0231 5.088C17.7822 4.8403 17.4377 4.71646 16.9895 4.71646H3.0005C2.55896 4.71646 2.21776 4.8403 1.97692 5.088C1.73608 5.32881 1.61565 5.68658 1.61565 6.16133V15.8935C1.61565 16.3683 1.73608 16.7261 1.97692 16.9669C2.21776 17.2146 2.55896 17.3384 3.0005 17.3384Z" fill="#9B527F"/>
</svg>
