<svg width="201" height="200" viewBox="0 0 201 200" fill="none" xmlns="http://www.w3.org/2000/svg">
<mask id="path-1-outside-1_146_3681" maskUnits="userSpaceOnUse" x="17.0868" y="17.1716" width="159.806" height="159.806" fill="black">
<rect fill="white" x="17.0868" y="17.1716" width="159.806" height="159.806"/>
<path fill-rule="evenodd" clip-rule="evenodd" d="M147.902 21.4142C147.12 20.6332 145.854 20.6332 145.073 21.4142L21.9143 144.573C21.1332 145.354 21.1332 146.62 21.9143 147.401L46.2877 171.775C47.0687 172.556 48.335 172.556 49.1161 171.775L172.275 48.616C173.056 47.835 173.056 46.5686 172.275 45.7876L147.902 21.4142ZM142.908 50.781C146.071 53.9438 151.199 53.9438 154.361 50.781C157.524 47.6182 157.524 42.4904 154.361 39.3276C151.199 36.1649 146.071 36.1649 142.908 39.3276C139.745 42.4904 139.745 47.6182 142.908 50.781Z"/>
</mask>
<path fill-rule="evenodd" clip-rule="evenodd" d="M147.902 21.4142C147.12 20.6332 145.854 20.6332 145.073 21.4142L21.9143 144.573C21.1332 145.354 21.1332 146.62 21.9143 147.401L46.2877 171.775C47.0687 172.556 48.335 172.556 49.1161 171.775L172.275 48.616C173.056 47.835 173.056 46.5686 172.275 45.7876L147.902 21.4142ZM142.908 50.781C146.071 53.9438 151.199 53.9438 154.361 50.781C157.524 47.6182 157.524 42.4904 154.361 39.3276C151.199 36.1649 146.071 36.1649 142.908 39.3276C139.745 42.4904 139.745 47.6182 142.908 50.781Z" fill="#2CB491"/>
<path d="M21.9143 147.401L23.3285 145.987L21.9143 147.401ZM46.2877 171.775L44.8734 173.189L46.2877 171.775ZM146.487 22.8284L146.487 22.8284L149.316 20C147.754 18.4379 145.221 18.4379 143.659 20L146.487 22.8284ZM23.3285 145.987L146.487 22.8284L143.659 20L20.5001 143.159L23.3285 145.987ZM23.3285 145.987L23.3285 145.987L20.5001 143.159C18.938 144.721 18.938 147.254 20.5001 148.816L23.3285 145.987ZM47.7019 170.361L23.3285 145.987L20.5001 148.816L44.8734 173.189L47.7019 170.361ZM47.7019 170.361L44.8734 173.189C46.4355 174.751 48.9682 174.751 50.5303 173.189L47.7019 170.361ZM170.861 47.2018L47.7019 170.361L50.5303 173.189L173.689 50.0302L170.861 47.2018ZM170.861 47.2018L173.689 50.0302C175.251 48.4681 175.251 45.9355 173.689 44.3734L170.861 47.2018ZM146.487 22.8284L170.861 47.2018L173.689 44.3734L149.316 20L146.487 22.8284ZM152.947 49.3668C150.566 51.7485 146.704 51.7485 144.322 49.3668L141.494 52.1952C145.438 56.139 151.832 56.139 155.776 52.1952L152.947 49.3668ZM152.947 40.7418C155.329 43.1235 155.329 46.9851 152.947 49.3668L155.776 52.1952C159.719 48.2514 159.719 41.8572 155.776 37.9134L152.947 40.7418ZM144.322 40.7418C146.704 38.3601 150.566 38.3601 152.947 40.7418L155.776 37.9134C151.832 33.9696 145.438 33.9696 141.494 37.9134L144.322 40.7418ZM144.322 49.3668C141.941 46.9851 141.941 43.1235 144.322 40.7418L141.494 37.9134C137.55 41.8572 137.55 48.2514 141.494 52.1952L144.322 49.3668Z" fill="#72777D" mask="url(#path-1-outside-1_146_3681)"/>
<path d="M135.352 64.0639C135.747 63.6685 136.388 63.6685 136.784 64.0639L146.805 74.0856L145.374 75.5172L135.352 65.4955C134.957 65.1002 134.957 64.4592 135.352 64.0639Z" fill="#196551"/>
<path d="M107.037 92.3788C107.432 91.9835 108.073 91.9835 108.468 92.3788L118.49 102.401L117.058 103.832L107.037 93.8105C106.641 93.4151 106.641 92.7741 107.037 92.3788Z" fill="#3056A9"/>
<path d="M116.899 73.9263C117.295 73.5309 117.936 73.5309 118.331 73.9263L132.648 88.243L131.216 89.6747L116.899 75.358C116.504 74.9626 116.504 74.3216 116.899 73.9263Z" fill="#196551"/>
<path d="M78.7217 120.694C79.117 120.299 79.758 120.299 80.1533 120.694L90.175 130.716L88.7434 132.148L78.7217 122.126C78.3263 121.731 78.3263 121.09 78.7217 120.694Z" fill="#196551"/>
<path d="M88.584 102.242C88.9793 101.846 89.6203 101.846 90.0156 102.242L104.332 116.559L102.901 117.99L88.584 103.674C88.1886 103.278 88.1886 102.637 88.584 102.242Z" fill="#3056A9"/>
<path d="M50.4062 149.01C50.8016 148.615 51.4426 148.615 51.8379 149.01L61.8596 159.032L60.4279 160.463L50.4062 150.442C50.0109 150.046 50.0109 149.405 50.4062 149.01Z" fill="#196551"/>
<path d="M60.2685 130.557C60.6639 130.161 61.3049 130.161 61.7002 130.557L76.0169 144.874L74.5853 146.305L60.2685 131.988C59.8732 131.593 59.8732 130.952 60.2685 130.557Z" fill="#196551"/>
<path d="M159.586 140.59L159.51 140.416L159.375 140.281L46.5602 27.466C43.0454 23.9512 37.347 23.9512 33.8322 27.466L27.9659 33.3323C24.4511 36.847 24.4511 42.5455 27.9659 46.0602L140.731 158.825L140.864 158.958L141.037 159.034L171.474 172.362L173.805 173.382L172.792 171.048L159.586 140.59Z" fill="#A2A9B1" fill-opacity="0.472118" stroke="#72777D" stroke-width="2"/>
<path d="M28.673 45.3531C25.5488 42.229 25.5488 37.1636 28.673 34.0394L34.5393 28.1731C37.6635 25.0489 42.7289 25.0489 45.853 28.1731L54.5129 36.8329L37.3328 54.013L28.673 45.3531Z" fill="#DD3333"/>
<rect x="37.333" y="54.0129" width="24.2963" height="12.1934" transform="rotate(-45 37.333 54.0129)" fill="#C8CCD1"/>
<path fill-rule="evenodd" clip-rule="evenodd" d="M141.373 158.053L137.891 154.571L155.071 137.391L158.553 140.873L171.887 171.434L141.373 158.053Z" fill="#F8F9FA"/>
<path fill-rule="evenodd" clip-rule="evenodd" d="M156.625 164.748L165.229 156.144L171.887 171.434L156.625 164.748Z" fill="#27292D"/>
<path fill-rule="evenodd" clip-rule="evenodd" d="M45.9229 62.603L63.1029 45.4229C63.1029 45.4229 121.973 104.781 158.521 140.841C152.094 139.791 153.261 146.102 153.261 146.102C153.261 146.102 146.178 145.671 146.555 152.807C139.797 152.053 141.341 158.021 141.341 158.021L45.9229 62.603Z" fill="#FFCC33"/>
</svg>
