<svg width="958" height="958" viewBox="0 0 958 958" fill="none" xmlns="http://www.w3.org/2000/svg">
<path fill-rule="evenodd" clip-rule="evenodd" d="M904.487 218.619C904.487 221.687 903.514 224.456 901.643 227.001C899.697 229.471 897.676 230.743 895.356 230.743C876.72 232.54 861.377 238.527 849.551 248.781C837.651 258.959 825.452 278.494 812.803 307.234L619.706 742.375C618.434 746.417 614.916 748.438 609.078 748.438C604.513 748.438 600.995 746.417 598.451 742.375L490.152 515.898L365.612 742.375C363.067 746.417 359.549 748.438 354.984 748.438C349.445 748.438 345.778 746.417 343.982 742.375L154.253 307.234C142.428 280.215 129.929 261.354 116.756 250.652C103.659 239.949 85.3219 233.288 61.8958 230.743C59.875 230.743 57.9291 229.695 56.2077 227.525C54.4114 225.429 53.5133 222.96 53.5133 220.19C53.5133 213.08 55.5341 209.562 59.5756 209.562C76.4903 209.562 94.1535 210.311 112.64 211.808C129.779 213.38 145.945 214.128 161.064 214.128C176.482 214.128 194.669 213.38 215.625 211.808C237.554 210.311 257.013 209.562 273.928 209.562C277.97 209.562 279.99 213.08 279.99 220.19C279.99 227.226 278.718 230.743 276.248 230.743C259.334 232.016 246.011 236.357 236.282 243.616C226.552 250.951 221.687 260.531 221.687 272.431C221.687 278.494 223.708 286.053 227.75 295.109L384.547 649.195L473.536 481.096L390.61 307.234C375.716 276.248 363.441 256.19 353.861 247.209C344.281 238.302 329.762 232.764 310.302 230.743C308.506 230.743 306.859 229.695 305.213 227.525C303.566 225.429 302.743 222.96 302.743 220.19C302.743 213.08 304.464 209.562 308.057 209.562C324.972 209.562 340.464 210.311 354.61 211.808C368.231 213.38 382.751 214.128 398.169 214.128C413.287 214.128 429.304 213.38 446.218 211.808C463.657 210.311 480.796 209.562 497.711 209.562C501.753 209.562 503.773 213.08 503.773 220.19C503.773 227.226 502.576 230.743 500.031 230.743C466.202 233.063 449.287 242.643 449.287 259.558C449.287 267.117 453.179 278.868 461.038 294.735L515.898 406.102L570.459 304.24C578.018 289.87 581.835 277.745 581.835 267.866C581.835 244.664 564.921 232.315 531.091 230.743C528.023 230.743 526.526 227.226 526.526 220.19C526.526 217.646 527.274 215.251 528.771 213.005C530.343 210.685 531.84 209.562 533.337 209.562C545.461 209.562 560.355 210.311 578.018 211.808C594.933 213.38 608.854 214.128 619.706 214.128C627.49 214.128 639.016 213.454 654.134 212.182C673.294 210.461 689.386 209.562 702.259 209.562C705.253 209.562 706.75 212.556 706.75 218.619C706.75 226.702 703.98 230.743 698.442 230.743C678.758 232.764 662.891 238.228 650.916 247.059C638.941 255.891 623.972 275.949 606.085 307.234L533.337 441.728L631.831 642.384L777.252 304.24C782.267 291.891 784.812 280.514 784.812 270.186C784.812 245.413 767.897 232.315 734.068 230.743C730.999 230.743 729.502 227.226 729.502 220.19C729.502 213.08 731.747 209.562 736.313 209.562C748.662 209.562 763.331 210.311 780.246 211.808C795.888 213.38 809.061 214.128 819.614 214.128C830.766 214.128 843.639 213.38 858.233 211.808C873.427 210.311 887.048 209.562 899.173 209.562C902.69 209.562 904.487 212.556 904.487 218.619Z" fill="black"/>
</svg>
