<svg width="30" height="32" viewBox="0 0 30 32" fill="none" xmlns="http://www.w3.org/2000/svg">
<path d="M5.79688 0C7.01823 0 8.3125 0.150391 9.67969 0.451172C11.056 0.742839 12.4232 1.20312 13.7812 1.83203C15.1484 2.45182 16.4427 3.24479 17.6641 4.21094C18.8945 5.17708 19.9837 6.32096 20.9316 7.64258C21.8887 8.96419 22.6406 10.4727 23.1875 12.168C23.7344 13.8633 24.0078 15.7637 24.0078 17.8691C24.0078 18.062 24.0023 18.253 23.9961 18.4424C23.8495 18.4332 23.7017 18.4277 23.5527 18.4277C19.6867 18.4277 16.5527 21.5617 16.5527 25.4277C16.5527 26.8185 16.9598 28.1136 17.6592 29.2031C17.2917 29.3928 16.911 29.5668 16.5156 29.7227C14.9661 30.3333 13.2389 30.6387 11.334 30.6387C9.06445 30.6387 7.07747 30.2285 5.37305 29.4082C3.67773 28.5879 2.35612 27.4395 1.4082 25.9629C0.469401 24.4863 0 22.7637 0 20.7949C0 19.7467 0.0820312 18.8398 0.246094 18.0742C0.410156 17.2995 0.610677 16.6159 0.847656 16.0234C1.09375 15.431 1.33984 14.875 1.58594 14.3555C1.83203 13.8359 2.03255 13.3118 2.1875 12.7832C2.35156 12.2454 2.43359 11.653 2.43359 11.0059C2.43359 10.6048 2.41536 10.2493 2.37891 9.93945C2.35156 9.62044 2.33789 9.32422 2.33789 9.05078C2.33789 8.61328 2.45638 8.27148 2.69336 8.02539C2.93945 7.7793 3.25846 7.65625 3.65039 7.65625C4.06966 7.65625 4.49349 7.77018 4.92188 7.99805C5.35026 8.2168 5.75586 8.56771 6.13867 9.05078C6.40697 9.38297 6.65619 9.7896 6.88867 10.2695C6.89811 10.1656 6.9043 10.0602 6.9043 9.95312C6.9043 9.11458 6.75846 8.32161 6.4668 7.57422C6.17513 6.82682 5.7832 6.09766 5.29102 5.38672C4.79883 4.66667 4.25651 3.94661 3.66406 3.22656C3.49089 3.01693 3.35417 2.79818 3.25391 2.57031C3.15365 2.33333 3.10352 2.09635 3.10352 1.85938C3.10352 1.25781 3.34961 0.797526 3.8418 0.478516C4.33398 0.159505 4.98568 0 5.79688 0ZM11.9629 13.9043C11.8444 13.8496 11.735 13.8542 11.6348 13.918C11.5436 13.9818 11.5117 14.0866 11.5391 14.2324C11.6758 15.1986 11.7031 16.11 11.6211 16.9668C11.5482 17.8145 11.3477 18.5391 11.0195 19.1406C10.8646 18.7031 10.6868 18.3158 10.4863 17.9785C10.2949 17.6322 10.0579 17.3223 9.77539 17.0488C9.66602 16.9577 9.5612 16.9349 9.46094 16.9805C9.36979 17.026 9.31966 17.1035 9.31055 17.2129C9.25586 17.6686 9.13281 18.0697 8.94141 18.416C8.75 18.7624 8.54036 19.1042 8.3125 19.4414C8.09375 19.7695 7.90234 20.1387 7.73828 20.5488C7.57422 20.959 7.49219 21.4512 7.49219 22.0254C7.49219 23.1465 7.875 24.0534 8.64062 24.7461C9.41536 25.4297 10.4316 25.7715 11.6895 25.7715C12.7103 25.7715 13.5762 25.5527 14.2871 25.1152C14.998 24.6777 15.5358 24.0898 15.9004 23.3516C16.2741 22.6042 16.4609 21.7702 16.4609 20.8496C16.4609 19.9017 16.2878 18.9766 15.9414 18.0742C15.5951 17.1719 15.0846 16.3561 14.4102 15.627C13.7448 14.8978 12.929 14.3236 11.9629 13.9043Z" fill="#A95226"/>
<path d="M23.5527 31.4277C20.2402 31.4277 17.5527 28.7402 17.5527 25.4277C17.5527 22.1152 20.2402 19.4277 23.5527 19.4277C26.8652 19.4277 29.5527 22.1152 29.5527 25.4277C29.5527 28.7402 26.8652 31.4277 23.5527 31.4277ZM23.5584 26.28C23.9505 26.28 24.1777 26.0584 24.2005 25.6493L24.2914 23.2005C24.3141 22.7743 24.0016 22.4789 23.5527 22.4789C23.0982 22.4789 22.7914 22.7686 22.8141 23.2005L22.905 25.655C22.9221 26.0584 23.155 26.28 23.5584 26.28ZM23.5584 28.3311C24.0073 28.3311 24.3539 28.0471 24.3539 27.6096C24.3539 27.1834 24.013 26.8936 23.5584 26.8936C23.1039 26.8936 22.7516 27.1834 22.7516 27.6096C22.7516 28.0471 23.1039 28.3311 23.5584 28.3311Z" fill="#A95226"/>
</svg>
