<svg width="19" height="19" viewBox="0 0 19 19" fill="none" xmlns="http://www.w3.org/2000/svg">
<path fill-rule="evenodd" clip-rule="evenodd" d="M15 16.25C15.6904 16.25 16.25 15.6904 16.25 15V12.25C16.25 11.6977 16.6977 11.25 17.25 11.25C17.8023 11.25 18.25 11.6977 18.25 12.25V16.25C18.25 17.3546 17.3546 18.25 16.25 18.25H2.25C1.14543 18.25 0.25 17.3546 0.25 16.25V2.25C0.25 1.14543 1.14543 0.25 2.25 0.25H6.25C6.80228 0.25 7.25 0.697715 7.25 1.25C7.25 1.80228 6.80228 2.25 6.25 2.25H3.5C2.80964 2.25 2.25 2.80964 2.25 3.5V15C2.25 15.6904 2.80964 16.25 3.5 16.25H15ZM10.2498 0.25H18.2498V8.25L14.9598 4.96L9.93981 9.98C9.54769 10.3721 8.91194 10.3721 8.51981 9.98C8.12769 9.58788 8.12769 8.95212 8.51981 8.56L13.5398 3.54L10.2498 0.25Z" fill="#3366CC"/>
</svg>
