<svg xmlns="http://www.w3.org/2000/svg" width="14" height="14" viewBox="0 0 14 14">
    <g fill="none" fill-rule="evenodd">
        <g fill="#36C">
            <g>
                <path d="M10 9.4v8.4c0 .77.63 1.4 1.4 1.4h9.8L24 22V9.4c0-.77-.63-1.4-1.4-1.4H11.4c-.77 0-1.4.63-1.4 1.4zm5.25 2.45c0 .56-.49 1.05-1.05 1.05s-1.05-.49-1.05-1.05.49-1.05 1.05-1.05 1.05.49 1.05 1.05zm5.6 0c0 .56-.49 1.05-1.05 1.05s-1.05-.49-1.05-1.05.49-1.05 1.05-1.05 1.05.49 1.05 1.05zm-7.77 2.45h7.91c-.56 1.61-2.1 2.1-3.92 2.1-1.82 0-3.43-.49-3.99-2.1z" transform="translate(-44 -764) translate(34 756)"/>
            </g>
        </g>
    </g>
</svg>
