<svg width="201" height="200" viewBox="0 0 201 200" fill="none" xmlns="http://www.w3.org/2000/svg">
<g id="Clip path group">
<mask id="mask0_216_1093" style="mask-type:luminance" maskUnits="userSpaceOnUse" x="0" y="0" width="201" height="200">
<g id="d">
<path id="Vector" d="M0.5 0H200.5V200H0.5V0Z" fill="white"/>
</g>
</mask>
<g mask="url(#mask0_216_1093)">
<g id="Group">
<path id="Vector_2" d="M31.6997 1H173.7C173.965 1 174.219 1.10536 174.407 1.29289C174.594 1.48043 174.7 1.73478 174.7 2V170H31.6997C31.4345 170 31.1801 169.895 30.9926 169.707C30.805 169.52 30.6997 169.265 30.6997 169V2C30.6997 1.73478 30.805 1.48043 30.9926 1.29289C31.1801 1.10536 31.4345 1 31.6997 1Z" fill="white" stroke="#54595D" stroke-width="2"/>
<path id="Vector_3" d="M27.5 1H40.5V176H27.5C27.2348 176 26.9804 175.895 26.7929 175.707C26.6054 175.52 26.5 175.265 26.5 175V2C26.5 1.73478 26.6054 1.48043 26.7929 1.29289C26.9804 1.10536 27.2348 1 27.5 1Z" fill="#2CB491" stroke="#54595D" stroke-width="2"/>
<path id="Vector_4" d="M26.5298 176.54C26.5324 174.865 27.1991 173.259 28.3838 172.074C29.5684 170.889 31.1744 170.223 32.8498 170.22H171.28V182.87H32.8498C31.1727 182.867 29.5652 182.199 28.3803 181.012C27.1953 179.826 26.5298 178.217 26.5298 176.54Z" fill="white" stroke="#54595D" stroke-width="2"/>
<g id="Mask group">
<mask id="mask1_216_1093" style="mask-type:luminance" maskUnits="userSpaceOnUse" x="25" y="168" width="151" height="17">
<g id="Group_2">
<path id="Vector_5" fill-rule="evenodd" clip-rule="evenodd" d="M175.5 184.41H33.2298C31.1823 184.41 29.2187 183.597 27.7709 182.149C26.3231 180.701 25.5098 178.737 25.5098 176.69C25.5098 174.643 26.3231 172.679 27.7709 171.231C29.2187 169.783 31.1823 168.97 33.2298 168.97H175.5" fill="white"/>
</g>
</mask>
<g mask="url(#mask1_216_1093)">
<path id="Vector_6" d="M175.5 182.41H33.2295V186.41H175.5V182.41ZM33.2295 170.97H175.5V166.97H33.2295V170.97ZM27.4995 176.69C27.4969 175.937 27.6434 175.191 27.9305 174.496C28.2176 173.8 28.6398 173.168 29.1725 172.636C29.7052 172.104 30.338 171.683 31.0344 171.397C31.7307 171.111 32.4768 170.966 33.2295 170.97V166.97C31.9515 166.966 30.6853 167.215 29.5037 167.702C28.322 168.189 27.2483 168.904 26.3441 169.808C25.4399 170.711 24.7232 171.784 24.235 172.965C23.7468 174.146 23.4969 175.412 23.4995 176.69H27.4995ZM33.2295 182.41C32.4768 182.414 31.7307 182.269 31.0344 181.983C30.338 181.697 29.7052 181.276 29.1725 180.744C28.6398 180.212 28.2176 179.58 27.9305 178.884C27.6434 178.189 27.4969 177.443 27.4995 176.69H23.4995C23.4969 177.968 23.7468 179.234 24.235 180.415C24.7232 181.596 25.4399 182.669 26.3441 183.573C27.2483 184.476 28.322 185.191 29.5037 185.678C30.6853 186.165 31.9515 186.414 33.2295 186.41V182.41Z" fill="#54595D"/>
</g>
</g>
<path id="Vector_7" d="M51.4995 188.08L43.2896 197.36V169.96H61.2195V197.36L52.9995 188.08L52.2495 187.23L51.4995 188.08Z" fill="#FECC44" stroke="#54595D" stroke-width="2"/>
<path id="Vector_8" d="M84.7529 29.537H55.4119C53.9556 29.537 52.7749 30.7176 52.7749 32.174C52.7749 33.6304 53.9556 34.811 55.4119 34.811H84.7529C86.2093 34.811 87.3899 33.6304 87.3899 32.174C87.3899 30.7176 86.2093 29.537 84.7529 29.537Z" fill="#A2A9B1"/>
<path id="Vector_9" d="M128.809 151.904H121.496C120.04 151.904 118.859 153.085 118.859 154.541C118.859 155.997 120.04 157.178 121.496 157.178H128.809C130.265 157.178 131.446 155.997 131.446 154.541C131.446 153.085 130.265 151.904 128.809 151.904Z" fill="#A2A9B1"/>
<path id="Vector_10" d="M146.642 151.904H139.329C137.873 151.904 136.692 153.085 136.692 154.541C136.692 155.997 137.873 157.178 139.329 157.178H146.642C148.098 157.178 149.279 155.997 149.279 154.541C149.279 153.085 148.098 151.904 146.642 151.904Z" fill="#A2A9B1"/>
<path id="Vector_11" d="M110.977 151.904H55.4119C53.9556 151.904 52.7749 153.085 52.7749 154.541C52.7749 155.997 53.9556 157.178 55.4119 157.178H110.977C112.433 157.178 113.614 155.997 113.614 154.541C113.614 153.085 112.433 151.904 110.977 151.904Z" fill="#A2A9B1"/>
<path id="Vector_12" d="M128.809 15.823H55.4119C53.9556 15.823 52.7749 17.0036 52.7749 18.46C52.7749 19.9164 53.9556 21.097 55.4119 21.097H128.809C130.265 21.097 131.446 19.9164 131.446 18.46C131.446 17.0036 130.265 15.823 128.809 15.823Z" fill="#72777D"/>
<path id="Vector_13" fill-rule="evenodd" clip-rule="evenodd" d="M102.08 56C93.4904 56.6878 85.4773 60.5924 79.6427 66.9332C73.8081 73.2739 70.5821 81.5834 70.6095 90.2C70.5883 99.2652 74.167 107.968 80.5593 114.396C86.9515 120.824 95.6343 124.451 104.7 124.48C113.311 124.458 121.596 121.186 127.898 115.317C134.2 109.449 138.054 101.418 138.69 92.83H102.08V56.01V56Z" fill="#3366CC"/>
<path id="Vector_14" fill-rule="evenodd" clip-rule="evenodd" d="M138.69 87.56H107.32V56C115.452 56.6526 123.084 60.1911 128.836 65.9767C134.589 71.7623 138.084 79.4138 138.69 87.55V87.56Z" fill="#233566"/>
</g>
</g>
</g>
</svg>
