<svg xmlns="http://www.w3.org/2000/svg" width="13" height="14" viewBox="0 0 13 14">
    <g fill="none" fill-rule="evenodd">
        <g fill="#36C">
            <path d="M92.65 728.5h4.554c.771 0 1.396.627 1.396 1.398v4.902h-4.9v1.4h3.504c.771 0 1.396.622 1.396 1.4v1.4H86v-1.4c0-.774.625-1.4 1.397-1.4H90.9v-1.4H86v-4.902c0-.773.625-1.398 1.397-1.398h4.553v-1.46c-.482-.17-.771-.663-.685-1.168.087-.504.524-.872 1.035-.872.512 0 .949.368 1.035.872.087.505-.203.998-.685 1.168v1.46zm-2.8 4.2c.58 0 1.05-.47 1.05-1.05 0-.58-.47-1.05-1.05-1.05-.58 0-1.05.47-1.05 1.05 0 .58.47 1.05 1.05 1.05zm4.9 0c.58 0 1.05-.47 1.05-1.05 0-.58-.47-1.05-1.05-1.05-.58 0-1.05.47-1.05 1.05 0 .58.47 1.05 1.05 1.05z" transform="translate(-86 -725)"/>
        </g>
    </g>
</svg>
