<?xml version="1.0" encoding="utf-8"?>
<!-- Generator: Adobe Illustrator 18.0.0, SVG Export Plug-In . SVG Version: 6.00 Build 0)  -->
<!DOCTYPE svg PUBLIC "-//W3C//DTD SVG 1.1//EN" "http://www.w3.org/Graphics/SVG/1.1/DTD/svg11.dtd">
<svg version="1.1" id="Layer_1" xmlns="http://www.w3.org/2000/svg" xmlns:xlink="http://www.w3.org/1999/xlink" x="0px" y="0px"
	 viewBox="0 0 255.8 246.8" enable-background="new 0 0 255.8 246.8" xml:space="preserve">
<g>
	<path fill="none" stroke="#000000" stroke-width="8" stroke-miterlimit="10" d="M134.1,26.9l27.1,54.9c1,2.1,3,3.5,5.2,3.8
		l60.6,8.8c5.7,0.8,8,7.8,3.9,11.9l-43.9,42.8c-1.6,1.6-2.4,3.9-2,6.2l10.4,60.4c1,5.7-5,10-10.1,7.3l-54.2-28.5
		c-2-1.1-4.5-1.1-6.5,0L70.4,223c-5.1,2.7-11.1-1.7-10.1-7.3l10.4-60.4c0.4-2.3-0.4-4.6-2-6.2l-43.9-42.8c-4.1-4-1.9-11,3.9-11.9
		l60.6-8.8c2.3-0.3,4.2-1.8,5.2-3.8l27.1-54.9C124.2,21.7,131.6,21.7,134.1,26.9z"/>
	<circle cx="104.4" cy="113.8" r="9"/>
	<circle cx="158.4" cy="113.8" r="9"/>
	<path fill="none" stroke="#000000" stroke-width="5" stroke-linecap="round" stroke-miterlimit="10" d="M98.2,153.3
		c18.4-18.4,48.1-18.4,66.5,0"/>
</g>
</svg>
