<svg width="18" height="17" viewBox="0 0 18 17" fill="none" xmlns="http://www.w3.org/2000/svg">
<path d="M3.29688 13.252C1.72656 13.252 0.912109 12.4434 0.912109 10.8848V3.19727C0.912109 1.64453 1.72656 0.835938 3.29688 0.835938H10.9434C12.5137 0.835938 13.3281 1.65039 13.3281 3.19727V4.31055H14.6875C16.252 4.31055 17.0723 5.125 17.0723 6.67188V14.3594C17.0723 15.9121 16.252 16.7266 14.6875 16.7266H7.04102C5.4707 16.7266 4.65625 15.918 4.65625 14.3594V13.252H3.29688ZM3.37305 11.9629H4.65625V6.67188C4.65625 5.11328 5.4707 4.31055 7.04102 4.31055H12.0391V3.30859C12.0391 2.51758 11.6172 2.125 10.8672 2.125H3.37305C2.61133 2.125 2.20117 2.51758 2.20117 3.30859V10.7793C2.20117 11.5703 2.61133 11.9629 3.37305 11.9629ZM7.11719 15.4375H14.6113C15.3613 15.4375 15.7832 15.0391 15.7832 14.2539V6.7832C15.7832 5.99219 15.3613 5.59375 14.6113 5.59375H7.11719C6.35547 5.59375 5.94531 5.99219 5.94531 6.7832V14.2539C5.94531 15.0391 6.35547 15.4375 7.11719 15.4375Z" fill="white"/>
</svg>
