<svg width="16" height="16" viewBox="0 0 16 16" fill="none" xmlns="http://www.w3.org/2000/svg">
<path d="M2.52082 15.7797H13.4872C14.3275 15.7797 14.9563 15.571 15.3738 15.1535C15.7913 14.7414 16 14.1206 16 13.291V3.48871C16 2.65914 15.7913 2.0383 15.3738 1.62619C14.9563 1.20873 14.3275 1 13.4872 1H2.52082C1.68055 1 1.049 1.20873 0.626192 1.62619C0.208731 2.0383 0 2.65914 0 3.48871V13.291C0 14.1206 0.208731 14.7414 0.626192 15.1535C1.049 15.571 1.68055 15.7797 2.52082 15.7797ZM2.4004 14.4872C2.04716 14.4872 1.77421 14.3909 1.58154 14.1982C1.38886 14.0109 1.29252 13.7326 1.29252 13.3633V5.79277C1.29252 5.42348 1.38886 5.14517 1.58154 4.95785C1.77421 4.76518 2.04716 4.66884 2.4004 4.66884H13.5916C13.9502 4.66884 14.2258 4.76518 14.4185 4.95785C14.6111 5.14517 14.7075 5.42348 14.7075 5.79277V13.3633C14.7075 13.7326 14.6111 14.0109 14.4185 14.1982C14.2258 14.3909 13.9502 14.4872 13.5916 14.4872H2.4004ZM6.43853 7.55896H6.91219C7.05135 7.55896 7.14768 7.5322 7.2012 7.47868C7.26008 7.42515 7.28951 7.32882 7.28951 7.18966V6.71601C7.28951 6.57685 7.26008 6.48319 7.2012 6.43502C7.14768 6.3815 7.05135 6.35474 6.91219 6.35474H6.43853C6.29938 6.35474 6.20037 6.3815 6.1415 6.43502C6.08797 6.48319 6.06121 6.57685 6.06121 6.71601V7.18966C6.06121 7.32882 6.08797 7.42515 6.1415 7.47868C6.20037 7.5322 6.29938 7.55896 6.43853 7.55896ZM9.10386 7.55896H9.57752C9.72203 7.55896 9.82104 7.5322 9.87456 7.47868C9.92808 7.42515 9.95484 7.32882 9.95484 7.18966V6.71601C9.95484 6.57685 9.92808 6.48319 9.87456 6.43502C9.82104 6.3815 9.72203 6.35474 9.57752 6.35474H9.10386C8.96471 6.35474 8.86837 6.3815 8.81485 6.43502C8.76133 6.48319 8.73457 6.57685 8.73457 6.71601V7.18966C8.73457 7.32882 8.76133 7.42515 8.81485 7.47868C8.86837 7.5322 8.96471 7.55896 9.10386 7.55896ZM11.7772 7.55896H12.2428C12.3874 7.55896 12.4864 7.5322 12.5399 7.47868C12.5934 7.42515 12.6202 7.32882 12.6202 7.18966V6.71601C12.6202 6.57685 12.5934 6.48319 12.5399 6.43502C12.4864 6.3815 12.3874 6.35474 12.2428 6.35474H11.7772C11.6327 6.35474 11.5337 6.3815 11.4802 6.43502C11.4267 6.48319 11.3999 6.57685 11.3999 6.71601V7.18966C11.3999 7.32882 11.4267 7.42515 11.4802 7.47868C11.5337 7.5322 11.6327 7.55896 11.7772 7.55896ZM3.77321 10.1841H4.24686C4.38602 10.1841 4.48235 10.1574 4.53588 10.1039C4.5894 10.0503 4.61616 9.95401 4.61616 9.81485V9.34922C4.61616 9.20472 4.5894 9.10838 4.53588 9.06021C4.48235 9.00669 4.38602 8.97993 4.24686 8.97993H3.77321C3.6287 8.97993 3.52969 9.00669 3.47617 9.06021C3.42265 9.10838 3.39589 9.20472 3.39589 9.34922V9.81485C3.39589 9.95401 3.42265 10.0503 3.47617 10.1039C3.52969 10.1574 3.6287 10.1841 3.77321 10.1841ZM6.43853 10.1841H6.91219C7.05135 10.1841 7.14768 10.1574 7.2012 10.1039C7.26008 10.0503 7.28951 9.95401 7.28951 9.81485V9.34922C7.28951 9.20472 7.26008 9.10838 7.2012 9.06021C7.14768 9.00669 7.05135 8.97993 6.91219 8.97993H6.43853C6.29938 8.97993 6.20037 9.00669 6.1415 9.06021C6.08797 9.10838 6.06121 9.20472 6.06121 9.34922V9.81485C6.06121 9.95401 6.08797 10.0503 6.1415 10.1039C6.20037 10.1574 6.29938 10.1841 6.43853 10.1841ZM9.10386 10.1841H9.57752C9.72203 10.1841 9.82104 10.1574 9.87456 10.1039C9.92808 10.0503 9.95484 9.95401 9.95484 9.81485V9.34922C9.95484 9.20472 9.92808 9.10838 9.87456 9.06021C9.82104 9.00669 9.72203 8.97993 9.57752 8.97993H9.10386C8.96471 8.97993 8.86837 9.00669 8.81485 9.06021C8.76133 9.10838 8.73457 9.20472 8.73457 9.34922V9.81485C8.73457 9.95401 8.76133 10.0503 8.81485 10.1039C8.86837 10.1574 8.96471 10.1841 9.10386 10.1841ZM11.7772 10.1841H12.2428C12.3874 10.1841 12.4864 10.1574 12.5399 10.1039C12.5934 10.0503 12.6202 9.95401 12.6202 9.81485V9.34922C12.6202 9.20472 12.5934 9.10838 12.5399 9.06021C12.4864 9.00669 12.3874 8.97993 12.2428 8.97993H11.7772C11.6327 8.97993 11.5337 9.00669 11.4802 9.06021C11.4267 9.10838 11.3999 9.20472 11.3999 9.34922V9.81485C11.3999 9.95401 11.4267 10.0503 11.4802 10.1039C11.5337 10.1574 11.6327 10.1841 11.7772 10.1841ZM3.77321 12.8093H4.24686C4.38602 12.8093 4.48235 12.7852 4.53588 12.7371C4.5894 12.6836 4.61616 12.5845 4.61616 12.44V11.9744C4.61616 11.8299 4.5894 11.7336 4.53588 11.6854C4.48235 11.6319 4.38602 11.6051 4.24686 11.6051H3.77321C3.6287 11.6051 3.52969 11.6319 3.47617 11.6854C3.42265 11.7336 3.39589 11.8299 3.39589 11.9744V12.44C3.39589 12.5845 3.42265 12.6836 3.47617 12.7371C3.52969 12.7852 3.6287 12.8093 3.77321 12.8093ZM6.43853 12.8093H6.91219C7.05135 12.8093 7.14768 12.7852 7.2012 12.7371C7.26008 12.6836 7.28951 12.5845 7.28951 12.44V11.9744C7.28951 11.8299 7.26008 11.7336 7.2012 11.6854C7.14768 11.6319 7.05135 11.6051 6.91219 11.6051H6.43853C6.29938 11.6051 6.20037 11.6319 6.1415 11.6854C6.08797 11.7336 6.06121 11.8299 6.06121 11.9744V12.44C6.06121 12.5845 6.08797 12.6836 6.1415 12.7371C6.20037 12.7852 6.29938 12.8093 6.43853 12.8093ZM9.10386 12.8093H9.57752C9.72203 12.8093 9.82104 12.7852 9.87456 12.7371C9.92808 12.6836 9.95484 12.5845 9.95484 12.44V11.9744C9.95484 11.8299 9.92808 11.7336 9.87456 11.6854C9.82104 11.6319 9.72203 11.6051 9.57752 11.6051H9.10386C8.96471 11.6051 8.86837 11.6319 8.81485 11.6854C8.76133 11.7336 8.73457 11.8299 8.73457 11.9744V12.44C8.73457 12.5845 8.76133 12.6836 8.81485 12.7371C8.86837 12.7852 8.96471 12.8093 9.10386 12.8093Z" fill="white"/>
</svg>
