<svg xmlns="http://www.w3.org/2000/svg" width="12" height="15" viewBox="0 0 12 15">
    <g fill="none" fill-rule="evenodd">
        <g fill="#36C">
            <g>
                <g>
                    <path d="M20 7h-8.333C10.747 7 10 7.746 10 8.667v11.666c0 .92.746 1.667 1.667 1.667H20c.92 0 1.667-.746 1.667-1.667V8.667C21.667 7.747 20.92 7 20 7zm-8.333 2.5h4.166v.833h-4.166V9.5zm0 1.667h4.166V12h-4.166v-.833zm0 1.666h4.166v.834h-4.166v-.834zM20 18.667h-8.333v-.834H20v.834zM20 17h-8.333v-.833H20V17zm0-1.667h-8.333V14.5H20v.833zm0-1.666h-3.333V9.5H20v4.167z" transform="translate(-150 -763) translate(34 756) translate(106)"/>
                </g>
            </g>
        </g>
    </g>
</svg>
