<?xml version="1.0" encoding="UTF-8" standalone="no"?>
<!-- Generator: Adobe Illustrator 17.1.0, SVG Export Plug-In . SVG Version: 6.00 Build 0)  -->

<svg
   xmlns:dc="http://purl.org/dc/elements/1.1/"
   xmlns:cc="http://creativecommons.org/ns#"
   xmlns:rdf="http://www.w3.org/1999/02/22-rdf-syntax-ns#"
   xmlns:svg="http://www.w3.org/2000/svg"
   xmlns="http://www.w3.org/2000/svg"
   xmlns:sodipodi="http://sodipodi.sourceforge.net/DTD/sodipodi-0.dtd"
   xmlns:inkscape="http://www.inkscape.org/namespaces/inkscape"
   version="1.1"
   id="Layer_1"
   x="0px"
   y="0px"
   viewBox="0 0 1024 1024"
   style="enable-background:new 0 0 1024 1024;"
   xml:space="preserve"
   inkscape:version="0.48.4 r9939"
   width="100%"
   height="100%"
   sodipodi:docname="icon-alpha.svg"><metadata
     id="metadata15"><rdf:RDF><cc:Work
         rdf:about=""><dc:format>image/svg+xml</dc:format><dc:type
           rdf:resource="http://purl.org/dc/dcmitype/StillImage" /></cc:Work></rdf:RDF></metadata><defs
     id="defs13" /><sodipodi:namedview
     pagecolor="#ffffff"
     bordercolor="#666666"
     borderopacity="1"
     objecttolerance="10"
     gridtolerance="10"
     guidetolerance="10"
     inkscape:pageopacity="0"
     inkscape:pageshadow="2"
     inkscape:window-width="1157"
     inkscape:window-height="805"
     id="namedview11"
     showgrid="false"
     inkscape:zoom="0.23046875"
     inkscape:cx="-548.88136"
     inkscape:cy="512"
     inkscape:window-x="152"
     inkscape:window-y="34"
     inkscape:window-maximized="0"
     inkscape:current-layer="Layer_1" /><rect
     style="fill:#EEEEEE;"
     width="1024"
     height="1024"
     id="rect3" /><g
     id="g5"><path
       style="fill:#333333;"
       d="M565.62,300.771c19.821,0.734,41.11,1.469,57.994,1.469c16.885,0,35.238-0.735,53.59-1.469   c4.405,4.405,4.405,19.821,0,24.225c-38.174,5.874-54.324,33.769-72.163,68.272l-53.663,102.115l93.892,194.464h3.377   l139.408-301.718c17.398-39.715,16.15-59.462-31.568-63.133c-4.404-4.404-4.404-19.82,0-24.225   c27.163,0.734,55.793,1.469,72.677,1.469c16.885,0,41.11-0.735,64.602-1.469c4.405,4.405,4.405,19.821,0,24.225   c-41.844,4.405-55.865,33.108-72.163,68.272L647.841,767.664c-5.139,11.011-9.544,16.884-17.619,16.884   c-7.341,0-12.994-5.946-16.884-16.884L514.6,554.552L406.319,767.664c-4.404,11.011-9.543,16.884-17.619,16.884   c-7.34,0-12.479-5.872-16.884-16.884L212.148,391.801c-22.39-52.122-27.749-64.088-65.702-66.804   c-4.405-4.404-5.139-19.82-0.735-24.225c25.694,0.734,51.902,1.469,76.348,1.469c22.243,0,52.122-0.735,81.486-1.469   c4.405,4.405,4.405,19.821,0,24.225c-46.249,5.139-48.451,16.885-29.805,58.729l134.414,306.122h3.377l82-166.789l-61.885-131.258   c-24.592-52.122-30.465-62.399-62.032-66.804c-4.404-4.404-5.139-19.82-0.734-24.225c21.289,0.734,43.826,1.469,65.335,1.469   c23.272,0,45.514-0.735,66.804-1.469c4.404,4.405,4.404,19.821,0,24.225c-30.833,4.405-27.896,16.885-7.782,58.729l36.118,74.144   l3.23,3.304l38.908-73.044c22.757-42.578,25.693-58.728-5.874-63.133C561.216,320.592,561.216,305.176,565.62,300.771z"
       id="path7" /></g><text
     xml:space="preserve"
     style="font-size:144px;font-style:normal;font-weight:normal;line-height:125%;letter-spacing:0px;word-spacing:0px;fill:#000000;fill-opacity:1;stroke:none;font-family:Sans"
     x="275.89062"
     y="934.13562"
     id="text2992"
     sodipodi:linespacing="125%"><tspan
       sodipodi:role="line"
       id="tspan2994"
       x="275.89062"
       y="934.13562">ALPHA</tspan></text>
</svg>