<svg width="28" height="28" viewBox="0 0 28 28" fill="none" xmlns="http://www.w3.org/2000/svg">
<path d="M23.2845 9.4917C23.9024 10.8211 24.2571 12.2982 24.2572 13.8608C24.2572 19.6028 19.6027 24.2573 13.8607 24.2573C13.1424 24.2573 12.4398 24.1842 11.763 24.0444L13.8597 21.9468H13.8607C18.3263 21.9468 21.9466 18.3264 21.9466 13.8608C21.9466 12.9508 21.7892 12.0797 21.5121 11.2632L23.2845 9.4917ZM13.8607 3.46533C15.4235 3.46533 16.9013 3.82002 18.2308 4.43799L16.4593 6.20947C15.6427 5.93225 14.7709 5.77588 13.8607 5.77588C9.39542 5.77613 5.77592 9.39556 5.77573 13.8608C5.77573 14.9963 6.02468 16.0698 6.44858 17.0493L9.24057 14.2573V20.7915H2.70639L4.7308 18.7671C3.93958 17.3024 3.46518 15.642 3.46518 13.8608C3.46537 8.11918 8.11904 3.46558 13.8607 3.46533ZM21.3431 3.63721C21.5684 3.41196 21.9341 3.41196 22.1605 3.63721L24.0863 5.56201C24.3115 5.78726 24.3115 6.15513 24.0863 6.38037L14.2933 16.1733H11.5501V13.4292L21.3431 3.63721Z" fill="#3366CC"/>
</svg>
