<svg width="128" height="128" viewBox="0 0 128 128" fill="none" xmlns="http://www.w3.org/2000/svg">
<path fill-rule="evenodd" clip-rule="evenodd" d="M48.85 99.19C48.51 99.73 48.04 100 47.43 100C46.69 100 46.2 99.73 45.96 99.19L20.61 41.05C19.03 37.44 17.36 34.92 15.6 33.49C13.85 32.06 11.4 31.17 8.27002 30.83C8.00002 30.83 7.74002 30.69 7.51002 30.4C7.27002 30.12 7.15002 29.79 7.15002 29.42C7.15002 28.47 7.42002 28 7.96002 28C10.22 28 12.58 28.1 15.05 28.3C17.34 28.51 19.5 28.61 21.52 28.61C23.58 28.61 26.01 28.51 28.81 28.3C31.74 28.1 34.34 28 36.6 28C37.14 28 37.41 28.47 37.41 29.42C37.41 30.36 37.24 30.83 36.91 30.83C34.65 31 32.87 31.58 31.57 32.55C30.27 33.53 29.62 34.81 29.62 36.4C29.62 37.21 29.89 38.22 30.43 39.43L51.38 86.74L76.22 40.65C77.23 38.73 77.74 37.11 77.74 35.79C77.74 32.69 75.48 31.04 70.96 30.83C70.55 30.83 70.35 30.36 70.35 29.42C70.35 29.08 70.45 28.76 70.65 28.46C70.86 28.15 71.06 28 71.26 28C72.88 28 74.87 28.1 77.23 28.3C79.49 28.51 81.35 28.61 82.8 28.61C83.84 28.61 85.38 28.52 87.4 28.35C89.96 28.12 92.11 28 93.83 28C94.23 28 94.43 28.4 94.43 29.21C94.43 30.29 94.06 30.83 93.32 30.83C90.69 31.1 88.57 31.83 86.97 33.01C85.37 34.19 83.37 36.87 80.98 41.05L48.85 99.19Z" fill="black"/>
</svg>
