<svg width="128" height="128" viewBox="0 0 128 128" fill="none" xmlns="http://www.w3.org/2000/svg">
<path fill-rule="evenodd" clip-rule="evenodd" d="M120.85 29.21C120.85 29.62 120.72 29.99 120.47 30.33C120.21 30.66 119.94 30.83 119.63 30.83C117.14 31.07 115.09 31.87 113.51 33.24C111.92 34.6 110.29 37.21 108.6 41.05L82.8001 99.19C82.6301 99.73 82.1601 100 81.3801 100C80.7701 100 80.3001 99.73 79.9601 99.19L52.1901 41.05C50.2001 36.91 48.5601 34.23 47.2801 33.03C46.0001 31.84 44.0601 31.1 41.4601 30.83C41.2201 30.83 41.0001 30.69 40.7801 30.4C40.5601 30.12 40.4501 29.79 40.4501 29.42C40.4501 28.47 40.6801 28 41.1601 28C43.4201 28 45.4901 28.1 47.3801 28.3C49.2001 28.51 51.1401 28.61 53.2001 28.61C55.2201 28.61 57.3601 28.51 59.6201 28.3C61.9501 28.1 64.2401 28 66.5001 28C67.0401 28 67.3101 28.47 67.3101 29.42C67.3101 30.36 67.1501 30.83 66.8101 30.83C62.2901 31.14 60.0301 32.42 60.0301 34.68C60.0301 35.69 60.5501 37.26 61.6001 39.38L84.4201 85.83L103.85 40.65C104.52 39 104.86 37.48 104.86 36.1C104.86 32.79 102.6 31.04 98.0801 30.83C97.6701 30.83 97.4701 30.36 97.4701 29.42C97.4701 28.47 97.7701 28 98.3801 28C100.03 28 101.99 28.1 104.25 28.3C106.34 28.51 108.1 28.61 109.51 28.61C111 28.61 112.72 28.51 114.67 28.3C116.7 28.1 118.52 28 120.14 28C120.61 28 120.85 28.4 120.85 29.21Z" fill="black"/>
</svg>
