<svg width="23" height="23" viewBox="0 0 23 23" fill="none" xmlns="http://www.w3.org/2000/svg">
<g clip-path="url(#clip0_1602_12642)">
<path d="M14.4299 4.77101V6.04476H13.0948V4.84498C13.0948 3.98082 12.6265 3.53724 11.8047 3.53724H3.51832C2.68933 3.53724 2.22817 3.98082 2.22817 4.84498V13.0962C2.22817 13.9603 2.68933 14.4039 3.51832 14.4039H4.91796V15.739H3.49713C1.75768 15.739 0.893066 14.8832 0.893066 13.1701V4.77101C0.893066 3.05794 1.75768 2.20215 3.49713 2.20215H11.8259C13.5565 2.20215 14.4299 3.06153 14.4299 4.77101Z" fill="#FF3B30"/>
<path d="M18.4548 8.61377V11.6536C18.4349 11.6506 18.4144 11.6505 18.3938 11.6505C17.9544 11.6505 17.5268 11.7045 17.1197 11.8121V8.68775C17.1197 7.82357 16.6514 7.38 15.8295 7.38H7.54322C6.71422 7.38 6.25302 7.82357 6.25302 8.68775V16.939C6.25302 17.8031 6.71422 18.2467 7.54322 18.2467H13.1987C13.3066 18.7208 13.4828 19.1686 13.7138 19.5818H7.52202C5.78262 19.5818 4.91797 18.726 4.91797 17.0129V8.61377C4.91797 6.90071 5.78262 6.04492 7.52202 6.04492H15.8507C17.5814 6.04492 18.4548 6.9043 18.4548 8.61377Z" fill="#FF3B30"/>
<path d="M22.6065 16.9981C22.6065 19.3014 20.6775 21.2216 18.3936 21.2216C16.0833 21.2216 14.1719 19.319 14.1719 16.9981C14.1719 14.6896 16.0833 12.7852 18.3936 12.7852C20.7057 12.7852 22.6065 14.6878 22.6065 16.9981ZM19.5825 15.0406L18.3708 16.2541L17.2472 15.1411C17.0445 14.9472 16.7324 14.9524 16.5314 15.1411C16.3391 15.3228 16.3445 15.6436 16.5314 15.8499L17.6532 16.9717L16.4308 18.194C16.2158 18.4091 16.2562 18.7299 16.4554 18.938C16.6635 19.1461 16.9879 19.1777 17.1994 18.9644L18.4236 17.7421L19.5435 18.8621C19.748 19.0595 20.0619 19.0543 20.2611 18.8621C20.4516 18.6698 20.4498 18.3507 20.2611 18.1533L19.1393 17.0245L20.3529 15.8127C20.5768 15.5889 20.5346 15.2644 20.3353 15.0669C20.1272 14.8625 19.8046 14.8185 19.5825 15.0406Z" fill="#FF3B30"/>
</g>
<defs>
<clipPath id="clip0_1602_12642">
<rect width="22" height="22" fill="white" transform="translate(0.75 0.75)"/>
</clipPath>
</defs>
</svg>
