<svg width="232" height="228" viewBox="0 0 232 228" fill="none" xmlns="http://www.w3.org/2000/svg">
<g filter="url(#filter0_d_207_4255)">
<path fill-rule="evenodd" clip-rule="evenodd" d="M50 100.761L50.3306 12.992C50.3348 11.8904 51.229 10.9995 52.3306 10.9995H162.262V27.4932C162.262 28.5977 163.157 29.4932 164.262 29.4932H180.441V184.445C180.441 186.41 177.422 187.368 175.505 186.936C175.253 186.88 174.997 186.849 174.741 186.849C171.817 186.849 172.084 189.164 169.5 189.888C166.916 190.611 166.912 186.849 164.144 186.849C161.376 186.849 161.226 189.888 158.591 189.888C155.957 189.888 156.13 186.849 153.25 186.849C150.37 186.849 150.091 189.888 147.562 189.888C145.033 189.888 145.111 186.849 142.151 186.849C139.19 186.849 139.203 189.888 136.584 189.888C133.965 189.888 134.149 186.849 131.381 186.849C128.612 186.849 128.717 189.166 126.042 189.888C123.367 190.609 122.891 186.849 120.216 186.849C117.542 186.849 117.343 189.888 114.765 189.888C112.188 189.888 112.603 186.849 109.743 186.849C106.883 186.849 106.564 189.888 103.892 189.888C101.219 189.888 100.989 186.849 98.206 186.849C95.4233 186.849 95.7251 189.888 92.9815 189.888C90.2379 189.888 90.1379 186.849 87.4081 186.849C84.6784 186.849 84.7211 189.888 82.0348 189.888C79.3485 189.888 79.4711 186.849 76.5905 186.849C73.7099 186.849 73.6013 189.888 70.901 189.888C68.2007 189.888 68.4385 186.849 66.078 186.849C63.7175 186.849 62.7318 190.699 60.1557 189.888C57.5796 189.077 57.8766 186.849 55.0001 186.849V186.849C53.2717 186.849 50 185.91 50 184.182V125.462V100.761Z" fill="white"/>
<path fill-rule="evenodd" clip-rule="evenodd" d="M50 100.761L50.3306 12.992C50.3348 11.8904 51.229 10.9995 52.3306 10.9995H162.262V27.4932C162.262 28.5977 163.157 29.4932 164.262 29.4932H180.441V184.445C180.441 186.41 177.422 187.368 175.505 186.936C175.253 186.88 174.997 186.849 174.741 186.849C171.817 186.849 172.084 189.164 169.5 189.888C166.916 190.611 166.912 186.849 164.144 186.849C161.376 186.849 161.226 189.888 158.591 189.888C155.957 189.888 156.13 186.849 153.25 186.849C150.37 186.849 150.091 189.888 147.562 189.888C145.033 189.888 145.111 186.849 142.151 186.849C139.19 186.849 139.203 189.888 136.584 189.888C133.965 189.888 134.149 186.849 131.381 186.849C128.612 186.849 128.717 189.166 126.042 189.888C123.367 190.609 122.891 186.849 120.216 186.849C117.542 186.849 117.343 189.888 114.765 189.888C112.188 189.888 112.603 186.849 109.743 186.849C106.883 186.849 106.564 189.888 103.892 189.888C101.219 189.888 100.989 186.849 98.206 186.849C95.4233 186.849 95.7251 189.888 92.9815 189.888C90.2379 189.888 90.1379 186.849 87.4081 186.849C84.6784 186.849 84.7211 189.888 82.0348 189.888C79.3485 189.888 79.4711 186.849 76.5905 186.849C73.7099 186.849 73.6013 189.888 70.901 189.888C68.2007 189.888 68.4385 186.849 66.078 186.849C63.7175 186.849 62.7318 190.699 60.1557 189.888C57.5796 189.077 57.8766 186.849 55.0001 186.849V186.849C53.2717 186.849 50 185.91 50 184.182V125.462V100.761Z" stroke="#72777D" stroke-width="2" stroke-linecap="round"/>
</g>
<path d="M162.925 11.0803L162.926 11.0801C163.312 10.9181 163.754 11.0057 164.053 11.3097L180.428 27.9274L180.488 27.9883L180.557 28.038C180.823 28.2289 181 28.5467 181 28.9172C181 29.5235 180.524 29.9876 179.962 29.9902L179.962 29.9902L179.948 29.9902L179.91 29.9901L179.77 29.9899L179.24 29.9897L177.354 29.9894C175.793 29.9893 173.714 29.9893 171.635 29.9895L165.919 29.99L164.036 29.9902L163.508 29.9902L163.369 29.9902L163.333 29.9903L163.324 29.9903H163.322H163.321C163.321 29.9903 163.321 29.9903 163.321 29.9974V29.9903C162.758 29.9903 162.279 29.5253 162.279 28.9172V12.0735C162.279 11.6305 162.543 11.2405 162.925 11.0803Z" fill="#C8CCD1" stroke="#72777D" stroke-width="2"/>
<ellipse cx="69.0454" cy="33.9889" rx="9.02586" ry="8.99582" fill="#6699FF"/>
<path fill-rule="evenodd" clip-rule="evenodd" d="M136.593 45.9832C136.593 45.9832 158.348 60.7253 163.242 55.3014C168.137 49.8774 163.242 63.1749 163.242 63.1749H120.289" fill="#3366CC"/>
<path fill-rule="evenodd" clip-rule="evenodd" d="M50.9937 53.9795C50.9937 53.9795 68.3309 66.1615 92.4922 66.1615C116.654 66.1615 98.4037 73.9702 98.4037 73.9702H51.0464" fill="#3366CC"/>
<path fill-rule="evenodd" clip-rule="evenodd" d="M53.7478 74.0883C53.7478 74.0883 148.637 28.5406 136.747 51.4644C124.857 74.3882 179.334 46.0807 179.334 46.0807V74.0883" fill="#6699FF"/>
<rect x="50.9937" y="72.9707" width="128.268" height="2" fill="#F5F5F5"/>
<rect x="61.9229" y="91.9618" width="72.5298" height="2" rx="1" fill="#C8CCD1"/>
<rect x="61.9229" y="115.951" width="80.4782" height="2" rx="1" fill="#72777D"/>
<rect x="61.9229" y="169.926" width="31.7939" height="2" rx="1" fill="#72777D"/>
<rect x="96.6973" y="169.926" width="72.5298" height="2" rx="1" fill="#72777D"/>
<rect x="61.9229" y="129.944" width="16.8905" height="2" rx="1" fill="#72777D"/>
<rect x="152.337" y="129.944" width="16.8905" height="2" rx="1" fill="#72777D"/>
<rect x="81.7939" y="129.944" width="67.562" height="2" rx="1" fill="#72777D"/>
<rect x="61.9229" y="162.929" width="16.8905" height="2" rx="1" fill="#72777D"/>
<rect x="133.459" y="162.929" width="36.7617" height="2" rx="1" fill="#72777D"/>
<rect x="81.7939" y="162.929" width="48.6844" height="2" rx="1" fill="#72777D"/>
<rect width="23.8454" height="2" rx="1" transform="matrix(-1 0 0 1 169.227 115.951)" fill="#72777D"/>
<rect x="61.9229" y="150.934" width="80.4782" height="2" rx="1" fill="#72777D"/>
<rect x="115.575" y="108.954" width="13.9098" height="2" rx="1" fill="#72777D"/>
<rect x="132.465" y="108.954" width="36.7617" height="2" rx="1" fill="#72777D"/>
<rect x="61.9229" y="108.954" width="50.6715" height="2" rx="1" fill="#72777D"/>
<rect x="61.9229" y="143.938" width="107.304" height="2" rx="1" fill="#72777D"/>
<rect x="61.9229" y="136.941" width="107.304" height="2" rx="1" fill="#72777D"/>
<rect x="61.9229" y="176.922" width="107.304" height="2" rx="1" fill="#72777D"/>
<rect x="61.9229" y="122.947" width="107.304" height="2" rx="1" fill="#72777D"/>
<rect x="61.9229" y="84.9652" width="50.6715" height="2" rx="1" fill="#72777D"/>
<circle cx="177" cy="179" r="38" fill="white" stroke="#72777D" stroke-width="2"/>
<g clip-path="url(#clip0_207_4255)">
<mask id="mask0_207_4255" style="mask-type:luminance" maskUnits="userSpaceOnUse" x="155" y="157" width="44" height="44">
<path d="M199 157H155V201H199V157Z" fill="white"/>
</mask>
<g mask="url(#mask0_207_4255)">
<path d="M174.111 185.954C175.024 185.881 175.987 185.843 177 185.843V196.601H174.8V201H170.4V196.601H166V201H161.6V196.601L157.2 196.6V201.001H196.8V193.675C196.8 188.769 191.652 181.443 177 181.443C175.388 181.443 173.891 181.532 172.504 181.696L174.111 185.954Z" fill="#54595D"/>
<path d="M169.675 186.66C168.593 186.933 167.62 187.266 166.757 187.646L163.538 184.427C164.836 183.688 166.357 183.046 168.122 182.549L169.675 186.66Z" fill="#54595D"/>
<path d="M161.85 192.2H157.347C157.667 190.563 158.521 188.783 160.04 187.152L163.069 190.18C162.493 190.824 162.087 191.505 161.85 192.2Z" fill="#54595D"/>
<path d="M177.857 157.033C183.615 157.465 188.132 162.213 188.132 168.001C188.132 174.071 183.16 179.001 177 179.001C176.265 179.001 175.548 178.928 174.853 178.791L175.707 174.474C176.122 174.556 176.554 174.6 177 174.6V161.4C176.554 161.4 176.122 161.444 175.707 161.526L174.853 157.209C175.548 157.072 176.265 157 177 157C177.288 157 177.574 157.011 177.857 157.033Z" fill="#54595D"/>
<path d="M173.336 162.509L170.888 158.853C169.689 159.656 168.656 160.689 167.853 161.888L171.509 164.336C171.992 163.614 172.614 162.992 173.336 162.509Z" fill="#54595D"/>
<path d="M166 168C166 167.265 166.072 166.548 166.209 165.853L170.526 166.707C170.444 167.122 170.4 167.554 170.4 168C170.4 168.446 170.444 168.878 170.526 169.293L166.209 170.147C166.072 169.453 166 168.735 166 168Z" fill="#54595D"/>
<path d="M171.509 171.664L167.853 174.112C168.656 175.311 169.689 176.344 170.888 177.147L173.336 173.491C172.614 173.008 171.992 172.386 171.509 171.664Z" fill="#54595D"/>
</g>
</g>
<defs>
<filter id="filter0_d_207_4255" x="45" y="5.99951" width="140.441" height="189.002" filterUnits="userSpaceOnUse" color-interpolation-filters="sRGB">
<feFlood flood-opacity="0" result="BackgroundImageFix"/>
<feColorMatrix in="SourceAlpha" type="matrix" values="0 0 0 0 0 0 0 0 0 0 0 0 0 0 0 0 0 0 127 0" result="hardAlpha"/>
<feOffset/>
<feGaussianBlur stdDeviation="2"/>
<feColorMatrix type="matrix" values="0 0 0 0 0.961 0 0 0 0 0.961 0 0 0 0 0.961 0 0 0 1 0"/>
<feBlend mode="normal" in2="BackgroundImageFix" result="effect1_dropShadow_207_4255"/>
<feBlend mode="normal" in="SourceGraphic" in2="effect1_dropShadow_207_4255" result="shape"/>
</filter>
<clipPath id="clip0_207_4255">
<rect width="44" height="44" fill="white" transform="translate(155 157)"/>
</clipPath>
</defs>
</svg>
