<svg width="23" height="19" viewBox="0 0 23 19" fill="none" xmlns="http://www.w3.org/2000/svg">
<path d="M13 18.8213C11.7871 18.8213 10.6182 18.5752 9.5459 18.1357C10.4863 17.0898 11.0576 15.7275 11.0576 14.251C11.0576 13.8115 11.0049 13.3721 10.8994 12.959C11.541 12.8096 12.2354 12.7217 12.9912 12.7217C15.3994 12.7217 17.2451 13.5918 18.1768 14.585C19.4072 13.3105 20.1543 11.5703 20.1543 9.6543C20.1543 5.69043 16.9551 2.5 12.9912 2.5C9.42285 2.5 6.49609 5.08398 5.95996 8.48535C5.30078 8.37109 4.51855 8.40625 3.90332 8.55566C4.44824 4.03809 8.33301 0.487305 12.9912 0.487305C18.0186 0.487305 22.167 4.63574 22.167 9.6543C22.167 14.6729 18.0361 18.8213 13 18.8213ZM12.9912 11.3154C11.2861 11.2979 9.96777 9.85645 9.95898 7.98438C9.94141 6.20898 11.2949 4.71484 12.9912 4.71484C14.6875 4.71484 16.0234 6.20898 16.0234 7.98438C16.0234 9.86523 14.6963 11.3242 12.9912 11.3154ZM5.2041 18.8301C2.69922 18.8301 0.633789 16.7646 0.633789 14.251C0.633789 11.7549 2.69922 9.68945 5.2041 9.68945C7.70898 9.68945 9.77441 11.7549 9.77441 14.251C9.77441 16.7471 7.69141 18.8301 5.2041 18.8301ZM4.02637 16.3955L5.23047 15.1914L6.36426 16.3164C6.61914 16.5625 7.02344 16.5537 7.26953 16.3164C7.51562 16.0703 7.51562 15.666 7.26953 15.4111L6.14453 14.2773L7.34863 13.0645C7.6123 12.8096 7.57715 12.3965 7.32227 12.1416C7.07617 11.8867 6.66309 11.8516 6.39941 12.1152L5.19531 13.3281L4.05273 12.1943C3.80664 11.957 3.39355 11.957 3.14746 12.1943C2.90137 12.4404 2.91016 12.8535 3.14746 13.0996L4.28125 14.2422L3.06836 15.4463C2.80469 15.7012 2.83984 16.1318 3.09473 16.3779C3.34082 16.624 3.7627 16.6592 4.02637 16.3955Z" fill="white"/>
</svg>
