<svg width="201" height="200" viewBox="0 0 201 200" fill="none" xmlns="http://www.w3.org/2000/svg">
<path fill-rule="evenodd" clip-rule="evenodd" d="M22.5 28C21.3954 28 20.5 28.8954 20.5 30V125.574C20.5 126.679 21.3954 127.574 22.5 127.574H31.1666V142.837L53.6559 127.574H117.548C118.652 127.574 119.548 126.679 119.548 125.574V30C119.548 28.8954 118.652 28 117.548 28H22.5Z" fill="#678DD9"/>
<path d="M31.1666 127.574H32.1666V126.574H31.1666V127.574ZM31.1666 142.837H30.1666V144.724L31.7282 143.664L31.1666 142.837ZM53.6559 127.574V126.574H53.3487L53.0944 126.747L53.6559 127.574ZM21.5 30C21.5 29.4477 21.9477 29 22.5 29V27C20.8431 27 19.5 28.3431 19.5 30H21.5ZM21.5 125.574V30H19.5V125.574H21.5ZM22.5 126.574C21.9477 126.574 21.5 126.127 21.5 125.574H19.5C19.5 127.231 20.8431 128.574 22.5 128.574V126.574ZM31.1666 126.574H22.5V128.574H31.1666V126.574ZM32.1666 142.837V127.574H30.1666V142.837H32.1666ZM53.0944 126.747L30.6051 142.01L31.7282 143.664L54.2175 128.402L53.0944 126.747ZM117.548 126.574H53.6559V128.574H117.548V126.574ZM118.548 125.574C118.548 126.127 118.1 126.574 117.548 126.574V128.574C119.204 128.574 120.548 127.231 120.548 125.574H118.548ZM118.548 30V125.574H120.548V30H118.548ZM117.548 29C118.1 29 118.548 29.4477 118.548 30H120.548C120.548 28.3431 119.204 27 117.548 27V29ZM22.5 29H117.548V27H22.5V29Z" fill="#72777D"/>
<path fill-rule="evenodd" clip-rule="evenodd" d="M46.4169 104.596H49.8333V101.849H63.1672V84.6809H46.4053V104.596H46.4169ZM49.8333 87.9986H59.6927V98.511H49.8333V87.9986Z" fill="white"/>
<path fill-rule="evenodd" clip-rule="evenodd" d="M43.3574 60.1702H64.6908V63.234H43.3574V60.1702Z" fill="white"/>
<path fill-rule="evenodd" clip-rule="evenodd" d="M46.4053 52.5107H61.6434V55.5746H46.4053V52.5107Z" fill="white"/>
<path fill-rule="evenodd" clip-rule="evenodd" d="M69.2622 104.596H72.9696V101.885H89.8777V104.238H93.6432V83.1489H69.2622V104.596ZM72.958 86.7493H89.8662V98.2258H72.958V86.7493Z" fill="white"/>
<path fill-rule="evenodd" clip-rule="evenodd" d="M96.6909 76.5223H91.0738V64.1335H78.2778L79.2346 57.5611H94.6112V54.0425H66.7115V57.5611H75.5846C75.2441 59.6176 74.912 61.9035 74.5715 64.1335H67.8344V67.6492H74.0115C73.4514 70.8795 72.8914 73.9245 72.3849 76.5105H64.6909V80.085H96.6909V76.5223ZM87.4239 76.5226H76.1334C76.64 73.9365 77.2 70.8327 77.7065 67.6613H87.4239V76.5226Z" fill="white"/>
<path fill-rule="evenodd" clip-rule="evenodd" d="M46.4053 69.3618H63.1672V72.4256H46.4053V69.3618Z" fill="white"/>
<path fill-rule="evenodd" clip-rule="evenodd" d="M46.4053 77.0212H63.1672V80.0851H46.4053V77.0212Z" fill="white"/>
<path fill-rule="evenodd" clip-rule="evenodd" d="M172.52 149.516C177.565 141.676 180.5 132.295 180.5 122.213C180.5 94.716 158.669 72.4255 131.738 72.4255C104.808 72.4255 82.9766 94.716 82.9766 122.213C82.9766 149.709 104.808 172 131.738 172C142.149 172 151.798 168.669 159.718 162.994L172.52 171.683V149.516Z" fill="#3366CC"/>
<path d="M172.52 149.516L171.679 148.975L171.52 149.222V149.516H172.52ZM159.718 162.994L160.279 162.166L159.702 161.774L159.135 162.181L159.718 162.994ZM172.52 171.683L171.959 172.511L173.52 173.571V171.683H172.52ZM179.5 122.213C179.5 132.098 176.623 141.293 171.679 148.975L173.361 150.057C178.508 142.06 181.5 132.491 181.5 122.213H179.5ZM131.738 73.4255C158.097 73.4255 179.5 95.2486 179.5 122.213H181.5C181.5 94.1835 159.241 71.4255 131.738 71.4255V73.4255ZM83.9766 122.213C83.9766 95.2486 105.38 73.4255 131.738 73.4255V71.4255C104.236 71.4255 81.9766 94.1835 81.9766 122.213H83.9766ZM131.738 171C105.38 171 83.9766 149.177 83.9766 122.213H81.9766C81.9766 150.242 104.236 173 131.738 173V171ZM159.135 162.181C151.378 167.739 141.932 171 131.738 171V173C142.366 173 152.217 169.599 160.3 163.806L159.135 162.181ZM159.156 163.821L171.959 172.511L173.082 170.856L160.279 162.166L159.156 163.821ZM173.52 171.683V149.516H171.52V171.683H173.52Z" fill="#72777D"/>
<path fill-rule="evenodd" clip-rule="evenodd" d="M124.776 100.49C124.214 99.366 122.847 98.9105 121.724 99.4724C120.6 100.034 120.144 101.401 120.706 102.525L121.921 104.954H114.158H107.006C105.75 104.954 104.731 105.972 104.731 107.229C104.731 108.485 105.75 109.504 107.006 109.504H112.017C112.668 115.02 115.621 119.664 119.141 123.295C119.563 123.731 119.996 124.155 120.436 124.566C116.143 127.736 111.33 129.811 107.828 130.784C106.617 131.12 105.909 132.374 106.245 133.585C106.581 134.796 107.835 135.504 109.046 135.168C113.243 134.002 119.004 131.484 124.033 127.547C126.733 129.543 129.479 131.098 131.792 132.177C132.93 132.708 134.284 132.216 134.815 131.077C135.347 129.939 134.854 128.585 133.716 128.054C131.847 127.182 129.675 125.967 127.512 124.447C131.321 120.565 134.312 115.589 134.917 109.504H138.475C139.732 109.504 140.75 108.485 140.75 107.229C140.75 105.972 139.732 104.954 138.475 104.954H132.754H127.008L124.776 100.49ZM116.61 109.504H125.602H130.337C129.736 114.28 127.273 118.305 123.93 121.597C123.409 121.125 122.9 120.636 122.408 120.128C119.443 117.07 117.231 113.498 116.61 109.504ZM137.437 144.157C137.008 145.404 136.398 145.85 135.224 145.85C134.049 145.85 133.327 145.159 133.327 144.046C133.327 143.667 133.394 143.311 133.575 142.843L144.167 114.978C144.663 113.619 145.612 112.951 147.012 112.951C148.457 112.951 149.383 113.641 149.903 115L160.494 142.821C160.675 143.288 160.743 143.645 160.743 144.023C160.743 145.137 159.975 145.85 158.778 145.85C157.604 145.85 157.016 145.404 156.587 144.157L153.674 136.294H140.35L137.437 144.157ZM146.944 117.918L141.457 132.908H152.545L147.057 117.918H146.944Z" fill="white"/>
</svg>
