<svg width="30" height="30" viewBox="0 0 30 30" fill="none" xmlns="http://www.w3.org/2000/svg">
<path fill-rule="evenodd" clip-rule="evenodd" d="M21.25 2.5C17.8 2.5 15 5.3 15 8.75C15 12.2 17.8 15 21.25 15C24.7 15 27.5 12.2 27.5 8.75C27.5 5.3 24.7 2.5 21.25 2.5ZM24.375 9.375H21.875V11.875H20.625V9.375H18.125V8.125H20.625V5.625H21.875V8.125H24.375V9.375ZM5 9.6875H12.5497C12.7511 11.5753 13.5536 13.2843 14.762 14.6192L11.3464 19.6598L8.44247 15.6641L4.375 21.6406H20.625L17.2931 16.5553C18.4816 17.1594 19.8263 17.5 21.25 17.5C21.6744 17.5 22.0917 17.4697 22.5 17.4113V23.4375C22.5 24.8182 21.3807 25.9375 20 25.9375H5C3.61929 25.9375 2.5 24.8182 2.5 23.4375V12.1875C2.5 10.8068 3.61929 9.6875 5 9.6875Z" fill="#3366CC"/>
</svg>
