<svg width="145" height="226" viewBox="0 0 145 226" fill="none" xmlns="http://www.w3.org/2000/svg">
<path fill-rule="evenodd" clip-rule="evenodd" d="M50.1017 188.994L50.9265 183.79L68.8192 186.622L67.9944 191.826L53.8246 223.209L50.1017 188.994Z" fill="#FFE7E6"/>
<path fill-rule="evenodd" clip-rule="evenodd" d="M51.9587 206.101L60.9196 207.519L53.8249 223.209L51.9587 206.101Z" fill="#6C6760"/>
<path fill-rule="evenodd" clip-rule="evenodd" d="M88.206 45.7326C89.5902 45.9518 90.5371 47.2445 90.3184 48.636L90.3143 48.6616L90.2196 49.2642C88.9829 57.1306 76.4056 137.16 67.9977 191.779C66.1355 185.42 62.5199 190.912 62.5199 190.912C62.5199 190.912 59.9982 184.419 55.5369 189.807C53.7739 184.609 51.3192 187.243 50.4383 188.451L50.3637 188.556C50.1997 188.789 50.1074 188.947 50.1074 188.947L72.4325 45.7947C72.6476 44.4154 73.9411 43.4745 75.3284 43.6941L88.206 45.7326ZM79.8595 52.7302C77.0619 52.8281 74.8729 55.1751 74.9705 57.9724C75.068 60.7697 77.415 62.9581 80.2127 62.8602C83.0103 62.7623 85.1993 60.4153 85.1017 57.618C85.0042 54.8207 82.6572 52.6323 79.8595 52.7302Z" fill="#6699FF"/>
<path fill-rule="evenodd" clip-rule="evenodd" d="M72.7932 45.858C73.0122 44.476 74.3125 43.5335 75.7003 43.7532L88.202 45.7324C89.5886 45.9519 90.5327 47.2458 90.3085 48.6383L68.0405 189.141L68.0512 189.144L67.2547 194.171L53.797 223.698C53.6047 224.12 53.4071 224.09 53.3551 223.628L49.7318 191.396L72.7932 45.858Z" stroke="#A2A9B1" stroke-width="1.75"/>
<path d="M80.2006 62.5442C82.8239 62.4527 84.8763 60.2525 84.7847 57.6299C84.693 55.0074 82.4921 52.9556 79.8687 53.0472C77.2453 53.1387 75.1929 55.3389 75.2846 57.9615C75.3762 60.584 77.5772 62.6358 80.2006 62.5442Z" stroke="#A2A9B1" stroke-width="1.75"/>
<path fill-rule="evenodd" clip-rule="evenodd" d="M75.7423 46.6132C84.2214 44.3424 92.8189 45.7226 99.8648 49.79C106.911 53.8573 112.405 60.6117 114.678 69.0891C116.348 75.32 116.046 81.6147 114.153 87.31C112.201 93.1838 108.558 98.4204 103.643 102.292C103.203 105.911 103.443 108.622 104.072 110.969C104.317 111.884 105.258 112.828 106.346 113.749L106.552 113.922L107.027 114.316C107.914 115.053 108.821 115.761 109.023 116.515C109.209 117.206 108.76 118.119 108.365 119.102C107.741 120.656 107.124 122.354 107.528 123.861C107.822 124.957 108.912 125.912 110.116 126.872C111.122 127.673 112.23 128.477 112.523 129.57C112.765 130.474 112.266 131.583 111.831 132.707C111.246 134.222 110.718 135.762 111.064 137.051C111.375 138.209 112.417 139.133 113.566 140.023L113.77 140.179L114.129 140.452C114.969 141.089 115.785 141.739 116.023 142.625C116.29 143.622 115.794 144.878 115.362 146.129C114.819 147.703 114.34 149.271 114.671 150.504C114.98 151.659 116.156 152.618 117.401 153.533L117.572 153.659L117.915 153.908C118.654 154.447 119.338 154.991 119.523 155.68C119.772 156.611 119.399 157.673 118.998 158.734L118.826 159.188C118.268 160.677 117.788 162.134 118.108 163.328C118.423 164.502 119.549 165.501 120.744 166.435L120.955 166.599L121.294 166.857C122.083 167.457 122.835 168.034 123.023 168.735C123.336 169.904 122.737 171.181 122.243 172.365C121.678 173.723 121.234 174.985 121.499 175.976C122.012 177.889 123.199 178.675 124.404 179.426C125.272 179.967 126.169 180.473 126.522 181.79C126.989 183.532 126.546 185.353 125.274 187.26L125.111 187.498L112.534 190.892C110.026 191.564 107.484 191.156 105.401 189.953C103.398 188.797 101.819 186.906 101.103 184.534L101.021 184.247L82.8968 116.64C82.0744 113.572 80.9022 111.022 79.3912 108.985C72.8311 107.712 67.1739 104.972 62.641 100.879C58.2489 96.9126 54.9129 91.6762 53.2668 85.536C50.9942 77.0586 52.3735 68.4633 56.4408 61.4197C60.508 54.376 67.2632 48.884 75.7423 46.6132ZM77.3281 52.5287C75.1027 53.1247 73.3298 54.5661 72.2623 56.4148C71.1948 58.2634 70.8328 60.5193 71.4293 62.7443C72.0257 64.9693 73.4678 66.742 75.317 67.8095C77.1663 68.877 79.4228 69.2393 81.6482 68.6433C83.8736 68.0473 85.6465 66.6059 86.714 64.7572C87.7815 62.9085 88.1435 60.6526 87.5471 58.4277C86.9506 56.2027 85.5086 54.43 83.6593 53.3625C81.81 52.2949 79.5535 51.9327 77.3281 52.5287Z" fill="#C8CCD1" stroke="#A2A9B1" stroke-width="1.75"/>
<path d="M97.2608 105.673C96.8984 104.321 95.5087 103.519 94.1567 103.881C92.8047 104.243 92.0025 105.633 92.3649 106.985L111.611 178.785C111.974 180.136 113.363 180.939 114.715 180.577C116.067 180.215 116.87 178.825 116.507 177.473L97.2608 105.673Z" fill="#EAECF0"/>
<path fill-rule="evenodd" clip-rule="evenodd" d="M43.3545 1C54.7351 1 65.0673 5.487 72.6775 12.7879C80.3192 20.1191 85.2164 30.2875 85.6738 41.5992C85.6971 42.1766 85.7089 42.7569 85.7089 43.3399C85.7089 44.0195 85.7058 44.285 85.674 44.9567C85.1401 56.2349 80.1891 66.4618 72.5137 73.8464C64.9174 81.155 54.6513 85.6798 43.3545 85.6798C31.6586 85.6798 21.07 80.9408 13.4053 73.2787C5.74068 65.6167 1 55.0318 1 43.3399C1 31.6481 5.74068 21.0631 13.4053 13.4011C20.9521 5.85693 31.3335 1.14651 42.8154 1.00336L43.3545 1ZM43.3545 5.4346C32.8836 5.4346 23.404 9.6773 16.5422 16.5368C9.68028 23.3963 5.43613 32.8726 5.43613 43.3399C5.43613 53.8072 9.68028 63.2835 16.5422 70.143C23.404 77.0025 32.8836 81.2452 43.3545 81.2452C53.8253 81.2452 63.3049 77.0025 70.1668 70.143C77.0286 63.2835 81.2728 53.8072 81.2728 43.3399C81.2728 32.8726 77.0286 23.3963 70.1668 16.5368C63.3049 9.6773 53.8253 5.4346 43.3545 5.4346Z" fill="white" stroke="#A2A9B1" stroke-width="1.75"/>
<path fill-rule="evenodd" clip-rule="evenodd" d="M80.394 46.4641C82.0427 46.1749 84.0608 46.1361 86.4483 46.3477C86.4483 47.8862 86.0412 50.2903 85.227 53.5598C84.5605 52.989 83.7782 52.5341 82.8801 52.1952C81.982 51.8563 80.9029 51.6118 79.6428 51.4618L80.394 46.4641Z" fill="#C8CCD1"/>
<path fill-rule="evenodd" clip-rule="evenodd" d="M80.4897 44.977L80.394 46.4641C81.8251 46.3103 82.8994 46.2268 83.6168 46.2137C84.3342 46.2005 85.2467 46.2476 86.3544 46.355L86.4484 44.8762C85.0985 44.7828 84.0894 44.736 83.4212 44.736C82.753 44.736 81.7758 44.8163 80.4897 44.977Z" fill="#A2A9B1"/>
<path fill-rule="evenodd" clip-rule="evenodd" d="M79.6428 51.4619L79.0107 53.8716C80.1168 53.7182 81.1529 53.8287 82.1189 54.203C83.0848 54.5774 83.7211 55.6083 84.0277 57.2957C84.1014 57.1924 84.234 56.8424 84.4255 56.2458C84.6171 55.6491 84.8842 54.7538 85.227 53.5599C84.3497 52.8624 83.5735 52.3869 82.8982 52.1331C82.2229 51.8794 81.1378 51.6557 79.6428 51.4619Z" fill="#A2A9B1"/>
</svg>
