<svg width="52" height="52" viewBox="0 0 52 52" fill="none" xmlns="http://www.w3.org/2000/svg">
<path d="M18.0078 40.7715C17.5521 40.7715 17.1966 40.6257 16.9414 40.334C16.6862 40.0423 16.5586 39.6322 16.5586 39.1035V15.3691C16.5586 14.0658 16.8822 13.0859 17.5293 12.4297C18.1764 11.7734 19.1426 11.4453 20.4277 11.4453H31.1191C32.4043 11.4453 33.3704 11.7734 34.0176 12.4297C34.6647 13.0859 34.9883 14.0658 34.9883 15.3691V39.1035C34.9883 39.6322 34.8607 40.0423 34.6055 40.334C34.3503 40.6257 33.9948 40.7715 33.5391 40.7715C33.2018 40.7715 32.8874 40.6576 32.5957 40.4297C32.3132 40.2018 31.862 39.7917 31.2422 39.1992L25.8965 33.9355C25.8145 33.8444 25.7324 33.8444 25.6504 33.9355L20.3047 39.1992C19.6849 39.8008 19.2292 40.2109 18.9375 40.4297C18.6458 40.6576 18.3359 40.7715 18.0078 40.7715Z" fill="#00AF89"/>
</svg>
