<svg width="52" height="52" viewBox="0 0 52 52" fill="none" xmlns="http://www.w3.org/2000/svg">
<path d="M20.6387 19.1973H31.3438C31.5898 19.1973 31.7949 19.1107 31.959 18.9375C32.123 18.7643 32.2051 18.5547 32.2051 18.3086C32.2051 18.0716 32.123 17.8711 31.959 17.707C31.7949 17.543 31.5898 17.4609 31.3438 17.4609H20.6387C20.3835 17.4609 20.1738 17.543 20.0098 17.707C19.8457 17.8711 19.7637 18.0716 19.7637 18.3086C19.7637 18.5547 19.8457 18.7643 20.0098 18.9375C20.1738 19.1107 20.3835 19.1973 20.6387 19.1973ZM20.6387 24.1191H31.3438C31.5898 24.1191 31.7949 24.0326 31.959 23.8594C32.123 23.6862 32.2051 23.4766 32.2051 23.2305C32.2051 22.9935 32.123 22.793 31.959 22.6289C31.7949 22.4648 31.5898 22.3828 31.3438 22.3828H20.6387C20.3835 22.3828 20.1738 22.4648 20.0098 22.6289C19.8457 22.793 19.7637 22.9935 19.7637 23.2305C19.7637 23.4766 19.8457 23.6862 20.0098 23.8594C20.1738 24.0326 20.3835 24.1191 20.6387 24.1191ZM20.6387 29.041H25.6973C25.9525 29.041 26.1621 28.959 26.3262 28.7949C26.4902 28.6217 26.5723 28.4167 26.5723 28.1797C26.5723 27.9336 26.4902 27.7285 26.3262 27.5645C26.1621 27.3913 25.9525 27.3047 25.6973 27.3047H20.6387C20.3835 27.3047 20.1738 27.3913 20.0098 27.5645C19.8457 27.7285 19.7637 27.9336 19.7637 28.1797C19.7637 28.4167 19.8457 28.6217 20.0098 28.7949C20.1738 28.959 20.3835 29.041 20.6387 29.041ZM14.4863 36.5059V15.7656C14.4863 14.3438 14.8372 13.2728 15.5391 12.5527C16.25 11.8327 17.3118 11.4727 18.7246 11.4727H33.2441C34.6569 11.4727 35.7142 11.8327 36.416 12.5527C37.127 13.2728 37.4824 14.3438 37.4824 15.7656V36.5059C37.4824 37.9368 37.127 39.0078 36.416 39.7188C35.7142 40.4297 34.6569 40.7852 33.2441 40.7852H18.7246C17.3118 40.7852 16.25 40.4297 15.5391 39.7188C14.8372 39.0078 14.4863 37.9368 14.4863 36.5059Z" fill="#FF9500"/>
</svg>
