<svg width="1024" height="1024" viewBox="0 0 1024 1024" fill="none" xmlns="http://www.w3.org/2000/svg">
<path d="M647.063 365.841C647.367 366.736 647.341 367.573 646.985 368.357C646.596 369.122 646.071 369.537 645.332 369.602C639.551 370.601 636.894 371.515 634.133 374.841C631.359 378.148 629.422 384.205 628.268 392.971C622.26 437.22 618.722 482.233 613.103 526.955C613.109 528.167 612.234 528.926 610.478 529.205C609.097 529.432 607.847 529.036 606.68 527.992C588.527 508.073 567.425 484.126 548.481 463.552C542.694 483.737 533.698 515.348 529.013 539.852C528.682 541.181 527.827 541.979 526.466 542.238C524.807 542.562 523.504 542.186 522.538 541.097C488.617 502.127 456.297 462.489 415.02 421.178C407.729 413.883 401.442 408.832 396.044 406.212C390.658 403.599 383.082 403.009 375.473 403.495C374.838 403.605 374.106 403.385 373.296 402.808C372.479 402.257 371.889 401.524 371.546 400.662C370.658 398.444 370.853 397.238 372.116 397.017C377.405 396.103 383.017 395.396 388.986 394.884C394.54 394.469 400.73 393.354 405.467 392.582C410.289 391.804 419.181 390.138 425.577 388.62C432.279 387.09 439.693 385.579 445.014 384.788C446.284 384.6 447.334 385.579 448.163 387.765C448.986 389.924 448.481 390.54 447.703 390.656C442.551 391.85 438.008 394.696 435.817 397.407C433.646 400.143 432.22 401.271 433.62 404.922C434.333 406.789 436.368 408.994 438.688 411.568C468.773 445.104 498.028 475.943 526.142 507.923C530.413 490.928 534.742 471.878 539.136 453.035C524.502 437.155 509.985 424.75 494.871 408.495C486.751 399.799 480.6 394.242 476.569 391.947C472.532 389.664 465.791 388.633 459.427 388.906C458.87 388.997 458.235 388.757 457.457 388.16C456.699 387.596 456.148 386.876 455.83 386.027C455.001 383.848 455.143 382.694 456.264 382.525C461.592 381.76 468.112 381.293 472.745 381.125C477.217 380.989 481.89 380.593 486.757 379.938C491.527 379.29 496.498 378.388 501.67 377.228C507.023 376.054 512.357 375.146 517.717 374.491C518.993 374.323 520.017 375.302 520.814 377.455C521.586 379.562 521.592 380.677 520.795 380.768C510.348 382.817 506.602 385.91 508.494 391.013C509.33 393.309 513.011 396.674 517.23 401.109C527.049 411.497 535.455 419.608 545.066 429.231C547.133 418.357 549.369 411.348 551.469 400.538C552.331 395.961 552.759 391.681 551.696 388.737C549.227 381.831 542.532 378.739 531.651 379.562C530.685 379.685 529.81 378.68 529.052 376.573C528.773 375.808 528.741 375.049 528.974 374.323C529.214 373.564 529.57 373.169 530.037 373.104C533.893 372.656 538.702 372.319 544.47 372.118C550.004 371.969 554.509 371.703 557.957 371.321C560.432 371.048 564.016 370.452 568.695 369.563C574.6 368.396 579.635 367.612 583.744 367.203C584.69 367.106 585.481 367.942 586.11 369.745C586.952 372.144 586.492 373.415 584.729 373.603C578.676 374.848 574.217 377.007 571.353 380.055C568.482 383.089 565.345 390.099 562.999 400.046C560.089 414.272 558.06 424.971 555.228 439.288C572.39 457.625 589.233 476.229 605.753 494.034C609.596 459.292 612.681 427.714 616.719 393.205C617.075 389.431 616.738 386.033 615.695 383.005C613.213 375.749 606.486 372.377 595.559 372.981C594.574 373.078 593.738 372.086 593.012 370.004C592.279 367.903 592.616 366.788 594.075 366.652C598.009 366.276 602.772 366.042 608.32 365.997C613.472 365.997 617.762 365.848 621.139 365.55C624.704 365.232 628.735 364.655 633.252 363.805C637.963 362.969 640.601 363.65 644.49 363.338C645.591 363.248 646.466 364.078 647.063 365.841Z" fill="#1A1A1A"/>
</svg>
