<svg width="1024" height="1024" viewBox="0 0 1024 1024" fill="none" xmlns="http://www.w3.org/2000/svg">
<path d="M416.665 219.105C466.044 212.329 528.209 219.085 501.591 245.716C484.884 262.439 507.813 282.145 530.639 287.403C551.093 292.117 582.914 293.667 622.61 290.769C662.305 287.864 716.998 284.466 716.998 284.466C716.998 284.466 747.498 311.103 761.536 341.611C775.567 372.126 777.265 376.736 744.355 369.947C711.437 363.165 683.115 362.445 690.381 405.546C697.639 448.653 732.255 497.33 760.57 503.386C790.635 509.812 811.4 499.028 822.048 479.167C832.696 459.3 844.984 462.172 855.444 475.283C866.449 489.095 888.983 525.918 902.405 564.882C918.536 611.704 917.894 641.409 917.894 641.409C917.894 641.409 859.923 658.358 806.552 670.951C767.55 680.158 697.399 696.862 717.963 676.281C738.541 655.7 749.429 617.281 724.742 597.329C703.174 579.899 642.785 574.18 583.387 596.363C510.781 623.499 496.018 664.415 519.492 687.9C542.972 711.386 572.259 715.517 572.259 740.215C572.259 757.645 514.184 780.443 465.765 792.51C422.246 803.365 355.395 800.259 355.395 800.259C355.395 800.259 356.302 703.074 332.673 665.102C307.987 625.412 273.347 598.055 228.084 601.2C186.074 604.124 171.959 620.491 161.765 638.497C153.534 653.022 130.786 651.096 119.651 636.559C110.066 624.05 95.4518 600.72 100.773 562.943C106.1 525.16 119.651 509.183 154.506 509.183C189.36 509.183 204.338 522.689 231.959 514.026C256.645 506.278 287.144 497.07 277.948 450.099C268.758 403.12 247.449 350.32 247.449 350.32C247.449 350.32 307.728 343.537 361.208 335.795C401.383 329.985 419.297 314.481 423.172 306.259C427.041 298.018 427.657 279.09 401.87 272.84C369.919 265.091 337.871 251.623 362.174 236.029C371.442 230.089 393.321 222.308 416.665 219.105Z" fill="#E6E6E6"/>
</svg>
