<svg width="1024" height="1024" viewBox="0 0 1024 1024" fill="none" xmlns="http://www.w3.org/2000/svg">
<path fill-rule="evenodd" clip-rule="evenodd" d="M432.201 208.734C494.307 204.986 514.729 215.717 521.592 223.803C527.166 230.358 524.204 244.196 518.948 253.487C514.359 261.612 509.259 269.834 532.681 276.532C541.171 278.957 564.6 283.004 617.931 279.769C679.779 276.014 719.332 272.896 719.332 272.896L719.379 272.952C720.712 274.206 750.108 301.915 763.37 321.811C777.913 343.637 794.368 382.666 775.379 382.666C756.389 382.666 714.193 366.008 707.731 387.289C701.957 406.294 709.637 435.396 730.641 460.853C751.659 486.322 763.37 491.172 783.972 488.753C804.439 486.341 814.167 474.326 819.643 457.513C822.761 447.917 837.304 450.348 845.385 453.175C853.461 456.009 872.45 469.749 900.714 532.01C928.605 593.397 930.559 647.311 930.608 648.792L930.623 648.823C930.46 648.876 865.116 669.965 804.168 682.769C723.376 699.751 717.244 699.576 709.234 690.051C702.766 682.374 703.972 679.137 709.234 669.028C714.484 658.933 734.756 628.969 724.361 610.126C712.462 588.586 678.722 590.848 644.36 595.18C565.009 605.159 539.96 636.691 532.28 647.605C524.6 658.517 531.061 671.862 537.93 676.699C544.807 681.562 591.327 707.817 591.489 729.364C591.664 752.299 580.562 761.292 551.262 775.447C533.09 784.221 496.323 804.438 416.33 809.801C363.176 813.366 344.107 812.515 344.022 812.511L344.028 812.505C344.028 812.505 346.763 725.947 334.333 691.658C321.001 654.867 293.606 621.337 253.535 614.049C226.872 609.199 205.874 618.16 198.771 622.861C184.053 632.64 184.863 650.827 159.406 657.292C133.949 663.757 116.055 647.644 103.651 624.547C89.1079 597.469 87.8504 545.874 107.695 517.441C122.64 496.023 152.096 492.373 171.927 494C196.568 496.017 211.591 503.104 228.908 500.29C246.276 497.45 270.32 486.725 270.904 467.318C271.707 440.254 235.387 338.894 235.349 338.788L235.343 338.775C235.475 338.762 294.254 333.017 339.977 327.052C377.145 322.202 395.681 322.914 411.883 304.013C424.009 289.871 413.419 283.75 394.586 278.951C377.146 274.497 359.369 268.434 349.673 258.338C339.719 247.95 341.002 235.961 362.265 225.937C377.547 218.726 403.523 210.465 432.201 208.734Z" fill="#BFBFBF"/>
</svg>
