<svg width="1024" height="1024" viewBox="0 0 1024 1024" fill="none" xmlns="http://www.w3.org/2000/svg">
<path fill-rule="evenodd" clip-rule="evenodd" d="M432.201 208.734C494.307 204.986 514.729 215.717 521.592 223.803C522.722 225.132 523.501 226.761 523.981 228.59C529.539 235.16 522.536 259.669 517.282 268.959C519.724 271.625 524.433 274.174 532.681 276.532C541.171 278.957 564.6 283.004 617.931 279.769C679.778 276.014 719.332 272.896 719.332 272.896L719.378 272.952C720.712 274.206 750.108 301.915 763.37 321.811C776.379 341.335 790.917 374.622 780.247 381.427C779.77 382.109 764.831 403.347 754.692 403.347C742.748 403.347 721.628 396.764 705.991 397.169C704.768 415.547 713.009 439.484 730.641 460.853C751.659 486.322 763.37 491.172 783.972 488.753C787.707 488.313 791.084 487.551 794.143 486.5C796.058 482.749 797.632 478.756 798.957 474.686C801.676 466.339 818.696 455.535 823.063 452.875C828.718 448.981 839.042 450.956 845.385 453.175C853.461 456.008 872.45 469.749 900.713 532.01C928.599 593.383 930.558 647.288 930.608 648.791L930.616 648.81L930.629 648.812C930.629 648.812 930.626 648.812 930.619 648.815L930.623 648.823C930.623 648.823 930.562 648.842 930.447 648.879C926.249 650.455 850.342 678.816 791.011 691.276C710.212 708.252 699.583 708.783 691.573 699.258C685.112 691.581 686.233 688.695 691.489 678.593C696.745 668.477 717.321 641.749 706.919 622.906C695.027 601.373 662.739 602.683 628.384 607.008C577.64 613.397 549.273 631.186 533.408 646.037C532.996 646.598 532.619 647.121 532.279 647.605C524.599 658.518 531.06 671.862 537.93 676.699C544.806 681.562 591.327 707.817 591.489 729.364C591.632 748.18 584.185 757.61 565.327 768.207C555.704 775.148 543.935 781.402 531.812 787.256C513.64 796.036 480.612 811.183 406.976 814.509C353.794 816.901 341.033 815.567 340.956 815.559L340.969 815.543C341.047 814.268 345.716 736.256 333.387 702.241C320.05 665.456 292.35 634.183 258.007 626.888C231.494 621.253 210.858 629.78 203.755 634.5C189.037 644.259 189.329 661.423 163.873 667.881C138.422 674.352 120.625 658.174 108.124 635.143C105.057 629.493 102.555 623.763 100.585 618.009C89.0388 589.803 89.3499 543.725 107.695 517.441C122.64 496.023 152.096 492.373 171.927 494C196.568 496.017 211.591 503.104 228.908 500.29C243.412 497.918 262.568 490.046 268.833 476.213C271.746 455.19 237.562 361.621 237.476 361.386L235.359 338.817C235.352 338.799 235.349 338.788 235.349 338.788L235.357 338.79V338.788L235.371 338.794L235.343 338.775C235.475 338.762 294.254 333.017 339.977 327.052C372.417 322.819 390.663 322.822 405.552 310.324C402.153 308.904 398.056 307.659 393.47 306.492C376.03 302.031 356.49 295.456 343.522 279.797C339.334 274.743 343.515 247.613 343.691 246.484C343.326 239.452 348.771 232.299 362.265 225.937C377.547 218.726 403.523 210.465 432.201 208.734Z" fill="#808080"/>
</svg>
