<svg width="20" height="20" viewBox="0 0 20 20" fill="none" xmlns="http://www.w3.org/2000/svg">
<path fill-rule="evenodd" clip-rule="evenodd" d="M18 16C18 14 15.917 11 10 11C9.6442 11 9.30227 11.0108 8.97382 11.0317L9.24961 13.018C9.48891 13.0062 9.73888 13 10 13V17H6V17V19H8V17H10V19H18V16ZM10 10C12.485 10 14.5 7.985 14.5 5.5C14.5 3.015 12.485 1 10 1C9.69948 1 9.40583 1.02947 9.12179 1.08568L9.51002 3.04763C9.6669 3.01659 9.83053 3 10 3V8C9.83053 8 9.6669 7.98341 9.51002 7.95237L9.12179 9.91432C9.40583 9.97053 9.69948 10 10 10ZM7.06731 11.2894C6.37683 11.4389 5.76736 11.6404 5.23277 11.8799L6.28421 13.5932C6.63541 13.4528 7.03889 13.3296 7.50204 13.2324L7.06731 11.2894ZM4 19V17H2V19H4ZM2.16065 15H4.38816C4.51181 14.8197 4.67205 14.6302 4.87825 14.4427L3.63968 12.8659C2.85957 13.5257 2.3864 14.2824 2.16065 15ZM7.49981 1.75806L8.61252 3.41995C8.339 3.60308 8.10308 3.839 7.91995 4.11252L6.25806 2.99981C6.5866 2.50911 7.00911 2.0866 7.49981 1.75806ZM5.58568 4.62179L7.54763 5.01002C7.51659 5.1669 7.5 5.33053 7.5 5.5C7.5 5.66947 7.51659 5.8331 7.54763 5.98998L5.58568 6.37821C5.52947 6.09417 5.5 5.80052 5.5 5.5C5.5 5.19948 5.52947 4.90583 5.58568 4.62179ZM6.25806 8.00019L7.91995 6.88748C8.10308 7.161 8.339 7.39692 8.61252 7.58005L7.49981 9.24194C7.00911 8.9134 6.5866 8.49089 6.25806 8.00019Z" fill="#202122"/>
</svg>
