<?xml version="1.0" encoding="UTF-8"?>
<!--Generator: Apple Native CoreSVG 175-->
<!DOCTYPE svg
PUBLIC "-//W3C//DTD SVG 1.1//EN"
       "http://www.w3.org/Graphics/SVG/1.1/DTD/svg11.dtd">
<svg version="1.1" xmlns="http://www.w3.org/2000/svg" xmlns:xlink="http://www.w3.org/1999/xlink" width="3300" height="2200">
 <!--glyph: "uni100308.medium", point size: 100.0, font version: "17.0d11e1", template writer version: "65.1"-->
 <g id="Notes">
  <rect height="2200" id="artboard" style="fill:white;opacity:1" width="3300" x="0" y="0"/>
  <line style="fill:none;stroke:black;opacity:1;stroke-width:0.5;" x1="263" x2="3036" y1="292" y2="292"/>
  <text style="stroke:none;fill:black;font-family:sans-serif;font-size:13;font-weight:bold;" transform="matrix(1 0 0 1 263 322)">Weight/Scale Variations</text>
  <text style="stroke:none;fill:black;font-family:sans-serif;font-size:13;text-anchor:middle;" transform="matrix(1 0 0 1 559.711 322)">Ultralight</text>
  <text style="stroke:none;fill:black;font-family:sans-serif;font-size:13;text-anchor:middle;" transform="matrix(1 0 0 1 856.422 322)">Thin</text>
  <text style="stroke:none;fill:black;font-family:sans-serif;font-size:13;text-anchor:middle;" transform="matrix(1 0 0 1 1153.13 322)">Light</text>
  <text style="stroke:none;fill:black;font-family:sans-serif;font-size:13;text-anchor:middle;" transform="matrix(1 0 0 1 1449.84 322)">Regular</text>
  <text style="stroke:none;fill:black;font-family:sans-serif;font-size:13;text-anchor:middle;" transform="matrix(1 0 0 1 1746.56 322)">Medium</text>
  <text style="stroke:none;fill:black;font-family:sans-serif;font-size:13;text-anchor:middle;" transform="matrix(1 0 0 1 2043.27 322)">Semibold</text>
  <text style="stroke:none;fill:black;font-family:sans-serif;font-size:13;text-anchor:middle;" transform="matrix(1 0 0 1 2339.98 322)">Bold</text>
  <text style="stroke:none;fill:black;font-family:sans-serif;font-size:13;text-anchor:middle;" transform="matrix(1 0 0 1 2636.69 322)">Heavy</text>
  <text style="stroke:none;fill:black;font-family:sans-serif;font-size:13;text-anchor:middle;" transform="matrix(1 0 0 1 2933.4 322)">Black</text>
  <line style="fill:none;stroke:black;opacity:1;stroke-width:0.5;" x1="263" x2="3036" y1="1903" y2="1903"/>
  <g transform="matrix(1 0 0 1 263 1933)">
   <path d="M9.24805 0.830078Q10.8691 0.830078 12.2949 0.214844Q13.7207-0.400391 14.8096-1.49414Q15.8984-2.58789 16.5186-4.01367Q17.1387-5.43945 17.1387-7.05078Q17.1387-8.66211 16.5186-10.0879Q15.8984-11.5137 14.8047-12.6074Q13.7109-13.7012 12.2852-14.3164Q10.8594-14.9316 9.23828-14.9316Q7.62695-14.9316 6.20117-14.3164Q4.77539-13.7012 3.69141-12.6074Q2.60742-11.5137 1.9873-10.0879Q1.36719-8.66211 1.36719-7.05078Q1.36719-5.43945 1.9873-4.01367Q2.60742-2.58789 3.69629-1.49414Q4.78516-0.400391 6.21094 0.214844Q7.63672 0.830078 9.24805 0.830078ZM9.24805-0.654297Q7.91992-0.654297 6.7627-1.14746Q5.60547-1.64062 4.73145-2.51953Q3.85742-3.39844 3.36426-4.56055Q2.87109-5.72266 2.87109-7.05078Q2.87109-8.37891 3.35938-9.54102Q3.84766-10.7031 4.72168-11.582Q5.5957-12.4609 6.75293-12.9541Q7.91016-13.4473 9.23828-13.4473Q10.5762-13.4473 11.7334-12.9541Q12.8906-12.4609 13.7695-11.582Q14.6484-10.7031 15.1465-9.54102Q15.6445-8.37891 15.6445-7.05078Q15.6445-5.72266 15.1514-4.56055Q14.6582-3.39844 13.7842-2.51953Q12.9102-1.64062 11.748-1.14746Q10.5859-0.654297 9.24805-0.654297ZM5.6543-7.05078Q5.6543-6.72852 5.85938-6.52832Q6.06445-6.32812 6.40625-6.32812L8.51562-6.32812L8.51562-4.20898Q8.51562-3.88672 8.71094-3.67676Q8.90625-3.4668 9.23828-3.4668Q9.56055-3.4668 9.77051-3.67676Q9.98047-3.88672 9.98047-4.20898L9.98047-6.32812L12.0898-6.32812Q12.4219-6.32812 12.627-6.52832Q12.832-6.72852 12.832-7.05078Q12.832-7.38281 12.627-7.58789Q12.4219-7.79297 12.0898-7.79297L9.98047-7.79297L9.98047-9.90234Q9.98047-10.2344 9.77051-10.4443Q9.56055-10.6543 9.23828-10.6543Q8.90625-10.6543 8.71094-10.4443Q8.51562-10.2344 8.51562-9.90234L8.51562-7.79297L6.40625-7.79297Q6.06445-7.79297 5.85938-7.58789Q5.6543-7.38281 5.6543-7.05078Z"/>
  </g>
  <g transform="matrix(1 0 0 1 281.867 1933)">
   <path d="M11.709 2.91016Q13.75 2.91016 15.5518 2.12891Q17.3535 1.34766 18.7305-0.0292969Q20.1074-1.40625 20.8887-3.20801Q21.6699-5.00977 21.6699-7.05078Q21.6699-9.0918 20.8887-10.8936Q20.1074-12.6953 18.7305-14.0723Q17.3535-15.4492 15.5469-16.2305Q13.7402-17.0117 11.6992-17.0117Q9.6582-17.0117 7.85645-16.2305Q6.05469-15.4492 4.68262-14.0723Q3.31055-12.6953 2.5293-10.8936Q1.74805-9.0918 1.74805-7.05078Q1.74805-5.00977 2.5293-3.20801Q3.31055-1.40625 4.6875-0.0292969Q6.06445 1.34766 7.86621 2.12891Q9.66797 2.91016 11.709 2.91016ZM11.709 1.25Q9.98047 1.25 8.47656 0.605469Q6.97266-0.0390625 5.83496-1.17676Q4.69727-2.31445 4.05762-3.81836Q3.41797-5.32227 3.41797-7.05078Q3.41797-8.7793 4.05762-10.2832Q4.69727-11.7871 5.83008-12.9297Q6.96289-14.0723 8.4668-14.7119Q9.9707-15.3516 11.6992-15.3516Q13.4277-15.3516 14.9316-14.7119Q16.4355-14.0723 17.5781-12.9297Q18.7207-11.7871 19.3652-10.2832Q20.0098-8.7793 20.0098-7.05078Q20.0098-5.32227 19.3701-3.81836Q18.7305-2.31445 17.5928-1.17676Q16.4551-0.0390625 14.9463 0.605469Q13.4375 1.25 11.709 1.25ZM7.17773-7.05078Q7.17773-6.69922 7.41211-6.47461Q7.64648-6.25 8.01758-6.25L10.8887-6.25L10.8887-3.36914Q10.8887-2.99805 11.1133-2.76855Q11.3379-2.53906 11.6895-2.53906Q12.0605-2.53906 12.29-2.76855Q12.5195-2.99805 12.5195-3.36914L12.5195-6.25L15.4004-6.25Q15.7715-6.25 16.001-6.47461Q16.2305-6.69922 16.2305-7.05078Q16.2305-7.42188 16.001-7.65137Q15.7715-7.88086 15.4004-7.88086L12.5195-7.88086L12.5195-10.752Q12.5195-11.1328 12.29-11.3623Q12.0605-11.5918 11.6895-11.5918Q11.3379-11.5918 11.1133-11.3574Q10.8887-11.123 10.8887-10.752L10.8887-7.88086L8.01758-7.88086Q7.63672-7.88086 7.40723-7.65137Q7.17773-7.42188 7.17773-7.05078Z"/>
  </g>
  <g transform="matrix(1 0 0 1 305.646 1933)">
   <path d="M14.9707 5.66406Q17.0605 5.66406 18.96 5.01465Q20.8594 4.36523 22.4512 3.19336Q24.043 2.02148 25.2197 0.429688Q26.3965-1.16211 27.0459-3.06641Q27.6953-4.9707 27.6953-7.05078Q27.6953-9.14062 27.0459-11.04Q26.3965-12.9395 25.2197-14.5312Q24.043-16.123 22.4512-17.2998Q20.8594-18.4766 18.9551-19.126Q17.0508-19.7754 14.9609-19.7754Q12.8711-19.7754 10.9717-19.126Q9.07227-18.4766 7.48535-17.2998Q5.89844-16.123 4.72168-14.5312Q3.54492-12.9395 2.90039-11.04Q2.25586-9.14062 2.25586-7.05078Q2.25586-4.9707 2.90527-3.06641Q3.55469-1.16211 4.72656 0.429688Q5.89844 2.02148 7.49023 3.19336Q9.08203 4.36523 10.9814 5.01465Q12.8809 5.66406 14.9707 5.66406ZM14.9707 3.84766Q13.1641 3.84766 11.5283 3.2959Q9.89258 2.74414 8.53516 1.74805Q7.17773 0.751953 6.17676-0.610352Q5.17578-1.97266 4.62891-3.6084Q4.08203-5.24414 4.08203-7.05078Q4.08203-8.86719 4.62891-10.5029Q5.17578-12.1387 6.17188-13.501Q7.16797-14.8633 8.52539-15.8594Q9.88281-16.8555 11.5186-17.4023Q13.1543-17.9492 14.9609-17.9492Q16.7773-17.9492 18.4131-17.4023Q20.0488-16.8555 21.4111-15.8594Q22.7734-14.8633 23.7695-13.501Q24.7656-12.1387 25.3174-10.5029Q25.8691-8.86719 25.8691-7.05078Q25.8789-5.24414 25.332-3.6084Q24.7852-1.97266 23.7842-0.610352Q22.7832 0.751953 21.4209 1.74805Q20.0586 2.74414 18.4229 3.2959Q16.7871 3.84766 14.9707 3.84766ZM9.19922-7.05078Q9.19922-6.66992 9.45801-6.4209Q9.7168-6.17188 10.1172-6.17188L14.0625-6.17188L14.0625-2.2168Q14.0625-1.81641 14.3115-1.55762Q14.5605-1.29883 14.9512-1.29883Q15.3516-1.29883 15.6104-1.55273Q15.8691-1.80664 15.8691-2.2168L15.8691-6.17188L19.8242-6.17188Q20.2246-6.17188 20.4785-6.4209Q20.7324-6.66992 20.7324-7.05078Q20.7324-7.46094 20.4785-7.71484Q20.2246-7.96875 19.8242-7.96875L15.8691-7.96875L15.8691-11.9141Q15.8691-12.3242 15.6104-12.583Q15.3516-12.8418 14.9512-12.8418Q14.5605-12.8418 14.3115-12.583Q14.0625-12.3242 14.0625-11.9141L14.0625-7.96875L10.1172-7.96875Q9.70703-7.96875 9.45312-7.71484Q9.19922-7.46094 9.19922-7.05078Z"/>
  </g>
  <text style="stroke:none;fill:black;font-family:sans-serif;font-size:13;font-weight:bold;" transform="matrix(1 0 0 1 263 1953)">Design Variations</text>
  <text style="stroke:none;fill:black;font-family:sans-serif;font-size:13;" transform="matrix(1 0 0 1 263 1971)">Symbols are supported in up to nine weights and three scales.</text>
  <text style="stroke:none;fill:black;font-family:sans-serif;font-size:13;" transform="matrix(1 0 0 1 263 1989)">For optimal layout with text and other symbols, vertically align</text>
  <text style="stroke:none;fill:black;font-family:sans-serif;font-size:13;" transform="matrix(1 0 0 1 263 2007)">symbols with the adjacent text.</text>
  <line style="fill:none;stroke:#00AEEF;stroke-width:0.5;opacity:1.0;" x1="776" x2="776" y1="1919" y2="1933"/>
  <g transform="matrix(1 0 0 1 776 1933)">
   <path d="M3.31055 0.15625Q3.70117 0.15625 3.91602-0.00976562Q4.13086-0.175781 4.26758-0.585938L5.52734-4.0332L11.2891-4.0332L12.5488-0.585938Q12.6855-0.175781 12.9004-0.00976562Q13.1152 0.15625 13.4961 0.15625Q13.8867 0.15625 14.1162-0.0585938Q14.3457-0.273438 14.3457-0.644531Q14.3457-0.869141 14.2383-1.17188L9.6582-13.3691Q9.48242-13.8184 9.17969-14.043Q8.87695-14.2676 8.4082-14.2676Q7.5-14.2676 7.17773-13.3789L2.59766-1.16211Q2.49023-0.859375 2.49023-0.634766Q2.49023-0.263672 2.70996-0.0537109Q2.92969 0.15625 3.31055 0.15625ZM6.00586-5.51758L8.37891-12.0898L8.42773-12.0898L10.8008-5.51758Z"/>
  </g>
  <line style="fill:none;stroke:#00AEEF;stroke-width:0.5;opacity:1.0;" x1="793.197" x2="793.197" y1="1919" y2="1933"/>
  <text style="stroke:none;fill:black;font-family:sans-serif;font-size:13;font-weight:bold;" transform="matrix(1 0 0 1 776 1953)">Margins</text>
  <text style="stroke:none;fill:black;font-family:sans-serif;font-size:13;" transform="matrix(1 0 0 1 776 1971)">Leading and trailing margins on the left and right side of each symbol</text>
  <text style="stroke:none;fill:black;font-family:sans-serif;font-size:13;" transform="matrix(1 0 0 1 776 1989)">can be adjusted by modifying the x-location of the margin guidelines.</text>
  <text style="stroke:none;fill:black;font-family:sans-serif;font-size:13;" transform="matrix(1 0 0 1 776 2007)">Modifications are automatically applied proportionally to all</text>
  <text style="stroke:none;fill:black;font-family:sans-serif;font-size:13;" transform="matrix(1 0 0 1 776 2025)">scales and weights.</text>
  <g transform="matrix(1 0 0 1 1289 1933)">
   <path d="M2.8418 1.86523L4.54102 3.57422Q5.18555 4.22852 5.90332 4.17969Q6.62109 4.13086 7.31445 3.35938L18.0078-8.42773L17.041-9.4043L6.42578 2.27539Q6.16211 2.57812 5.89355 2.61719Q5.625 2.65625 5.27344 2.30469L4.10156 1.14258Q3.75 0.791016 3.79395 0.522461Q3.83789 0.253906 4.14062-0.0195312L15.6152-10.8203L14.6387-11.7871L3.04688-0.898438Q2.30469-0.214844 2.25098 0.498047Q2.19727 1.21094 2.8418 1.86523ZM9.25781-16.3281Q8.94531-16.0254 8.90625-15.6348Q8.86719-15.2441 9.04297-14.9512Q9.21875-14.6777 9.55566-14.541Q9.89258-14.4043 10.3809-14.5215Q11.4746-14.7754 12.5977-14.7314Q13.7207-14.6875 14.7949-13.9844L14.209-12.5293Q13.9551-11.9043 14.0674-11.4404Q14.1797-10.9766 14.5801-10.5664L16.875-8.25195Q17.2363-7.88086 17.5781-7.82227Q17.9199-7.76367 18.3398-7.8418L19.4043-8.03711L20.0684-7.36328L20.0293-6.80664Q20-6.43555 20.1221-6.12305Q20.2441-5.81055 20.6055-5.44922L21.3672-4.70703Q21.7285-4.3457 22.1533-4.33105Q22.5781-4.31641 22.9297-4.66797L25.8398-7.58789Q26.1914-7.93945 26.1816-8.35449Q26.1719-8.76953 25.8105-9.13086L25.0391-9.89258Q24.6875-10.2539 24.3799-10.3857Q24.0723-10.5176 23.7109-10.4883L23.1348-10.4395L22.4902-11.0742L22.7344-12.1973Q22.832-12.6172 22.6953-12.9834Q22.5586-13.3496 22.1191-13.7891L19.9219-15.9766Q18.6719-17.2168 17.2607-17.8369Q15.8496-18.457 14.4189-18.4814Q12.9883-18.5059 11.665-17.959Q10.3418-17.4121 9.25781-16.3281ZM10.752-15.957Q11.6602-16.6211 12.7002-16.9043Q13.7402-17.1875 14.8047-17.085Q15.8691-16.9824 16.8701-16.5137Q17.8711-16.0449 18.7012-15.2051L21.1328-12.793Q21.3086-12.6172 21.3525-12.4512Q21.3965-12.2852 21.3379-12.0312L21.0156-10.5469L22.5195-9.0625L23.5059-9.12109Q23.6914-9.13086 23.7891-9.09668Q23.8867-9.0625 24.0332-8.91602L24.6094-8.33984L22.168-5.89844L21.5918-6.47461Q21.4453-6.62109 21.4062-6.71875Q21.3672-6.81641 21.377-7.01172L21.4453-7.98828L19.9512-9.47266L18.4277-9.21875Q18.1836-9.16992 18.042-9.2041Q17.9004-9.23828 17.7148-9.41406L15.7129-11.416Q15.5176-11.5918 15.4932-11.7529Q15.4688-11.9141 15.5859-12.1875L16.4648-14.2773Q15.293-15.3711 13.8281-15.791Q12.3633-16.2109 10.8398-15.7617Q10.7227-15.7324 10.6885-15.8057Q10.6543-15.8789 10.752-15.957Z"/>
  </g>
  <text style="stroke:none;fill:black;font-family:sans-serif;font-size:13;font-weight:bold;" transform="matrix(1 0 0 1 1289 1953)">Exporting</text>
  <text style="stroke:none;fill:black;font-family:sans-serif;font-size:13;" transform="matrix(1 0 0 1 1289 1971)">Symbols should be outlined when exporting to ensure the</text>
  <text style="stroke:none;fill:black;font-family:sans-serif;font-size:13;" transform="matrix(1 0 0 1 1289 1989)">design is preserved when submitting to Xcode.</text>
  <text id="template-version" style="stroke:none;fill:black;font-family:sans-serif;font-size:13;text-anchor:end;" transform="matrix(1 0 0 1 3036 1933)">Template v.2.0</text>
  <text style="stroke:none;fill:black;font-family:sans-serif;font-size:13;text-anchor:end;" transform="matrix(1 0 0 1 3036 1951)">Requires Xcode 13 or greater</text>
  <text id="descriptive-name" style="stroke:none;fill:black;font-family:sans-serif;font-size:13;text-anchor:end;" transform="matrix(1 0 0 1 3036 1969)">Generated from line.3.horizontal.decrease.circle</text>
  <text style="stroke:none;fill:black;font-family:sans-serif;font-size:13;text-anchor:end;" transform="matrix(1 0 0 1 3036 1987)">Typeset at 100 points</text>
  <text style="stroke:none;fill:black;font-family:sans-serif;font-size:13;" transform="matrix(1 0 0 1 263 726)">Small</text>
  <text style="stroke:none;fill:black;font-family:sans-serif;font-size:13;" transform="matrix(1 0 0 1 263 1156)">Medium</text>
  <text style="stroke:none;fill:black;font-family:sans-serif;font-size:13;" transform="matrix(1 0 0 1 263 1586)">Large</text>
 </g>
 <g id="Guides">
  <g id="H-reference" style="fill:#27AAE1;stroke:none;" transform="matrix(1 0 0 1 339 696)">
   <path d="M0.976562 0L3.66211 0L29.3457-67.1387L30.0293-67.1387L30.0293-70.459L28.125-70.459ZM11.6699-24.4629L46.9727-24.4629L46.2402-26.709L12.4512-26.709ZM55.127 0L57.7637 0L30.6152-70.459L29.4434-70.459L29.4434-67.1387Z"/>
  </g>
  <line id="Baseline-S" style="fill:none;stroke:#27AAE1;opacity:1;stroke-width:0.5;" x1="263" x2="3036" y1="696" y2="696"/>
  <line id="Capline-S" style="fill:none;stroke:#27AAE1;opacity:1;stroke-width:0.5;" x1="263" x2="3036" y1="625.541" y2="625.541"/>
  <g id="H-reference" style="fill:#27AAE1;stroke:none;" transform="matrix(1 0 0 1 339 1126)">
   <path d="M0.976562 0L3.66211 0L29.3457-67.1387L30.0293-67.1387L30.0293-70.459L28.125-70.459ZM11.6699-24.4629L46.9727-24.4629L46.2402-26.709L12.4512-26.709ZM55.127 0L57.7637 0L30.6152-70.459L29.4434-70.459L29.4434-67.1387Z"/>
  </g>
  <line id="Baseline-M" style="fill:none;stroke:#27AAE1;opacity:1;stroke-width:0.5;" x1="263" x2="3036" y1="1126" y2="1126"/>
  <line id="Capline-M" style="fill:none;stroke:#27AAE1;opacity:1;stroke-width:0.5;" x1="263" x2="3036" y1="1055.54" y2="1055.54"/>
  <g id="H-reference" style="fill:#27AAE1;stroke:none;" transform="matrix(1 0 0 1 339 1556)">
   <path d="M0.976562 0L3.66211 0L29.3457-67.1387L30.0293-67.1387L30.0293-70.459L28.125-70.459ZM11.6699-24.4629L46.9727-24.4629L46.2402-26.709L12.4512-26.709ZM55.127 0L57.7637 0L30.6152-70.459L29.4434-70.459L29.4434-67.1387Z"/>
  </g>
  <line id="Baseline-L" style="fill:none;stroke:#27AAE1;opacity:1;stroke-width:0.5;" x1="263" x2="3036" y1="1556" y2="1556"/>
  <line id="Capline-L" style="fill:none;stroke:#27AAE1;opacity:1;stroke-width:0.5;" x1="263" x2="3036" y1="1485.54" y2="1485.54"/>
  <line id="left-margin" style="fill:none;stroke:#00AEEF;stroke-width:0.5;opacity:1.0;" x1="1391.3" x2="1391.3" y1="1030.79" y2="1150.12"/>
  <line id="right-margin" style="fill:none;stroke:#00AEEF;stroke-width:0.5;opacity:1.0;" x1="1508.39" x2="1508.39" y1="1030.79" y2="1150.12"/>
 </g>
 <g id="Symbols">
  <g id="Black-L" transform="matrix(1 0 0 1 2854.05 1556)">
   <path d="M79.3457 32.8613Q90.5762 32.8613 100.757 29.3945Q110.938 25.9277 119.458 19.6777Q127.979 13.4277 134.229 4.90723Q140.479-3.61328 143.945-13.7939Q147.412-23.9746 147.412-35.2051Q147.412-46.4355 143.945-56.6162Q140.479-66.7969 134.204-75.3174Q127.93-83.8379 119.434-90.1123Q110.938-96.3867 100.732-99.8291Q90.5273-103.271 79.2969-103.271Q68.1152-103.271 57.9102-99.8291Q47.7051-96.3867 39.209-90.1123Q30.7129-83.8379 24.4385-75.3174Q18.1641-66.7969 14.7217-56.6162Q11.2793-46.4355 11.2793-35.2051Q11.2793-23.9746 14.7217-13.7939Q18.1641-3.61328 24.4385 4.90723Q30.7129 13.4277 39.2334 19.6777Q47.7539 25.9277 57.9346 29.3945Q68.1152 32.8613 79.3457 32.8613ZM79.3457 12.4023Q71.4355 12.4023 64.2822 10.0098Q57.1289 7.61719 51.1963 3.24707Q45.2637-1.12305 40.8936-7.08008Q36.5234-13.0371 34.1309-20.166Q31.7383-27.2949 31.7383-35.2051Q31.7383-43.1152 34.1309-50.2686Q36.5234-57.4219 40.8936-63.3545Q45.2637-69.2871 51.1963-73.6572Q57.1289-78.0273 64.2578-80.4199Q71.3867-82.8125 79.2969-82.8125Q87.207-82.8125 94.3604-80.4199Q101.514-78.0273 107.471-73.6572Q113.428-69.2871 117.798-63.3545Q122.168-57.4219 124.561-50.2686Q126.953-43.1152 126.953-35.2051Q126.953-27.2949 124.561-20.166Q122.168-13.0371 117.798-7.08008Q113.428-1.12305 107.495 3.24707Q101.562 7.61719 94.4092 10.0098Q87.2559 12.4023 79.3457 12.4023ZM50.8301-45.6055L107.812-45.6055Q111.133-45.6055 113.159-47.4854Q115.186-49.3652 115.186-52.4414Q115.186-55.5176 113.159-57.3975Q111.133-59.2773 107.812-59.2773L50.8301-59.2773Q47.5098-59.2773 45.4834-57.3975Q43.457-55.5176 43.457-52.4414Q43.457-49.3652 45.4834-47.4854Q47.5098-45.6055 50.8301-45.6055ZM57.5684-25L101.123-25Q104.346-25 106.421-26.8799Q108.496-28.7598 108.496-31.7871Q108.496-34.8633 106.421-36.7676Q104.346-38.6719 101.123-38.6719L57.5684-38.6719Q54.2969-38.6719 52.2461-36.7676Q50.1953-34.8633 50.1953-31.7871Q50.1953-28.7598 52.2461-26.8799Q54.2969-25 57.5684-25ZM64.4043-4.39453L94.2871-4.39453Q97.5098-4.39453 99.585-6.27441Q101.66-8.1543 101.66-11.1816Q101.66-14.2578 99.585-16.1621Q97.5098-18.0664 94.2871-18.0664L64.4043-18.0664Q61.1328-18.0664 59.082-16.1621Q57.0312-14.2578 57.0312-11.1816Q57.0312-8.1543 59.082-6.27441Q61.1328-4.39453 64.4043-4.39453Z"/>
  </g>
  <g id="Heavy-L" transform="matrix(1 0 0 1 2558.39 1556)">
   <path d="M78.2715 31.7871Q89.3555 31.7871 99.3652 28.3691Q109.375 24.9512 117.749 18.7988Q126.123 12.6465 132.3 4.24805Q138.477-4.15039 141.895-14.1602Q145.312-24.1699 145.312-35.2051Q145.312-46.2402 141.895-56.2744Q138.477-66.3086 132.3-74.6826Q126.123-83.0566 117.749-89.2578Q109.375-95.459 99.3408-98.8525Q89.3066-102.246 78.2227-102.246Q67.2363-102.246 57.2021-98.8525Q47.168-95.459 38.7939-89.2578Q30.4199-83.0566 24.2432-74.6826Q18.0664-66.3086 14.6729-56.2744Q11.2793-46.2402 11.2793-35.2051Q11.2793-24.1699 14.6729-14.1602Q18.0664-4.15039 24.2432 4.24805Q30.4199 12.6465 38.8184 18.7988Q47.2168 24.9512 57.2266 28.3691Q67.2363 31.7871 78.2715 31.7871ZM78.2715 14.0137Q70.1172 14.0137 62.7197 11.5479Q55.3223 9.08203 49.1943 4.56543Q43.0664 0.0488281 38.5498-6.12793Q34.0332-12.3047 31.543-19.6777Q29.0527-27.0508 29.0527-35.2051Q29.0527-43.4082 31.543-50.8057Q34.0332-58.2031 38.5254-64.3311Q43.0176-70.459 49.1699-74.9756Q55.3223-79.4922 62.6953-81.9824Q70.0684-84.4727 78.2227-84.4727Q86.4258-84.4727 93.8232-81.9824Q101.221-79.4922 107.373-74.9756Q113.525-70.459 118.042-64.3311Q122.559-58.2031 125.049-50.8057Q127.539-43.4082 127.539-35.2051Q127.539-27.0508 125.049-19.6777Q122.559-12.3047 118.042-6.12793Q113.525 0.0488281 107.397 4.56543Q101.27 9.08203 93.8721 11.5479Q86.4746 14.0137 78.2715 14.0137ZM48.291-46.2891L108.203-46.2891Q111.182-46.2891 113.013-47.9736Q114.844-49.6582 114.844-52.3926Q114.844-55.1758 113.013-56.8604Q111.182-58.5449 108.203-58.5449L48.291-58.5449Q45.3613-58.5449 43.5303-56.8604Q41.6992-55.1758 41.6992-52.3926Q41.6992-49.6582 43.5303-47.9736Q45.3613-46.2891 48.291-46.2891ZM55.6152-25.6348L100.928-25.6348Q103.809-25.6348 105.664-27.3193Q107.52-29.0039 107.52-31.7383Q107.52-34.4727 105.664-36.1816Q103.809-37.8906 100.928-37.8906L55.6152-37.8906Q52.7344-37.8906 50.8789-36.1816Q49.0234-34.4727 49.0234-31.7383Q49.0234-29.0039 50.8789-27.3193Q52.7344-25.6348 55.6152-25.6348ZM63.1348-4.93164L93.4082-4.93164Q96.2891-4.93164 98.1445-6.61621Q100-8.30078 100-11.0352Q100-13.8184 98.1445-15.5029Q96.2891-17.1875 93.4082-17.1875L63.1348-17.1875Q60.2051-17.1875 58.374-15.5029Q56.543-13.8184 56.543-11.0352Q56.543-8.30078 58.374-6.61621Q60.2051-4.93164 63.1348-4.93164Z"/>
  </g>
  <g id="Bold-L" transform="matrix(1 0 0 1 2262.85 1556)">
   <path d="M77.0996 30.6152Q87.9395 30.6152 97.7783 27.2461Q107.617 23.877 115.869 17.8223Q124.121 11.7676 130.176 3.51562Q136.23-4.73633 139.6-14.5752Q142.969-24.4141 142.969-35.2539Q142.969-46.0938 139.6-55.9326Q136.23-65.7715 130.151-73.999Q124.072-82.2266 115.845-88.3057Q107.617-94.3848 97.7539-97.7295Q87.8906-101.074 77.0508-101.074Q66.2598-101.074 56.3965-97.7295Q46.5332-94.3848 38.3301-88.3057Q30.127-82.2266 24.0479-73.999Q17.9688-65.7715 14.624-55.9326Q11.2793-46.0938 11.2793-35.2539Q11.2793-24.4141 14.624-14.5752Q17.9688-4.73633 24.0479 3.51562Q30.127 11.7676 38.3545 17.8223Q46.582 23.877 56.4209 27.2461Q66.2598 30.6152 77.0996 30.6152ZM77.0996 15.8203Q68.6523 15.8203 60.9863 13.2568Q53.3203 10.6934 46.9482 6.00586Q40.5762 1.31836 35.8887-5.07812Q31.2012-11.4746 28.6377-19.1162Q26.0742-26.7578 26.0742-35.2539Q26.0742-43.75 28.6377-51.416Q31.2012-59.082 35.8887-65.4541Q40.5762-71.8262 46.9238-76.4893Q53.2715-81.1523 60.9375-83.7158Q68.6035-86.2793 77.0508-86.2793Q85.5469-86.2793 93.2129-83.7158Q100.879-81.1523 107.275-76.4893Q113.672-71.8262 118.335-65.4541Q122.998-59.082 125.586-51.416Q128.174-43.75 128.174-35.2539Q128.174-26.7578 125.61-19.1162Q123.047-11.4746 118.359-5.07812Q113.672 1.31836 107.3 6.00586Q100.928 10.6934 93.2617 13.2568Q85.5957 15.8203 77.0996 15.8203ZM45.5566-47.0703L108.74-47.0703Q111.328-47.0703 112.915-48.5352Q114.502-50 114.502-52.3926Q114.502-54.7852 112.915-56.25Q111.328-57.7148 108.74-57.7148L45.5566-57.7148Q42.9688-57.7148 41.3818-56.25Q39.7949-54.7852 39.7949-52.3926Q39.7949-50 41.3818-48.5352Q42.9688-47.0703 45.5566-47.0703ZM53.5645-26.3184L100.781-26.3184Q103.271-26.3184 104.883-27.8076Q106.494-29.2969 106.494-31.6406Q106.494-34.0332 104.883-35.5225Q103.271-37.0117 100.781-37.0117L53.5645-37.0117Q51.0254-37.0117 49.4141-35.5225Q47.8027-34.0332 47.8027-31.6406Q47.8027-29.2969 49.4141-27.8076Q51.0254-26.3184 53.5645-26.3184ZM61.8164-5.56641L92.5293-5.56641Q95.0195-5.56641 96.6309-7.03125Q98.2422-8.49609 98.2422-10.8887Q98.2422-13.2812 96.6309-14.7705Q95.0195-16.2598 92.5293-16.2598L61.8164-16.2598Q59.2773-16.2598 57.6904-14.7705Q56.1035-13.2812 56.1035-10.8887Q56.1035-8.49609 57.6904-7.03125Q59.2773-5.56641 61.8164-5.56641Z"/>
  </g>
  <g id="Semibold-L" transform="matrix(1 0 0 1 1966.97 1556)">
   <path d="M76.2695 29.7852Q86.9629 29.7852 96.6797 26.4648Q106.396 23.1445 114.551 17.1631Q122.705 11.1816 128.687 3.02734Q134.668-5.12695 137.988-14.8438Q141.309-24.5605 141.309-35.2539Q141.309-45.9473 137.988-55.6641Q134.668-65.3809 128.662-73.5107Q122.656-81.6406 114.526-87.6465Q106.396-93.6523 96.6553-96.9727Q86.9141-100.293 76.2207-100.293Q65.5273-100.293 55.8105-96.9727Q46.0938-93.6523 37.9883-87.6465Q29.8828-81.6406 23.877-73.5107Q17.8711-65.3809 14.5752-55.6641Q11.2793-45.9473 11.2793-35.2539Q11.2793-24.5605 14.5996-14.8438Q17.9199-5.12695 23.9014 3.02734Q29.8828 11.1816 38.0127 17.1631Q46.1426 23.1445 55.8594 26.4648Q65.5762 29.7852 76.2695 29.7852ZM76.2695 17.041Q67.627 17.041 59.7656 14.4043Q51.9043 11.7676 45.3857 6.98242Q38.8672 2.19727 34.0576-4.3457Q29.248-10.8887 26.6357-18.7256Q24.0234-26.5625 24.0234-35.2539Q24.0234-43.9453 26.6357-51.8066Q29.248-59.668 34.0332-66.1865Q38.8184-72.7051 45.3369-77.4902Q51.8555-82.2754 59.7168-84.9121Q67.5781-87.5488 76.2207-87.5488Q84.9609-87.5488 92.7979-84.9121Q100.635-82.2754 107.178-77.4902Q113.721-72.7051 118.506-66.1865Q123.291-59.668 125.928-51.8066Q128.564-43.9453 128.564-35.2539Q128.613-26.5625 126.001-18.7256Q123.389-10.8887 118.579-4.3457Q113.77 2.19727 107.227 6.98242Q100.684 11.7676 92.8467 14.4043Q85.0098 17.041 76.2695 17.041ZM43.5547-47.6074L109.033-47.6074Q111.328-47.6074 112.769-48.9258Q114.209-50.2441 114.209-52.3926Q114.209-54.541 112.769-55.8594Q111.328-57.1777 109.033-57.1777L43.5547-57.1777Q41.2598-57.1777 39.8438-55.8594Q38.4277-54.541 38.4277-52.3926Q38.4277-50.2441 39.8438-48.9258Q41.2598-47.6074 43.5547-47.6074ZM52.0508-26.8555L100.586-26.8555Q102.832-26.8555 104.272-28.1738Q105.713-29.4922 105.713-31.6406Q105.713-33.7891 104.272-35.1074Q102.832-36.4258 100.586-36.4258L52.0508-36.4258Q49.7559-36.4258 48.3154-35.1074Q46.875-33.7891 46.875-31.6406Q46.875-29.4922 48.3154-28.1738Q49.7559-26.8555 52.0508-26.8555ZM60.8398-6.05469L91.8457-6.05469Q94.043-6.05469 95.4834-7.37305Q96.9238-8.69141 96.9238-10.8398Q96.9238-12.9883 95.4834-14.3066Q94.043-15.625 91.8457-15.625L60.8398-15.625Q58.5449-15.625 57.1289-14.3066Q55.7129-12.9883 55.7129-10.8398Q55.7129-8.69141 57.1289-7.37305Q58.5449-6.05469 60.8398-6.05469Z"/>
  </g>
  <g id="Medium-L" transform="matrix(1 0 0 1 1670.87 1556)">
   <path d="M75.6836 29.1504Q86.2305 29.1504 95.8496 25.8545Q105.469 22.5586 113.55 16.626Q121.631 10.6934 127.563 2.63672Q133.496-5.41992 136.792-15.0635Q140.088-24.707 140.088-35.2539Q140.088-45.8496 136.792-55.4688Q133.496-65.0879 127.539-73.1445Q121.582-81.2012 113.525-87.1582Q105.469-93.1152 95.8252-96.3867Q86.1816-99.6582 75.6348-99.6582Q65.0391-99.6582 55.4199-96.3867Q45.8008-93.1152 37.7441-87.1582Q29.6875-81.2012 23.7549-73.1445Q17.8223-65.0879 14.5508-55.4688Q11.2793-45.8496 11.2793-35.2539Q11.2793-24.707 14.5508-15.0635Q17.8223-5.41992 23.7549 2.63672Q29.6875 10.6934 37.7686 16.626Q45.8496 22.5586 55.4688 25.8545Q65.0879 29.1504 75.6836 29.1504ZM75.6836 18.0176Q66.8457 18.0176 58.8379 15.332Q50.8301 12.6465 44.2139 7.76367Q37.5977 2.88086 32.6904-3.78418Q27.7832-10.4492 25.1221-18.4326Q22.4609-26.416 22.4609-35.2539Q22.4609-44.1406 25.1221-52.124Q27.7832-60.1074 32.666-66.748Q37.5488-73.3887 44.165-78.2715Q50.7812-83.1543 58.7891-85.8154Q66.7969-88.4766 75.6348-88.4766Q84.4727-88.4766 92.4805-85.8154Q100.488-83.1543 107.129-78.2715Q113.77-73.3887 118.652-66.748Q123.535-60.1074 126.221-52.124Q128.906-44.1406 128.906-35.2539Q128.955-26.416 126.294-18.4326Q123.633-10.4492 118.726-3.78418Q113.818 2.88086 107.178 7.76367Q100.537 12.6465 92.5293 15.332Q84.5215 18.0176 75.6836 18.0176ZM42.0898-47.998L109.277-47.998Q111.377-47.998 112.671-49.2188Q113.965-50.4395 113.965-52.3926Q113.965-54.3457 112.671-55.5664Q111.377-56.7871 109.277-56.7871L42.0898-56.7871Q39.9902-56.7871 38.6963-55.5664Q37.4023-54.3457 37.4023-52.3926Q37.4023-50.4395 38.6963-49.2188Q39.9902-47.998 42.0898-47.998ZM50.9277-27.1973L100.488-27.1973Q102.49-27.1973 103.833-28.418Q105.176-29.6387 105.176-31.5918Q105.176-33.5449 103.833-34.7412Q102.49-35.9375 100.488-35.9375L50.9277-35.9375Q48.8281-35.9375 47.5342-34.7412Q46.2402-33.5449 46.2402-31.5918Q46.2402-29.6387 47.5342-28.418Q48.8281-27.1973 50.9277-27.1973ZM60.1074-6.34766L91.3086-6.34766Q93.3594-6.34766 94.6533-7.54395Q95.9473-8.74023 95.9473-10.7422Q95.9473-12.6953 94.6533-13.8916Q93.3594-15.0879 91.3086-15.0879L60.1074-15.0879Q58.0566-15.0879 56.7383-13.8916Q55.4199-12.6953 55.4199-10.7422Q55.4199-8.74023 56.7383-7.54395Q58.0566-6.34766 60.1074-6.34766Z"/>
  </g>
  <g id="Regular-L" transform="matrix(1 0 0 1 1374.97 1556)">
   <path d="M74.8535 28.3203Q85.3027 28.3203 94.7998 25.0732Q104.297 21.8262 112.256 15.9668Q120.215 10.1074 126.099 2.14844Q131.982-5.81055 135.229-15.332Q138.477-24.8535 138.477-35.2539Q138.477-45.7031 135.229-55.2002Q131.982-64.6973 126.099-72.6562Q120.215-80.6152 112.256-86.499Q104.297-92.3828 94.7754-95.6299Q85.2539-98.877 74.8047-98.877Q64.3555-98.877 54.8584-95.6299Q45.3613-92.3828 37.4268-86.499Q29.4922-80.6152 23.6084-72.6562Q17.7246-64.6973 14.502-55.2002Q11.2793-45.7031 11.2793-35.2539Q11.2793-24.8535 14.5264-15.332Q17.7734-5.81055 23.6328 2.14844Q29.4922 10.1074 37.4512 15.9668Q45.4102 21.8262 54.9072 25.0732Q64.4043 28.3203 74.8535 28.3203ZM74.8535 19.2383Q65.8203 19.2383 57.6416 16.4795Q49.4629 13.7207 42.6758 8.74023Q35.8887 3.75977 30.8838-3.05176Q25.8789-9.86328 23.1445-18.042Q20.4102-26.2207 20.4102-35.2539Q20.4102-44.3359 23.1445-52.5146Q25.8789-60.6934 30.8594-67.5049Q35.8398-74.3164 42.627-79.2969Q49.4141-84.2773 57.5928-87.0117Q65.7715-89.7461 74.8047-89.7461Q83.8867-89.7461 92.0654-87.0117Q100.244-84.2773 107.056-79.2969Q113.867-74.3164 118.848-67.5049Q123.828-60.6934 126.587-52.5146Q129.346-44.3359 129.346-35.2539Q129.395-26.2207 126.66-18.042Q123.926-9.86328 118.921-3.05176Q113.916 3.75977 107.104 8.74023Q100.293 13.7207 92.1143 16.4795Q83.9355 19.2383 74.8535 19.2383ZM40.1855-48.5352L109.619-48.5352Q111.426-48.5352 112.573-49.585Q113.721-50.6348 113.721-52.3438Q113.721-54.0527 112.573-55.127Q111.426-56.2012 109.619-56.2012L40.1855-56.2012Q38.3789-56.2012 37.2314-55.127Q36.084-54.0527 36.084-52.3438Q36.084-50.6348 37.2314-49.585Q38.3789-48.5352 40.1855-48.5352ZM49.4629-27.6855L100.342-27.6855Q102.1-27.6855 103.271-28.7598Q104.443-29.834 104.443-31.543Q104.443-33.252 103.271-34.3018Q102.1-35.3516 100.342-35.3516L49.4629-35.3516Q47.6562-35.3516 46.5088-34.3018Q45.3613-33.252 45.3613-31.543Q45.3613-29.834 46.5088-28.7598Q47.6562-27.6855 49.4629-27.6855ZM59.1797-6.78711L90.6738-6.78711Q92.4316-6.78711 93.5791-7.83691Q94.7266-8.88672 94.7266-10.6445Q94.7266-12.3535 93.5791-13.4033Q92.4316-14.4531 90.6738-14.4531L59.1797-14.4531Q57.373-14.4531 56.2256-13.4033Q55.0781-12.3535 55.0781-10.6445Q55.0781-8.88672 56.2256-7.83691Q57.373-6.78711 59.1797-6.78711Z"/>
  </g>
  <g id="Light-L" transform="matrix(1 0 0 1 1079.18 1556)">
   <path d="M73.9258 27.3926Q84.2285 27.3926 93.6035 24.1943Q102.979 20.9961 110.815 15.2344Q118.652 9.47266 124.438 1.63574Q130.225-6.20117 133.423-15.5762Q136.621-24.9512 136.621-35.2539Q136.621-45.5566 133.423-54.9316Q130.225-64.3066 124.438-72.1436Q118.652-79.9805 110.815-85.7666Q102.979-91.5527 93.6035-94.751Q84.2285-97.9492 73.877-97.9492Q63.5742-97.9492 54.2236-94.751Q44.873-91.5527 37.0361-85.7666Q29.1992-79.9805 23.4131-72.1436Q17.627-64.3066 14.4531-54.9316Q11.2793-45.5566 11.2793-35.2539Q11.2793-24.9512 14.4775-15.5762Q17.6758-6.20117 23.4375 1.63574Q29.1992 9.47266 37.0361 15.2344Q44.873 20.9961 54.248 24.1943Q63.623 27.3926 73.9258 27.3926ZM73.9258 20.5078Q64.6973 20.5078 56.3232 17.6758Q47.9492 14.8438 40.9912 9.74121Q34.0332 4.63867 28.9307-2.31934Q23.8281-9.27734 21.0205-17.6514Q18.2129-26.0254 18.2129-35.2539Q18.2129-44.5312 21.0205-52.8809Q23.8281-61.2305 28.9307-68.2129Q34.0332-75.1953 40.9912-80.2979Q47.9492-85.4004 56.2988-88.208Q64.6484-91.0156 73.877-91.0156Q83.1543-91.0156 91.5283-88.208Q99.9023-85.4004 106.86-80.2979Q113.818-75.1953 118.945-68.2129Q124.072-61.2305 126.88-52.8809Q129.688-44.5312 129.688-35.2539Q129.736-26.0254 126.929-17.6514Q124.121-9.27734 118.994-2.31934Q113.867 4.63867 106.909 9.74121Q99.9512 14.8438 91.5771 17.6758Q83.2031 20.5078 73.9258 20.5078ZM38.7695-49.707L109.229-49.707Q110.596-49.707 111.499-50.5127Q112.402-51.3184 112.402-52.6855Q112.402-54.0039 111.499-54.8584Q110.596-55.7129 109.229-55.7129L38.7695-55.7129Q37.4023-55.7129 36.499-54.8584Q35.5957-54.0039 35.5957-52.6855Q35.5957-51.3184 36.499-50.5127Q37.4023-49.707 38.7695-49.707ZM47.998-28.9062L100-28.9062Q101.367-28.9062 102.271-29.7363Q103.174-30.5664 103.174-31.9336Q103.174-33.252 102.271-34.082Q101.367-34.9121 100-34.9121L47.998-34.9121Q46.582-34.9121 45.6787-34.082Q44.7754-33.252 44.7754-31.9336Q44.7754-30.5664 45.6787-29.7363Q46.582-28.9062 47.998-28.9062ZM57.6172-8.00781L90.3809-8.00781Q91.748-8.00781 92.6514-8.83789Q93.5547-9.66797 93.5547-11.0352Q93.5547-12.3535 92.6514-13.1836Q91.748-14.0137 90.3809-14.0137L57.6172-14.0137Q56.25-14.0137 55.3467-13.1836Q54.4434-12.3535 54.4434-11.0352Q54.4434-9.66797 55.3467-8.83789Q56.25-8.00781 57.6172-8.00781Z"/>
  </g>
  <g id="Thin-L" transform="matrix(1 0 0 1 783.693 1556)">
   <path d="M72.7051 26.1719Q82.8613 26.1719 92.041 23.0469Q101.221 19.9219 108.911 14.2822Q116.602 8.64258 122.266 0.952148Q127.93-6.73828 131.055-15.9424Q134.18-25.1465 134.18-35.2539Q134.18-45.4102 131.055-54.5898Q127.93-63.7695 122.29-71.46Q116.65-79.1504 108.936-84.8145Q101.221-90.4785 92.0166-93.6035Q82.8125-96.7285 72.7051-96.7285Q62.5488-96.7285 53.3691-93.6035Q44.1895-90.4785 36.499-84.8145Q28.8086-79.1504 23.1689-71.46Q17.5293-63.7695 14.4043-54.5898Q11.2793-45.4102 11.2793-35.2539Q11.2793-25.1465 14.4043-15.9424Q17.5293-6.73828 23.1689 0.952148Q28.8086 8.64258 36.5234 14.2822Q44.2383 19.9219 53.418 23.0469Q62.5977 26.1719 72.7051 26.1719ZM72.7051 22.168Q63.2324 22.168 54.6143 19.2627Q45.9961 16.3574 38.8184 11.084Q31.6406 5.81055 26.3428-1.36719Q21.0449-8.54492 18.1641-17.1631Q15.2832-25.7812 15.2832-35.2539Q15.2832-44.7754 18.1641-53.3936Q21.0449-62.0117 26.3428-69.1895Q31.6406-76.3672 38.8184-81.6406Q45.9961-86.9141 54.5898-89.8193Q63.1836-92.7246 72.7051-92.7246Q82.2266-92.7246 90.8203-89.8193Q99.4141-86.9141 106.616-81.6406Q113.818-76.3672 119.092-69.1895Q124.365-62.0117 127.271-53.3936Q130.176-44.7754 130.176-35.2539Q130.176-25.7812 127.271-17.1631Q124.365-8.54492 119.092-1.36719Q113.818 5.81055 106.641 11.084Q99.4629 16.3574 90.8447 19.2627Q82.2266 22.168 72.7051 22.168ZM36.9141-51.2207L108.643-51.2207Q109.424-51.2207 110.01-51.7334Q110.596-52.2461 110.596-53.0762Q110.596-53.9551 110.01-54.4678Q109.424-54.9805 108.643-54.9805L36.9141-54.9805Q36.0352-54.9805 35.4736-54.4678Q34.9121-53.9551 34.9121-53.0762Q34.9121-52.2461 35.4736-51.7334Q36.0352-51.2207 36.9141-51.2207ZM46.0449-30.4688L99.5117-30.4688Q100.342-30.4688 100.903-31.0059Q101.465-31.543 101.465-32.4219Q101.465-33.252 100.903-33.7646Q100.342-34.2773 99.5117-34.2773L46.0449-34.2773Q45.166-34.2773 44.5801-33.7646Q43.9941-33.252 43.9941-32.4219Q43.9941-31.543 44.5801-31.0059Q45.166-30.4688 46.0449-30.4688ZM55.5664-9.57031L89.9902-9.57031Q90.8203-9.57031 91.3818-10.1074Q91.9434-10.6445 91.9434-11.5234Q91.9434-12.3535 91.3818-12.8662Q90.8203-13.3789 89.9902-13.3789L55.5664-13.3789Q54.6875-13.3789 54.126-12.8662Q53.5645-12.3535 53.5645-11.5234Q53.5645-10.6445 54.126-10.1074Q54.6875-9.57031 55.5664-9.57031Z"/>
  </g>
  <g id="Ultralight-L" transform="matrix(1 0 0 1 487.592 1556)">
   <path d="M72.0703 25.5371Q82.1289 25.5371 91.2354 22.4609Q100.342 19.3848 107.935 13.7939Q115.527 8.20312 121.143 0.585938Q126.758-7.03125 129.858-16.1133Q132.959-25.1953 132.959-35.2539Q132.959-45.3125 129.858-54.4189Q126.758-63.5254 121.167-71.1182Q115.576-78.7109 107.959-84.3262Q100.342-89.9414 91.2354-93.0176Q82.1289-96.0938 72.0703-96.0938Q62.0605-96.0938 52.9541-93.0176Q43.8477-89.9414 36.2305-84.3262Q28.6133-78.7109 23.0225-71.1182Q17.4316-63.5254 14.3555-54.4189Q11.2793-45.3125 11.2793-35.2539Q11.2793-25.1953 14.3555-16.1133Q17.4316-7.03125 23.0225 0.585938Q28.6133 8.20312 36.2305 13.7939Q43.8477 19.3848 52.9541 22.4609Q62.0605 25.5371 72.0703 25.5371ZM72.0703 23.0469Q62.4512 23.0469 53.7109 20.0928Q44.9707 17.1387 37.6709 11.792Q30.3711 6.44531 25.0244-0.854492Q19.6777-8.1543 16.7236-16.8945Q13.7695-25.6348 13.7695-35.2539Q13.7695-44.9219 16.7236-53.6377Q19.6777-62.3535 25.0244-69.6533Q30.3711-76.9531 37.6953-82.3242Q45.0195-87.6953 53.7354-90.6494Q62.4512-93.6035 72.0703-93.6035Q81.7383-93.6035 90.4785-90.6494Q99.2188-87.6953 106.494-82.3242Q113.77-76.9531 119.141-69.6533Q124.512-62.3535 127.466-53.6377Q130.42-44.9219 130.42-35.2539Q130.371-25.6348 127.441-16.8945Q124.512-8.1543 119.141-0.854492Q113.77 6.44531 106.494 11.792Q99.2188 17.1387 90.4785 20.0928Q81.7383 23.0469 72.0703 23.0469ZM35.9375-52.002L108.35-52.002Q108.887-52.002 109.277-52.3682Q109.668-52.7344 109.668-53.3203Q109.668-53.9062 109.277-54.2969Q108.887-54.6875 108.35-54.6875L35.9375-54.6875Q35.3516-54.6875 34.9609-54.2969Q34.5703-53.9062 34.5703-53.3203Q34.5703-52.7344 34.9609-52.3682Q35.3516-52.002 35.9375-52.002ZM45.0195-31.3477L99.2676-31.3477Q99.8047-31.3477 100.195-31.7139Q100.586-32.0801 100.586-32.666Q100.586-33.252 100.195-33.6182Q99.8047-33.9844 99.2676-33.9844L45.0195-33.9844Q44.4336-33.9844 44.0186-33.6182Q43.6035-33.252 43.6035-32.666Q43.6035-32.0801 44.0186-31.7139Q44.4336-31.3477 45.0195-31.3477ZM54.4922-10.4492L89.7949-10.4492Q90.332-10.4492 90.7227-10.8154Q91.1133-11.1816 91.1133-11.7676Q91.1133-12.3535 90.7227-12.7197Q90.332-13.0859 89.7949-13.0859L54.4922-13.0859Q53.9062-13.0859 53.5156-12.7197Q53.125-12.3535 53.125-11.7676Q53.125-11.1816 53.5156-10.8154Q53.9062-10.4492 54.4922-10.4492Z"/>
  </g>
  <g id="Black-M" transform="matrix(1 0 0 1 2871.32 1126)">
   <path d="M62.0605 18.1152Q73.0957 18.1152 82.7637 13.9648Q92.4316 9.81445 99.7559 2.46582Q107.08-4.88281 111.255-14.5264Q115.43-24.1699 115.43-35.2051Q115.43-46.2402 111.255-55.8838Q107.08-65.5273 99.7559-72.876Q92.4316-80.2246 82.7637-84.375Q73.0957-88.5254 62.0605-88.5254Q51.0742-88.5254 41.4062-84.375Q31.7383-80.2246 24.3896-72.876Q17.041-65.5273 12.8906-55.8838Q8.74023-46.2402 8.74023-35.2051Q8.74023-24.1699 12.8906-14.5264Q17.041-4.88281 24.3896 2.46582Q31.7383 9.81445 41.4062 13.9648Q51.0742 18.1152 62.0605 18.1152ZM62.0605 0.732422Q54.6387 0.732422 48.1201-2.05078Q41.6016-4.83398 36.6455-9.76562Q31.6895-14.6973 28.9062-21.2158Q26.123-27.7344 26.123-35.2051Q26.123-42.6758 28.9062-49.1943Q31.6895-55.7129 36.6455-60.6445Q41.6016-65.5762 48.1201-68.3594Q54.6387-71.1426 62.0605-71.1426Q69.5312-71.1426 76.0498-68.3594Q82.5684-65.5762 87.5-60.6445Q92.4316-55.7129 95.2393-49.1943Q98.0469-42.6758 98.0469-35.2051Q98.0469-27.7344 95.2393-21.2158Q92.4316-14.6973 87.5-9.76562Q82.5684-4.83398 76.0498-2.05078Q69.5312 0.732422 62.0605 0.732422ZM41.0645-43.0664L83.0566-43.0664Q85.791-43.0664 87.4756-44.6045Q89.1602-46.1426 89.1602-48.6816Q89.1602-51.2207 87.4756-52.7588Q85.791-54.2969 83.0566-54.2969L41.0645-54.2969Q38.3789-54.2969 36.6943-52.7588Q35.0098-51.2207 35.0098-48.6816Q35.0098-46.1426 36.6943-44.6045Q38.3789-43.0664 41.0645-43.0664ZM45.752-27.1484L78.418-27.1484Q81.1035-27.1484 82.7881-28.6865Q84.4727-30.2246 84.4727-32.7637Q84.4727-35.2539 82.7881-36.8164Q81.1035-38.3789 78.418-38.3789L45.752-38.3789Q43.0664-38.3789 41.3818-36.8164Q39.6973-35.2539 39.6973-32.7637Q39.6973-30.2246 41.3818-28.6865Q43.0664-27.1484 45.752-27.1484ZM50.4395-11.2305L73.7305-11.2305Q76.416-11.2305 78.1006-12.7686Q79.7852-14.3066 79.7852-16.8457Q79.7852-19.3359 78.1006-20.8984Q76.416-22.4609 73.7305-22.4609L50.4395-22.4609Q47.7539-22.4609 46.0693-20.8984Q44.3848-19.3359 44.3848-16.8457Q44.3848-14.3066 46.0693-12.7686Q47.7539-11.2305 50.4395-11.2305Z"/>
  </g>
  <g id="Heavy-M" transform="matrix(1 0 0 1 2575.43 1126)">
   <path d="M61.2305 17.2852Q72.0703 17.2852 81.5918 13.1836Q91.1133 9.08203 98.3154 1.85547Q105.518-5.37109 109.644-14.8682Q113.77-24.3652 113.77-35.2051Q113.77-46.0449 109.644-55.542Q105.518-65.0391 98.3154-72.29Q91.1133-79.541 81.5918-83.6182Q72.0703-87.6953 61.2305-87.6953Q50.4395-87.6953 40.918-83.6182Q31.3965-79.541 24.1699-72.29Q16.9434-65.0391 12.8418-55.542Q8.74023-46.0449 8.74023-35.2051Q8.74023-24.3652 12.8418-14.8682Q16.9434-5.37109 24.1699 1.85547Q31.3965 9.08203 40.918 13.1836Q50.4395 17.2852 61.2305 17.2852ZM61.2305 2.05078Q53.5156 2.05078 46.7529-0.854492Q39.9902-3.75977 34.8633-8.8623Q29.7363-13.9648 26.8555-20.7275Q23.9746-27.4902 23.9746-35.2051Q23.9746-42.9688 26.8555-49.7314Q29.7363-56.4941 34.8633-61.5967Q39.9902-66.6992 46.7529-69.5801Q53.5156-72.4609 61.2305-72.4609Q68.9453-72.4609 75.708-69.5801Q82.4707-66.6992 87.5977-61.5967Q92.7246-56.4941 95.6299-49.7314Q98.5352-42.9688 98.5352-35.2051Q98.5352-27.4902 95.6299-20.7275Q92.7246-13.9648 87.6221-8.8623Q82.5195-3.75977 75.7568-0.854492Q68.9941 2.05078 61.2305 2.05078ZM38.916-43.5059L83.5449-43.5059Q86.0352-43.5059 87.5488-44.8975Q89.0625-46.2891 89.0625-48.584Q89.0625-50.8789 87.5488-52.2949Q86.0352-53.7109 83.5449-53.7109L38.916-53.7109Q36.4746-53.7109 34.9365-52.2949Q33.3984-50.8789 33.3984-48.584Q33.3984-46.2891 34.9365-44.8975Q36.4746-43.5059 38.916-43.5059ZM44.1895-27.5391L78.2715-27.5391Q80.7129-27.5391 82.251-28.9307Q83.7891-30.3223 83.7891-32.6172Q83.7891-34.8633 82.251-36.3037Q80.7129-37.7441 78.2715-37.7441L44.1895-37.7441Q41.748-37.7441 40.21-36.3037Q38.6719-34.8633 38.6719-32.6172Q38.6719-30.3223 40.21-28.9307Q41.748-27.5391 44.1895-27.5391ZM49.5605-11.5234L72.9492-11.5234Q75.3906-11.5234 76.9043-12.915Q78.418-14.3066 78.418-16.6504Q78.418-18.8965 76.9043-20.3125Q75.3906-21.7285 72.9492-21.7285L49.5605-21.7285Q47.1191-21.7285 45.5811-20.3125Q44.043-18.8965 44.043-16.6504Q44.043-14.3066 45.5811-12.915Q47.1191-11.5234 49.5605-11.5234Z"/>
  </g>
  <g id="Bold-M" transform="matrix(1 0 0 1 2279.65 1126)">
   <path d="M60.3027 16.3574Q70.9473 16.3574 80.2734 12.3291Q89.5996 8.30078 96.7041 1.17188Q103.809-5.95703 107.861-15.2832Q111.914-24.6094 111.914-35.2539Q111.914-45.8496 107.861-55.1758Q103.809-64.502 96.7041-71.6309Q89.5996-78.7598 80.249-82.7881Q70.8984-86.8164 60.3027-86.8164Q49.707-86.8164 40.3564-82.7881Q31.0059-78.7598 23.9014-71.6309Q16.7969-64.502 12.7686-55.1758Q8.74023-45.8496 8.74023-35.2539Q8.74023-24.6094 12.7686-15.2832Q16.7969-5.95703 23.9258 1.17188Q31.0547 8.30078 40.3809 12.3291Q49.707 16.3574 60.3027 16.3574ZM60.3027 3.51562Q52.2949 3.51562 45.2637 0.488281Q38.2324-2.53906 32.9102-7.83691Q27.5879-13.1348 24.6094-20.166Q21.6309-27.1973 21.6309-35.2539Q21.6309-43.3105 24.6094-50.3174Q27.5879-57.3242 32.9102-62.6465Q38.2324-67.9688 45.2393-70.9717Q52.2461-73.9746 60.3027-73.9746Q68.3594-73.9746 75.3662-70.9717Q82.373-67.9688 87.6953-62.6465Q93.0176-57.3242 96.0449-50.3174Q99.0723-43.3105 99.0723-35.2539Q99.0723-27.1973 96.0693-20.166Q93.0664-13.1348 87.7441-7.83691Q82.4219-2.53906 75.3906 0.488281Q68.3594 3.51562 60.3027 3.51562ZM36.5234-43.9941L84.1309-43.9941Q86.3281-43.9941 87.6953-45.2393Q89.0625-46.4844 89.0625-48.4863Q89.0625-50.5371 87.6953-51.7822Q86.3281-53.0273 84.1309-53.0273L36.5234-53.0273Q34.375-53.0273 33.0078-51.7822Q31.6406-50.5371 31.6406-48.4863Q31.6406-46.4844 33.0078-45.2393Q34.375-43.9941 36.5234-43.9941ZM42.4805-27.9297L78.2227-27.9297Q80.3711-27.9297 81.7383-29.1748Q83.1055-30.4199 83.1055-32.4707Q83.1055-34.4727 81.7383-35.7422Q80.3711-37.0117 78.2227-37.0117L42.4805-37.0117Q40.332-37.0117 38.9648-35.7422Q37.5977-34.4727 37.5977-32.4707Q37.5977-30.4199 38.9648-29.1748Q40.332-27.9297 42.4805-27.9297ZM48.6328-11.8652L72.1191-11.8652Q74.2676-11.8652 75.6104-13.1104Q76.9531-14.3555 76.9531-16.4062Q76.9531-18.4082 75.6104-19.6777Q74.2676-20.9473 72.1191-20.9473L48.6328-20.9473Q46.4355-20.9473 45.0928-19.6777Q43.75-18.4082 43.75-16.4062Q43.75-14.3555 45.0928-13.1104Q46.4355-11.8652 48.6328-11.8652Z"/>
  </g>
  <g id="Semibold-M" transform="matrix(1 0 0 1 1983.6 1126)">
   <path d="M59.668 15.6738Q70.1172 15.6738 79.3457 11.6943Q88.5742 7.71484 95.6055 0.683594Q102.637-6.34766 106.616-15.5518Q110.596-24.7559 110.596-35.2539Q110.596-45.7031 106.616-54.9072Q102.637-64.1113 95.6055-71.1426Q88.5742-78.1738 79.3457-82.1777Q70.1172-86.1816 59.6191-86.1816Q49.1699-86.1816 39.9658-82.1777Q30.7617-78.1738 23.7305-71.1426Q16.6992-64.1113 12.7197-54.9072Q8.74023-45.7031 8.74023-35.2539Q8.74023-24.7559 12.7197-15.5518Q16.6992-6.34766 23.7305 0.683594Q30.7617 7.71484 39.9902 11.6943Q49.2188 15.6738 59.668 15.6738ZM59.668 4.49219Q51.416 4.49219 44.2139 1.41602Q37.0117-1.66016 31.543-7.10449Q26.0742-12.5488 23.0225-19.751Q19.9707-26.9531 19.9707-35.2539Q19.9707-43.5059 23.0225-50.708Q26.0742-57.9102 31.5186-63.3789Q36.9629-68.8477 44.165-71.8994Q51.3672-74.9512 59.6191-74.9512Q67.9199-74.9512 75.1221-71.8994Q82.3242-68.8477 87.7686-63.3789Q93.2129-57.9102 96.3135-50.708Q99.4141-43.5059 99.4141-35.2539Q99.4141-26.9531 96.3379-19.751Q93.2617-12.5488 87.8174-7.10449Q82.373-1.66016 75.1465 1.41602Q67.9199 4.49219 59.668 4.49219ZM34.8633-44.3359L84.5215-44.3359Q86.4746-44.3359 87.7441-45.4834Q89.0137-46.6309 89.0137-48.4863Q89.0137-50.3418 87.7441-51.4893Q86.4746-52.6367 84.5215-52.6367L34.8633-52.6367Q32.9102-52.6367 31.665-51.4893Q30.4199-50.3418 30.4199-48.4863Q30.4199-46.6309 31.665-45.4834Q32.9102-44.3359 34.8633-44.3359ZM41.3086-28.2715L78.125-28.2715Q80.0781-28.2715 81.3232-29.3945Q82.5684-30.5176 82.5684-32.373Q82.5684-34.2285 81.3232-35.376Q80.0781-36.5234 78.125-36.5234L41.3086-36.5234Q39.3555-36.5234 38.0859-35.376Q36.8164-34.2285 36.8164-32.373Q36.8164-30.5176 38.0859-29.3945Q39.3555-28.2715 41.3086-28.2715ZM47.9492-12.1582L71.4844-12.1582Q73.4375-12.1582 74.6826-13.2812Q75.9277-14.4043 75.9277-16.2598Q75.9277-18.1152 74.6826-19.2627Q73.4375-20.4102 71.4844-20.4102L47.9492-20.4102Q45.9473-20.4102 44.7266-19.2627Q43.5059-18.1152 43.5059-16.2598Q43.5059-14.4043 44.7266-13.2812Q45.9473-12.1582 47.9492-12.1582Z"/>
  </g>
  <g id="Medium-M" transform="matrix(1 0 0 1 1687.38 1126)">
   <path d="M59.1797 15.1855Q69.5312 15.1855 78.6621 11.2305Q87.793 7.27539 94.751 0.317383Q101.709-6.64062 105.664-15.7715Q109.619-24.9023 109.619-35.2539Q109.619-45.6055 105.664-54.7363Q101.709-63.8672 94.751-70.8252Q87.793-77.7832 78.6377-81.7383Q69.4824-85.6934 59.1309-85.6934Q48.7793-85.6934 39.6484-81.7383Q30.5176-77.7832 23.584-70.8252Q16.6504-63.8672 12.6953-54.7363Q8.74023-45.6055 8.74023-35.2539Q8.74023-24.9023 12.6953-15.7715Q16.6504-6.64062 23.6084 0.317383Q30.5664 7.27539 39.6973 11.2305Q48.8281 15.1855 59.1797 15.1855ZM59.1797 5.27344Q50.7324 5.27344 43.4082 2.12402Q36.084-1.02539 30.5176-6.5918Q24.9512-12.1582 21.8262-19.4824Q18.7012-26.8066 18.7012-35.2539Q18.7012-43.7012 21.8262-51.0254Q24.9512-58.3496 30.4932-63.916Q36.0352-69.4824 43.3838-72.6074Q50.7324-75.7324 59.1309-75.7324Q67.5781-75.7324 74.9023-72.6074Q82.2266-69.4824 87.8174-63.916Q93.4082-58.3496 96.5576-51.0254Q99.707-43.7012 99.707-35.2539Q99.707-26.8066 96.582-19.4824Q93.457-12.1582 87.8906-6.5918Q82.3242-1.02539 74.9756 2.12402Q67.627 5.27344 59.1797 5.27344ZM33.6426-44.5801L84.8145-44.5801Q86.6211-44.5801 87.793-45.6543Q88.9648-46.7285 88.9648-48.3887Q88.9648-50.1465 87.793-51.1963Q86.6211-52.2461 84.8145-52.2461L33.6426-52.2461Q31.8359-52.2461 30.6641-51.1963Q29.4922-50.1465 29.4922-48.3887Q29.4922-46.7285 30.6641-45.6543Q31.8359-44.5801 33.6426-44.5801ZM40.3809-28.4668L78.0762-28.4668Q79.8828-28.4668 81.0303-29.5166Q82.1777-30.5664 82.1777-32.2754Q82.1777-34.0332 81.0303-35.083Q79.8828-36.1328 78.0762-36.1328L40.3809-36.1328Q38.5742-36.1328 37.4268-35.083Q36.2793-34.0332 36.2793-32.2754Q36.2793-30.5664 37.4268-29.5166Q38.5742-28.4668 40.3809-28.4668ZM47.4609-12.3047L71.0449-12.3047Q72.8516-12.3047 73.999-13.3789Q75.1465-14.4531 75.1465-16.1133Q75.1465-17.8711 73.999-18.9209Q72.8516-19.9707 71.0449-19.9707L47.4609-19.9707Q45.6055-19.9707 44.458-18.9209Q43.3105-17.8711 43.3105-16.1133Q43.3105-14.4531 44.458-13.3789Q45.6055-12.3047 47.4609-12.3047Z"/>
  </g>
  <g id="Regular-M" transform="matrix(1 0 0 1 1391.3 1126)">
   <path d="M58.5449 14.5508Q68.75 14.5508 77.7588 10.6445Q86.7676 6.73828 93.6523-0.146484Q100.537-7.03125 104.443-16.04Q108.35-25.0488 108.35-35.2539Q108.35-45.459 104.443-54.4678Q100.537-63.4766 93.6523-70.3613Q86.7676-77.2461 77.7344-81.1523Q68.7012-85.0586 58.4961-85.0586Q48.291-85.0586 39.2822-81.1523Q30.2734-77.2461 23.4131-70.3613Q16.5527-63.4766 12.6465-54.4678Q8.74023-45.459 8.74023-35.2539Q8.74023-25.0488 12.6465-16.04Q16.5527-7.03125 23.4375-0.146484Q30.3223 6.73828 39.3311 10.6445Q48.3398 14.5508 58.5449 14.5508ZM58.5449 6.25Q49.9023 6.25 42.3828 3.02734Q34.8633-0.195312 29.1748-5.88379Q23.4863-11.5723 20.2881-19.0918Q17.0898-26.6113 17.0898-35.2539Q17.0898-43.8965 20.2881-51.416Q23.4863-58.9355 29.1504-64.6484Q34.8145-70.3613 42.334-73.5596Q49.8535-76.7578 58.4961-76.7578Q67.1387-76.7578 74.6582-73.5596Q82.1777-70.3613 87.8906-64.6484Q93.6035-58.9355 96.8262-51.416Q100.049-43.8965 100.049-35.2539Q100.049-26.6113 96.8506-19.0918Q93.6523-11.5723 87.9639-5.88379Q82.2754-0.195312 74.7314 3.02734Q67.1875 6.25 58.5449 6.25ZM31.9824-44.9219L85.2051-44.9219Q86.8164-44.9219 87.8662-45.874Q88.916-46.8262 88.916-48.3398Q88.916-49.9023 87.8662-50.8545Q86.8164-51.8066 85.2051-51.8066L31.9824-51.8066Q30.3711-51.8066 29.3213-50.8545Q28.2715-49.9023 28.2715-48.3398Q28.2715-46.8262 29.3213-45.874Q30.3711-44.9219 31.9824-44.9219ZM39.209-28.7598L77.9785-28.7598Q79.5898-28.7598 80.6396-29.6875Q81.6895-30.6152 81.6895-32.1777Q81.6895-33.7402 80.6396-34.6924Q79.5898-35.6445 77.9785-35.6445L39.209-35.6445Q37.5977-35.6445 36.5479-34.6924Q35.498-33.7402 35.498-32.1777Q35.498-30.6152 36.5479-29.6875Q37.5977-28.7598 39.209-28.7598ZM46.7773-12.5488L70.459-12.5488Q72.0703-12.5488 73.0957-13.501Q74.1211-14.4531 74.1211-15.9668Q74.1211-17.5293 73.0957-18.4814Q72.0703-19.4336 70.459-19.4336L46.7773-19.4336Q45.1172-19.4336 44.0918-18.4814Q43.0664-17.5293 43.0664-15.9668Q43.0664-14.4531 44.0918-13.501Q45.1172-12.5488 46.7773-12.5488Z"/>
  </g>
  <g id="Light-M" transform="matrix(1 0 0 1 1095.42 1126)">
   <path d="M57.7148 13.7207Q67.7734 13.7207 76.6357 9.8877Q85.498 6.05469 92.2607-0.708008Q99.0234-7.4707 102.856-16.333Q106.689-25.1953 106.689-35.2539Q106.689-45.3125 102.856-54.1748Q99.0234-63.0371 92.2607-69.7998Q85.498-76.5625 76.6113-80.3955Q67.7246-84.2285 57.666-84.2285Q47.6074-84.2285 38.7451-80.3955Q29.8828-76.5625 23.1445-69.7998Q16.4062-63.0371 12.5732-54.1748Q8.74023-45.3125 8.74023-35.2539Q8.74023-25.1953 12.5732-16.333Q16.4062-7.4707 23.1689-0.708008Q29.9316 6.05469 38.7939 9.8877Q47.6562 13.7207 57.7148 13.7207ZM57.7148 7.37305Q48.877 7.37305 41.1377 4.07715Q33.3984 0.78125 27.5391-5.07812Q21.6797-10.9375 18.3838-18.6768Q15.0879-26.416 15.0879-35.2539Q15.0879-44.0918 18.3838-51.8311Q21.6797-59.5703 27.5391-65.4541Q33.3984-71.3379 41.1133-74.6338Q48.8281-77.9297 57.666-77.9297Q66.5527-77.9297 74.2676-74.6338Q81.9824-71.3379 87.8662-65.4541Q93.75-59.5703 97.0703-51.8311Q100.391-44.0918 100.391-35.2539Q100.391-26.416 97.0703-18.6768Q93.75-10.9375 87.915-5.07812Q82.0801 0.78125 74.3408 4.07715Q66.6016 7.37305 57.7148 7.37305ZM30.7129-45.9473L84.8633-45.9473Q86.084-45.9473 86.9141-46.7041Q87.7441-47.4609 87.7441-48.6328Q87.7441-49.8535 86.9141-50.6104Q86.084-51.3672 84.8633-51.3672L30.7129-51.3672Q29.4922-51.3672 28.6621-50.6104Q27.832-49.8535 27.832-48.6328Q27.832-47.4609 28.6621-46.7041Q29.4922-45.9473 30.7129-45.9473ZM37.8906-29.834L77.6855-29.834Q78.9062-29.834 79.7363-30.5664Q80.5664-31.2988 80.5664-32.5195Q80.5664-33.7402 79.7363-34.4971Q78.9062-35.2539 77.6855-35.2539L37.8906-35.2539Q36.6211-35.2539 35.8154-34.4971Q35.0098-33.7402 35.0098-32.5195Q35.0098-31.2988 35.8154-30.5664Q36.6211-29.834 37.8906-29.834ZM45.3613-13.623L70.2148-13.623Q71.4355-13.623 72.2412-14.3799Q73.0469-15.1367 73.0469-16.3086Q73.0469-17.5293 72.2412-18.2861Q71.4355-19.043 70.2148-19.043L45.3613-19.043Q44.0918-19.043 43.2861-18.2861Q42.4805-17.5293 42.4805-16.3086Q42.4805-15.1367 43.2861-14.3799Q44.0918-13.623 45.3613-13.623Z"/>
  </g>
  <g id="Thin-M" transform="matrix(1 0 0 1 799.782 1126)">
   <path d="M56.5918 12.5977Q66.5039 12.5977 75.1709 8.88672Q83.8379 5.17578 90.4297-1.44043Q97.0215-8.05664 100.781-16.7236Q104.541-25.3906 104.541-35.2539Q104.541-45.1172 100.781-53.7842Q97.0215-62.4512 90.4297-69.0674Q83.8379-75.6836 75.1709-79.3945Q66.5039-83.1055 56.5918-83.1055Q46.7285-83.1055 38.0615-79.3945Q29.3945-75.6836 22.8271-69.0674Q16.2598-62.4512 12.5-53.7842Q8.74023-45.1172 8.74023-35.2539Q8.74023-25.3906 12.4756-16.7236Q16.2109-8.05664 22.8027-1.44043Q29.3945 5.17578 38.0859 8.88672Q46.7773 12.5977 56.5918 12.5977ZM56.5918 8.88672Q47.4609 8.88672 39.4775 5.44434Q31.4941 2.00195 25.415-4.05273Q19.3359-10.1074 15.918-18.1152Q12.5-26.123 12.5-35.2539Q12.5-44.3848 15.918-52.3926Q19.3359-60.4004 25.415-66.4795Q31.4941-72.5586 39.4775-76.001Q47.4609-79.4434 56.5918-79.4434Q65.7715-79.4434 73.7549-76.001Q81.7383-72.5586 87.8174-66.4795Q93.8965-60.4004 97.3389-52.3926Q100.781-44.3848 100.781-35.2539Q100.781-26.123 97.3633-18.1152Q93.9453-10.1074 87.8662-4.05273Q81.7871 2.00195 73.7793 5.44434Q65.7715 8.88672 56.5918 8.88672ZM29.0039-47.2656L84.3262-47.2656Q85.0586-47.2656 85.5713-47.7295Q86.084-48.1934 86.084-48.9746Q86.084-49.7559 85.5713-50.2197Q85.0586-50.6836 84.3262-50.6836L29.0039-50.6836Q28.2227-50.6836 27.71-50.2197Q27.1973-49.7559 27.1973-48.9746Q27.1973-48.1934 27.71-47.7295Q28.2227-47.2656 29.0039-47.2656ZM36.084-31.25L77.1973-31.25Q77.9297-31.25 78.4668-31.6895Q79.0039-32.1289 79.0039-32.9102Q79.0039-33.6914 78.4668-34.1553Q77.9297-34.6191 77.1973-34.6191L36.084-34.6191Q35.3516-34.6191 34.8145-34.1553Q34.2773-33.6914 34.2773-32.9102Q34.2773-32.1289 34.8145-31.6895Q35.3516-31.25 36.084-31.25ZM43.5059-15.0391L69.8242-15.0391Q70.5566-15.0391 71.0693-15.5029Q71.582-15.9668 71.582-16.6992Q71.582-17.5293 71.0693-17.9688Q70.5566-18.4082 69.8242-18.4082L43.5059-18.4082Q42.7246-18.4082 42.2119-17.9688Q41.6992-17.5293 41.6992-16.6992Q41.6992-15.9668 42.2119-15.5029Q42.7246-15.0391 43.5059-15.0391Z"/>
  </g>
  <g id="Ultralight-M" transform="matrix(1 0 0 1 503.632 1126)">
   <path d="M56.0547 12.0605Q65.8203 12.0605 74.3896 8.37402Q82.959 4.6875 89.4775-1.83105Q95.9961-8.34961 99.707-16.9189Q103.418-25.4883 103.418-35.2539Q103.418-45.0195 99.707-53.5889Q95.9961-62.1582 89.4775-68.6768Q82.959-75.1953 74.3896-78.8818Q65.8203-82.5684 56.0547-82.5684Q46.2891-82.5684 37.7197-78.8818Q29.1504-75.1953 22.6562-68.6768Q16.1621-62.1582 12.4512-53.5889Q8.74023-45.0195 8.74023-35.2539Q8.74023-25.4883 12.4268-16.9189Q16.1133-8.34961 22.6318-1.83105Q29.1504 4.6875 37.7197 8.37402Q46.2891 12.0605 56.0547 12.0605ZM56.0547 9.66797Q46.7773 9.66797 38.6475 6.17676Q30.5176 2.68555 24.3164-3.49121Q18.1152-9.66797 14.624-17.8223Q11.1328-25.9766 11.1328-35.2539Q11.1328-44.5312 14.624-52.6855Q18.1152-60.8398 24.3164-67.041Q30.5176-73.2422 38.6475-76.7334Q46.7773-80.2246 56.0547-80.2246Q65.3809-80.2246 73.5107-76.7334Q81.6406-73.2422 87.8174-67.041Q93.9941-60.8398 97.5098-52.6855Q101.025-44.5312 101.025-35.2539Q101.025-25.9766 97.5098-17.8223Q93.9941-9.66797 87.8174-3.49121Q81.6406 2.68555 73.5107 6.17676Q65.3809 9.66797 56.0547 9.66797ZM28.1738-47.9492L84.082-47.9492Q84.5215-47.9492 84.9121-48.291Q85.3027-48.6328 85.3027-49.2188Q85.3027-49.707 84.9121-50.0488Q84.5215-50.3906 84.082-50.3906L28.1738-50.3906Q27.6367-50.3906 27.2705-50.0488Q26.9043-49.707 26.9043-49.2188Q26.9043-48.6328 27.2705-48.291Q27.6367-47.9492 28.1738-47.9492ZM35.2051-31.9824L77.002-31.9824Q77.4902-31.9824 77.8564-32.2998Q78.2227-32.6172 78.2227-33.2031Q78.2227-33.6914 77.8564-34.0332Q77.4902-34.375 77.002-34.375L35.2051-34.375Q34.668-34.375 34.3018-34.0332Q33.9355-33.6914 33.9355-33.2031Q33.9355-32.6172 34.3018-32.2998Q34.668-31.9824 35.2051-31.9824ZM42.5293-15.7715L69.6777-15.7715Q70.166-15.7715 70.5322-16.0889Q70.8984-16.4062 70.8984-16.9922Q70.8984-17.5293 70.5322-17.8467Q70.166-18.1641 69.6777-18.1641L42.5293-18.1641Q42.041-18.1641 41.6748-17.8467Q41.3086-17.5293 41.3086-16.9922Q41.3086-16.4062 41.6748-16.0889Q42.041-15.7715 42.5293-15.7715Z"/>
  </g>
  <g id="Black-S" transform="matrix(1 0 0 1 2884.57 696)">
   <path d="M48.8281 6.78711Q57.5195 6.78711 65.1123 3.51562Q72.7051 0.244141 78.4912-5.54199Q84.2773-11.3281 87.5488-18.9209Q90.8203-26.5137 90.8203-35.2051Q90.8203-43.8965 87.5488-51.4893Q84.2773-59.082 78.4912-64.8682Q72.7051-70.6543 65.1123-73.9258Q57.5195-77.1973 48.8281-77.1973Q40.1367-77.1973 32.5439-73.9258Q24.9512-70.6543 19.165-64.8682Q13.3789-59.082 10.1074-51.4893Q6.83594-43.8965 6.83594-35.2051Q6.83594-26.5137 10.1074-18.9209Q13.3789-11.3281 19.165-5.54199Q24.9512 0.244141 32.5439 3.51562Q40.1367 6.78711 48.8281 6.78711ZM48.8281-7.37305Q43.0664-7.37305 38.0127-9.5459Q32.959-11.7188 29.1504-15.5273Q25.3418-19.3359 23.1689-24.3896Q20.9961-29.4434 20.9961-35.2051Q20.9961-40.9668 23.1689-46.0205Q25.3418-51.0742 29.1504-54.8828Q32.959-58.6914 38.0127-60.8643Q43.0664-63.0371 48.8281-63.0371Q54.5898-63.0371 59.6436-60.8643Q64.6973-58.6914 68.5059-54.8828Q72.3145-51.0742 74.4873-46.0205Q76.6602-40.9668 76.6602-35.2051Q76.6602-29.4434 74.4873-24.3896Q72.3145-19.3359 68.5059-15.5273Q64.6973-11.7188 59.6436-9.5459Q54.5898-7.37305 48.8281-7.37305ZM32.7637-41.3086L64.8926-41.3086Q67.0898-41.3086 68.4326-42.5537Q69.7754-43.7988 69.7754-45.8008Q69.7754-47.8516 68.4326-49.0967Q67.0898-50.3418 64.8926-50.3418L32.7637-50.3418Q30.5664-50.3418 29.2236-49.0967Q27.8809-47.8516 27.8809-45.8008Q27.8809-43.7988 29.2236-42.5537Q30.5664-41.3086 32.7637-41.3086ZM36.2305-28.8574L61.4258-28.8574Q63.5742-28.8574 64.9414-30.1025Q66.3086-31.3477 66.3086-33.3496Q66.3086-35.3516 64.9414-36.6211Q63.5742-37.8906 61.4258-37.8906L36.2305-37.8906Q34.082-37.8906 32.7148-36.6211Q31.3477-35.3516 31.3477-33.3496Q31.3477-31.3477 32.7148-30.1025Q34.082-28.8574 36.2305-28.8574ZM39.6973-16.4062L57.959-16.4062Q60.1074-16.4062 61.4746-17.6514Q62.8418-18.8965 62.8418-20.8984Q62.8418-22.9004 61.4746-24.1699Q60.1074-25.4395 57.959-25.4395L39.6973-25.4395Q37.5488-25.4395 36.1816-24.1699Q34.8145-22.9004 34.8145-20.8984Q34.8145-18.8965 36.1816-17.6514Q37.5488-16.4062 39.6973-16.4062Z"/>
  </g>
  <g id="Heavy-S" transform="matrix(1 0 0 1 2588.47 696)">
   <path d="M48.1934 6.15234Q56.7871 6.15234 64.2578 2.92969Q71.7285-0.292969 77.4414-6.00586Q83.1543-11.7188 86.377-19.1895Q89.5996-26.6602 89.5996-35.2051Q89.5996-43.75 86.377-51.2451Q83.1543-58.7402 77.4414-64.4531Q71.7285-70.166 64.2334-73.3887Q56.7383-76.6113 48.1934-76.6113Q39.6484-76.6113 32.1777-73.3887Q24.707-70.166 18.9941-64.4531Q13.2812-58.7402 10.0586-51.2451Q6.83594-43.75 6.83594-35.2051Q6.83594-26.6602 10.0586-19.1895Q13.2812-11.7188 18.9941-6.00586Q24.707-0.292969 32.2021 2.92969Q39.6973 6.15234 48.1934 6.15234ZM48.1934-6.39648Q42.2363-6.39648 37.0117-8.64258Q31.7871-10.8887 27.8564-14.8438Q23.9258-18.7988 21.6797-24.0234Q19.4336-29.248 19.4336-35.2051Q19.4336-41.1621 21.6553-46.4111Q23.877-51.6602 27.832-55.5908Q31.7871-59.5215 37.0117-61.7676Q42.2363-64.0137 48.1934-64.0137Q54.1992-64.0137 59.4238-61.7676Q64.6484-59.5215 68.5791-55.5908Q72.5098-51.6602 74.7803-46.4111Q77.0508-41.1621 77.0508-35.2051Q77.0508-29.248 74.8047-24.0234Q72.5586-18.7988 68.6035-14.8438Q64.6484-10.8887 59.4238-8.64258Q54.1992-6.39648 48.1934-6.39648ZM31.0547-41.5527L65.3809-41.5527Q67.3828-41.5527 68.6279-42.7002Q69.873-43.8477 69.873-45.7031Q69.873-47.6074 68.6279-48.7549Q67.3828-49.9023 65.3809-49.9023L31.0547-49.9023Q29.0527-49.9023 27.8076-48.7549Q26.5625-47.6074 26.5625-45.7031Q26.5625-43.8477 27.8076-42.7002Q29.0527-41.5527 31.0547-41.5527ZM35.0586-29.0527L61.377-29.0527Q63.3301-29.0527 64.5996-30.2002Q65.8691-31.3477 65.8691-33.2031Q65.8691-35.0586 64.5996-36.2305Q63.3301-37.4023 61.377-37.4023L35.0586-37.4023Q33.1055-37.4023 31.8359-36.2305Q30.5664-35.0586 30.5664-33.2031Q30.5664-31.3477 31.8359-30.2002Q33.1055-29.0527 35.0586-29.0527ZM39.1113-16.5039L57.3242-16.5039Q59.2773-16.5039 60.5469-17.6758Q61.8164-18.8477 61.8164-20.7031Q61.8164-22.5098 60.5469-23.6816Q59.2773-24.8535 57.3242-24.8535L39.1113-24.8535Q37.1094-24.8535 35.8643-23.6816Q34.6191-22.5098 34.6191-20.7031Q34.6191-18.8477 35.8643-17.6758Q37.1094-16.5039 39.1113-16.5039Z"/>
  </g>
  <g id="Bold-S" transform="matrix(1 0 0 1 2292.42 696)">
   <path d="M47.5586 5.46875Q55.957 5.46875 63.3057 2.29492Q70.6543-0.878906 76.2695-6.51855Q81.8848-12.1582 85.083-19.5068Q88.2812-26.8555 88.2812-35.2539Q88.2812-43.6035 85.083-50.9766Q81.8848-58.3496 76.2695-63.9648Q70.6543-69.5801 63.2812-72.7539Q55.9082-75.9277 47.5098-75.9277Q39.1602-75.9277 31.7871-72.7539Q24.4141-69.5801 18.8232-63.9648Q13.2324-58.3496 10.0342-50.9766Q6.83594-43.6035 6.83594-35.2539Q6.83594-26.8555 10.0342-19.5068Q13.2324-12.1582 18.8477-6.51855Q24.4629-0.878906 31.8115 2.29492Q39.1602 5.46875 47.5586 5.46875ZM47.5586-5.32227Q41.3574-5.32227 35.9375-7.6416Q30.5176-9.96094 26.416-14.0625Q22.3145-18.1641 19.9951-23.6084Q17.6758-29.0527 17.6758-35.2539Q17.6758-41.4551 19.9951-46.875Q22.3145-52.2949 26.3916-56.3965Q30.4688-60.498 35.8887-62.8174Q41.3086-65.1367 47.5098-65.1367Q53.7598-65.1367 59.1797-62.8174Q64.5996-60.498 68.7012-56.3965Q72.8027-52.2949 75.1221-46.875Q77.4414-41.4551 77.4414-35.2539Q77.4414-29.0527 75.1221-23.6084Q72.8027-18.1641 68.7256-14.0625Q64.6484-9.96094 59.2041-7.6416Q53.7598-5.32227 47.5586-5.32227ZM29.248-41.7969L65.9668-41.7969Q67.7734-41.7969 68.9209-42.8467Q70.0684-43.8965 70.0684-45.6055Q70.0684-47.3145 68.9209-48.3398Q67.7734-49.3652 65.9668-49.3652L29.248-49.3652Q27.4414-49.3652 26.2939-48.3398Q25.1465-47.3145 25.1465-45.6055Q25.1465-43.8965 26.2939-42.8467Q27.4414-41.7969 29.248-41.7969ZM33.8379-29.248L61.377-29.248Q63.1836-29.248 64.3311-30.2979Q65.4785-31.3477 65.4785-33.0078Q65.4785-34.7168 64.3311-35.7666Q63.1836-36.8164 61.377-36.8164L33.8379-36.8164Q32.0312-36.8164 30.8838-35.7666Q29.7363-34.7168 29.7363-33.0078Q29.7363-31.3477 30.8838-30.2979Q32.0312-29.248 33.8379-29.248ZM38.5254-16.6504L56.6895-16.6504Q58.4473-16.6504 59.5947-17.7002Q60.7422-18.75 60.7422-20.459Q60.7422-22.1191 59.5947-23.1934Q58.4473-24.2676 56.6895-24.2676L38.5254-24.2676Q36.7188-24.2676 35.5957-23.1934Q34.4727-22.1191 34.4727-20.459Q34.4727-18.75 35.5957-17.7002Q36.7188-16.6504 38.5254-16.6504Z"/>
  </g>
  <g id="Semibold-S" transform="matrix(1 0 0 1 1996.2 696)">
   <path d="M47.0703 4.98047Q55.3711 4.98047 62.6465 1.85547Q69.9219-1.26953 75.4639-6.86035Q81.0059-12.4512 84.1553-19.7266Q87.3047-27.002 87.3047-35.2539Q87.3047-43.5059 84.1553-50.7812Q81.0059-58.0566 75.4395-63.623Q69.873-69.1895 62.5977-72.3389Q55.3223-75.4883 47.0215-75.4883Q38.7695-75.4883 31.4941-72.3389Q24.2188-69.1895 18.6768-63.623Q13.1348-58.0566 9.98535-50.7812Q6.83594-43.5059 6.83594-35.2539Q6.83594-27.002 9.98535-19.7266Q13.1348-12.4512 18.7012-6.86035Q24.2676-1.26953 31.543 1.85547Q38.8184 4.98047 47.0703 4.98047ZM47.0703-4.58984Q40.7227-4.58984 35.1562-6.95801Q29.5898-9.32617 25.3906-13.5254Q21.1914-17.7246 18.8232-23.291Q16.4551-28.8574 16.4551-35.2539Q16.4551-41.6016 18.8232-47.168Q21.1914-52.7344 25.3662-56.9336Q29.541-61.1328 35.1074-63.5254Q40.6738-65.918 47.0215-65.918Q53.418-65.918 58.9844-63.5254Q64.5508-61.1328 68.75-56.9336Q72.9492-52.7344 75.3418-47.168Q77.7344-41.6016 77.7344-35.2539Q77.7344-28.8574 75.3662-23.291Q72.998-17.7246 68.7988-13.5254Q64.5996-9.32617 59.0332-6.95801Q53.4668-4.58984 47.0703-4.58984ZM27.8809-41.9922L66.3086-41.9922Q67.9688-41.9922 69.043-42.9688Q70.1172-43.9453 70.1172-45.5078Q70.1172-47.0703 69.043-48.0469Q67.9688-49.0234 66.3086-49.0234L27.8809-49.0234Q26.2207-49.0234 25.1709-48.0469Q24.1211-47.0703 24.1211-45.5078Q24.1211-43.9453 25.1709-42.9688Q26.2207-41.9922 27.8809-41.9922ZM32.9102-29.3457L61.2793-29.3457Q62.9883-29.3457 64.0625-30.3223Q65.1367-31.2988 65.1367-32.8613Q65.1367-34.4727 64.0625-35.4492Q62.9883-36.4258 61.2793-36.4258L32.9102-36.4258Q31.25-36.4258 30.1758-35.4492Q29.1016-34.4727 29.1016-32.8613Q29.1016-31.2988 30.1758-30.3223Q31.25-29.3457 32.9102-29.3457ZM38.0859-16.748L56.1523-16.748Q57.8125-16.748 58.8867-17.7246Q59.9609-18.7012 59.9609-20.2637Q59.9609-21.8262 58.8867-22.8271Q57.8125-23.8281 56.1523-23.8281L38.0859-23.8281Q36.377-23.8281 35.3271-22.8271Q34.2773-21.8262 34.2773-20.2637Q34.2773-18.7012 35.3271-17.7246Q36.377-16.748 38.0859-16.748Z"/>
  </g>
  <g id="Medium-S" transform="matrix(1 0 0 1 1699.83 696)">
   <path d="M46.7285 4.63867Q54.9316 4.63867 62.1338 1.51367Q69.3359-1.61133 74.8535-7.12891Q80.3711-12.6465 83.4961-19.8486Q86.6211-27.0508 86.6211-35.2539Q86.6211-43.4082 83.4961-50.6348Q80.3711-57.8613 74.8291-63.3789Q69.2871-68.8965 62.085-71.9971Q54.8828-75.0977 46.6797-75.0977Q38.4766-75.0977 31.2744-71.9971Q24.0723-68.8965 18.5791-63.3789Q13.0859-57.8613 9.96094-50.6348Q6.83594-43.4082 6.83594-35.2539Q6.83594-27.0508 9.96094-19.8486Q13.0859-12.6465 18.6035-7.12891Q24.1211-1.61133 31.3232 1.51367Q38.5254 4.63867 46.7285 4.63867ZM46.7285-4.00391Q40.2344-4.00391 34.5703-6.4209Q28.9062-8.83789 24.6338-13.1348Q20.3613-17.4316 17.9443-23.0957Q15.5273-28.7598 15.5273-35.2539Q15.5273-41.748 17.9199-47.4121Q20.3125-53.0762 24.585-57.373Q28.8574-61.6699 34.5215-64.0869Q40.1855-66.5039 46.6797-66.5039Q53.1738-66.5039 58.8379-64.0869Q64.502-61.6699 68.7988-57.373Q73.0957-53.0762 75.5127-47.4121Q77.9297-41.748 77.9297-35.2539Q77.9297-28.7598 75.5127-23.0957Q73.0957-17.4316 68.8477-13.1348Q64.5996-8.83789 58.9111-6.4209Q53.2227-4.00391 46.7285-4.00391ZM26.9043-42.0898L66.5527-42.0898Q68.1641-42.0898 69.165-43.0176Q70.166-43.9453 70.166-45.459Q70.166-46.9238 69.165-47.8271Q68.1641-48.7305 66.5527-48.7305L26.9043-48.7305Q25.3418-48.7305 24.3408-47.8271Q23.3398-46.9238 23.3398-45.459Q23.3398-43.9453 24.3408-43.0176Q25.3418-42.0898 26.9043-42.0898ZM32.2266-29.4434L61.2305-29.4434Q62.8418-29.4434 63.8428-30.3711Q64.8438-31.2988 64.8438-32.8125Q64.8438-34.2773 63.8428-35.2051Q62.8418-36.1328 61.2305-36.1328L32.2266-36.1328Q30.6641-36.1328 29.6631-35.2051Q28.6621-34.2773 28.6621-32.8125Q28.6621-31.2988 29.6631-30.3711Q30.6641-29.4434 32.2266-29.4434ZM37.6953-16.7969L55.7617-16.7969Q57.3242-16.7969 58.3252-17.7246Q59.3262-18.6523 59.3262-20.1172Q59.3262-21.6309 58.3252-22.5586Q57.3242-23.4863 55.7617-23.4863L37.6953-23.4863Q36.1328-23.4863 35.1562-22.5586Q34.1797-21.6309 34.1797-20.1172Q34.1797-18.6523 35.1562-17.7246Q36.1328-16.7969 37.6953-16.7969Z"/>
  </g>
  <g id="Regular-S" transform="matrix(1 0 0 1 1403.58 696)">
   <path d="M46.2402 4.15039Q54.3457 4.15039 61.4746 1.07422Q68.6035-2.00195 74.0479-7.4707Q79.4922-12.9395 82.5928-20.0684Q85.6934-27.1973 85.6934-35.2539Q85.6934-43.3105 82.5928-50.4395Q79.4922-57.5684 74.0234-63.0371Q68.5547-68.5059 61.4258-71.582Q54.2969-74.6582 46.1914-74.6582Q38.1348-74.6582 31.0059-71.582Q23.877-68.5059 18.457-63.0371Q13.0371-57.5684 9.93652-50.4395Q6.83594-43.3105 6.83594-35.2539Q6.83594-27.1973 9.93652-20.0684Q13.0371-12.9395 18.4814-7.4707Q23.9258-2.00195 31.0547 1.07422Q38.1836 4.15039 46.2402 4.15039ZM46.2402-3.27148Q39.5996-3.27148 33.8135-5.7373Q28.0273-8.20312 23.6572-12.5977Q19.2871-16.9922 16.8213-22.8027Q14.3555-28.6133 14.3555-35.2539Q14.3555-41.8945 16.7969-47.7051Q19.2383-53.5156 23.6084-57.9102Q27.9785-62.3047 33.7646-64.7705Q39.5508-67.2363 46.1914-67.2363Q52.8809-67.2363 58.667-64.7705Q64.4531-62.3047 68.8477-57.9102Q73.2422-53.5156 75.7324-47.7051Q78.2227-41.8945 78.2227-35.2539Q78.2227-28.6133 75.7568-22.8027Q73.291-16.9922 68.9209-12.5977Q64.5508-8.20312 58.7402-5.7373Q52.9297-3.27148 46.2402-3.27148ZM25.6348-42.2852L66.9434-42.2852Q68.4082-42.2852 69.3359-43.1396Q70.2637-43.9941 70.2637-45.3613Q70.2637-46.7285 69.3359-47.5586Q68.4082-48.3887 66.9434-48.3887L25.6348-48.3887Q24.2188-48.3887 23.291-47.5586Q22.3633-46.7285 22.3633-45.3613Q22.3633-43.9941 23.291-43.1396Q24.2188-42.2852 25.6348-42.2852ZM31.3477-29.5898L61.2305-29.5898Q62.6953-29.5898 63.623-30.4443Q64.5508-31.2988 64.5508-32.666Q64.5508-34.0332 63.623-34.8877Q62.6953-35.7422 61.2305-35.7422L31.3477-35.7422Q29.9316-35.7422 29.0039-34.8877Q28.0762-34.0332 28.0762-32.666Q28.0762-31.2988 29.0039-30.4443Q29.9316-29.5898 31.3477-29.5898ZM37.3047-16.8945L55.3223-16.8945Q56.7383-16.8945 57.666-17.749Q58.5938-18.6035 58.5938-19.9707Q58.5938-21.3379 57.666-22.1924Q56.7383-23.0469 55.3223-23.0469L37.3047-23.0469Q35.8398-23.0469 34.9365-22.1924Q34.0332-21.3379 34.0332-19.9707Q34.0332-18.6035 34.9365-17.749Q35.8398-16.8945 37.3047-16.8945Z"/>
  </g>
  <g id="Light-S" transform="matrix(1 0 0 1 1107.6 696)">
   <path d="M45.5078 3.41797Q53.4668 3.41797 60.4736 0.415039Q67.4805-2.58789 72.8271-7.95898Q78.1738-13.3301 81.2012-20.3125Q84.2285-27.2949 84.2285-35.2539Q84.2285-43.2129 81.2012-50.1953Q78.1738-57.1777 72.8027-62.5488Q67.4316-67.9199 60.4492-70.9229Q53.4668-73.9258 45.459-73.9258Q37.5488-73.9258 30.542-70.9229Q23.5352-67.9199 18.2129-62.5488Q12.8906-57.1777 9.86328-50.1953Q6.83594-43.2129 6.83594-35.2539Q6.83594-27.2949 9.86328-20.3125Q12.8906-13.3301 18.2373-7.95898Q23.584-2.58789 30.5908 0.415039Q37.5977 3.41797 45.5078 3.41797ZM45.5078-2.29492Q38.6719-2.29492 32.6904-4.83398Q26.709-7.37305 22.1924-11.9141Q17.6758-16.4551 15.1367-22.4365Q12.5977-28.418 12.5977-35.2539Q12.5977-42.0898 15.1367-48.0713Q17.6758-54.0527 22.1924-58.5938Q26.709-63.1348 32.666-65.6738Q38.623-68.2129 45.459-68.2129Q52.3438-68.2129 58.3252-65.6738Q64.3066-63.1348 68.8232-58.5938Q73.3398-54.0527 75.9277-48.0713Q78.5156-42.0898 78.5156-35.2539Q78.5156-28.418 75.9521-22.4365Q73.3887-16.4551 68.8721-11.9141Q64.3555-7.37305 58.374-4.83398Q52.3926-2.29492 45.5078-2.29492ZM24.5117-43.2129L66.6016-43.2129Q67.7246-43.2129 68.457-43.8965Q69.1895-44.5801 69.1895-45.6055Q69.1895-46.6797 68.457-47.3389Q67.7246-47.998 66.6016-47.998L24.5117-47.998Q23.4375-47.998 22.7051-47.3389Q21.9727-46.6797 21.9727-45.6055Q21.9727-44.5801 22.7051-43.8965Q23.4375-43.2129 24.5117-43.2129ZM30.1758-30.5664L60.9375-30.5664Q62.1094-30.5664 62.8174-31.2256Q63.5254-31.8848 63.5254-32.959Q63.5254-34.0332 62.8174-34.7168Q62.1094-35.4004 60.9375-35.4004L30.1758-35.4004Q29.0527-35.4004 28.3447-34.7168Q27.6367-34.0332 27.6367-32.959Q27.6367-31.8848 28.3447-31.2256Q29.0527-30.5664 30.1758-30.5664ZM36.084-17.8711L55.0781-17.8711Q56.2012-17.8711 56.9336-18.5303Q57.666-19.1895 57.666-20.2637Q57.666-21.3379 56.9336-22.0215Q56.2012-22.7051 55.0781-22.7051L36.084-22.7051Q34.9121-22.7051 34.2285-22.0215Q33.5449-21.3379 33.5449-20.2637Q33.5449-19.1895 34.2285-18.5303Q34.9121-17.8711 36.084-17.8711Z"/>
  </g>
  <g id="Thin-S" transform="matrix(1 0 0 1 811.867 696)">
   <path d="M44.5312 2.44141Q52.3438 2.44141 59.1553-0.488281Q65.9668-3.41797 71.1914-8.64258Q76.416-13.8672 79.3457-20.6787Q82.2754-27.4902 82.2754-35.2539Q82.2754-43.0176 79.3457-49.8291Q76.416-56.6406 71.1914-61.8652Q65.9668-67.0898 59.1553-70.0195Q52.3438-72.9492 44.5312-72.9492Q36.7676-72.9492 29.9316-70.0195Q23.0957-67.0898 17.9199-61.8652Q12.7441-56.6406 9.79004-49.8291Q6.83594-43.0176 6.83594-35.2539Q6.83594-27.4902 9.79004-20.6787Q12.7441-13.8672 17.9199-8.64258Q23.0957-3.41797 29.9316-0.488281Q36.7676 2.44141 44.5312 2.44141ZM44.5312-0.927734Q37.4512-0.927734 31.2256-3.58887Q25-6.25 20.2881-10.9619Q15.5762-15.6738 12.915-21.9238Q10.2539-28.1738 10.2539-35.2539Q10.2539-42.334 12.915-48.584Q15.5762-54.834 20.2881-59.5459Q25-64.2578 31.2256-66.9189Q37.4512-69.5801 44.5312-69.5801Q51.6602-69.5801 57.8857-66.9189Q64.1113-64.2578 68.8232-59.5459Q73.5352-54.834 76.1963-48.584Q78.8574-42.334 78.8574-35.2539Q78.8574-28.1738 76.1963-21.9238Q73.5352-15.6738 68.8232-10.9619Q64.1113-6.25 57.8857-3.58887Q51.6602-0.927734 44.5312-0.927734ZM23.0469-44.3848L66.1621-44.3848Q66.8457-44.3848 67.3096-44.7998Q67.7734-45.2148 67.7734-45.8984Q67.7734-46.582 67.3096-46.9971Q66.8457-47.4121 66.1621-47.4121L23.0469-47.4121Q22.3633-47.4121 21.8994-46.9971Q21.4355-46.582 21.4355-45.8984Q21.4355-45.2148 21.8994-44.7998Q22.3633-44.3848 23.0469-44.3848ZM28.6133-31.7871L60.5957-31.7871Q61.2793-31.7871 61.7188-32.2266Q62.1582-32.666 62.1582-33.3008Q62.1582-34.0332 61.7188-34.4482Q61.2793-34.8633 60.5957-34.8633L28.6133-34.8633Q27.9297-34.8633 27.4658-34.4482Q27.002-34.0332 27.002-33.3008Q27.002-32.666 27.4658-32.2266Q27.9297-31.7871 28.6133-31.7871ZM34.4238-19.0918L54.7852-19.0918Q55.4688-19.0918 55.9082-19.5312Q56.3477-19.9707 56.3477-20.6055Q56.3477-21.3379 55.9082-21.7529Q55.4688-22.168 54.7852-22.168L34.4238-22.168Q33.7402-22.168 33.2764-21.7529Q32.8125-21.3379 32.8125-20.6055Q32.8125-19.9707 33.2764-19.5312Q33.7402-19.0918 34.4238-19.0918Z"/>
  </g>
  <g id="Ultralight-S" transform="matrix(1 0 0 1 515.644 696)">
   <path d="M44.043 1.95312Q51.7578 1.95312 58.4717-0.927734Q65.1855-3.80859 70.3369-8.95996Q75.4883-14.1113 78.3936-20.8252Q81.2988-27.5391 81.2988-35.2539Q81.2988-42.9688 78.3936-49.6826Q75.4883-56.3965 70.3369-61.5479Q65.1855-66.6992 58.4717-69.5801Q51.7578-72.4609 44.043-72.4609Q36.377-72.4609 29.6387-69.5801Q22.9004-66.6992 17.7734-61.5479Q12.6465-56.3965 9.74121-49.6826Q6.83594-42.9688 6.83594-35.2539Q6.83594-27.5391 9.74121-20.8252Q12.6465-14.1113 17.7734-8.95996Q22.9004-3.80859 29.6387-0.927734Q36.377 1.95312 44.043 1.95312ZM44.043-0.292969Q36.8164-0.292969 30.4688-3.00293Q24.1211-5.71289 19.3115-10.5225Q14.502-15.332 11.7676-21.6797Q9.0332-28.0273 9.0332-35.2539Q9.0332-42.4805 11.7676-48.8281Q14.502-55.1758 19.3115-59.9854Q24.1211-64.7949 30.4688-67.5049Q36.8164-70.2148 44.043-70.2148Q51.2695-70.2148 57.6416-67.5049Q64.0137-64.7949 68.7988-59.9854Q73.584-55.1758 76.3184-48.8281Q79.0527-42.4805 79.0527-35.2539Q79.0527-28.0273 76.3428-21.6797Q73.6328-15.332 68.8232-10.5225Q64.0137-5.71289 57.666-3.00293Q51.3184-0.292969 44.043-0.292969ZM22.2656-45.0195L65.918-45.0195Q66.3574-45.0195 66.6748-45.3369Q66.9922-45.6543 66.9922-46.0938Q66.9922-46.582 66.6748-46.875Q66.3574-47.168 65.918-47.168L22.2656-47.168Q21.7773-47.168 21.46-46.875Q21.1426-46.582 21.1426-46.0938Q21.1426-45.6543 21.46-45.3369Q21.7773-45.0195 22.2656-45.0195ZM27.832-32.4707L60.3516-32.4707Q60.8398-32.4707 61.1572-32.7637Q61.4746-33.0566 61.4746-33.5449Q61.4746-34.0332 61.1572-34.3262Q60.8398-34.6191 60.3516-34.6191L27.832-34.6191Q27.2949-34.6191 26.9775-34.3262Q26.6602-34.0332 26.6602-33.5449Q26.6602-33.0566 26.9775-32.7637Q27.2949-32.4707 27.832-32.4707ZM33.5938-19.7754L54.5898-19.7754Q55.0781-19.7754 55.3955-20.0684Q55.7129-20.3613 55.7129-20.8496Q55.7129-21.3379 55.3955-21.6309Q55.0781-21.9238 54.5898-21.9238L33.5938-21.9238Q33.0566-21.9238 32.7637-21.6309Q32.4707-21.3379 32.4707-20.8496Q32.4707-20.3613 32.7637-20.0684Q33.0566-19.7754 33.5938-19.7754Z"/>
  </g>
 </g>
</svg>
