<svg width="141" height="189" viewBox="0 0 141 189" fill="none" xmlns="http://www.w3.org/2000/svg">
<g id="Illustration">
<g id="Document outline" filter="url(#filter0_d_353_342)">
<path fill-rule="evenodd" clip-rule="evenodd" d="M5.5 94.7608L5.83065 6.99198C5.8348 5.89036 6.72901 4.99951 7.83064 4.99951H117.762V21.4932C117.762 22.5977 118.657 23.4932 119.762 23.4932H135.941V178.445C135.941 180.41 132.922 181.368 131.005 180.936C130.753 180.88 130.497 180.849 130.241 180.849C127.317 180.849 127.584 183.164 125 183.888C122.416 184.611 122.412 180.849 119.644 180.849C116.876 180.849 116.726 183.888 114.091 183.888C111.457 183.888 111.63 180.849 108.75 180.849C105.87 180.849 105.591 183.888 103.062 183.888C100.533 183.888 100.611 180.849 97.6505 180.849C94.6902 180.849 94.7028 183.888 92.0841 183.888C89.4653 183.888 89.6491 180.849 86.8806 180.849C84.1121 180.849 84.2172 183.166 81.5423 183.888C78.8673 184.609 78.3906 180.849 75.7162 180.849C73.0419 180.849 72.8426 183.888 70.2654 183.888C67.6882 183.888 68.1026 180.849 65.243 180.849C62.3834 180.849 62.0643 183.888 59.3918 183.888C56.7194 183.888 56.4887 180.849 53.706 180.849C50.9233 180.849 51.2251 183.888 48.4815 183.888C45.7379 183.888 45.6379 180.849 42.9081 180.849C40.1784 180.849 40.2211 183.888 37.5348 183.888C34.8485 183.888 34.9711 180.849 32.0905 180.849C29.2099 180.849 29.1013 183.888 26.401 183.888C23.7007 183.888 23.9385 180.849 21.578 180.849C19.2175 180.849 18.2318 184.699 15.6557 183.888C13.0796 183.077 13.3766 180.849 10.5001 180.849C8.77174 180.849 5.5 179.91 5.5 178.182V119.462V94.7608Z" fill="white"/>
<path fill-rule="evenodd" clip-rule="evenodd" d="M5.5 94.7608L5.83065 6.99198C5.8348 5.89036 6.72901 4.99951 7.83064 4.99951H117.762V21.4932C117.762 22.5977 118.657 23.4932 119.762 23.4932H135.941V178.445C135.941 180.41 132.922 181.368 131.005 180.936C130.753 180.88 130.497 180.849 130.241 180.849C127.317 180.849 127.584 183.164 125 183.888C122.416 184.611 122.412 180.849 119.644 180.849C116.876 180.849 116.726 183.888 114.091 183.888C111.457 183.888 111.63 180.849 108.75 180.849C105.87 180.849 105.591 183.888 103.062 183.888C100.533 183.888 100.611 180.849 97.6505 180.849C94.6902 180.849 94.7028 183.888 92.0841 183.888C89.4653 183.888 89.6491 180.849 86.8806 180.849C84.1121 180.849 84.2172 183.166 81.5423 183.888C78.8673 184.609 78.3906 180.849 75.7162 180.849C73.0419 180.849 72.8426 183.888 70.2654 183.888C67.6882 183.888 68.1026 180.849 65.243 180.849C62.3834 180.849 62.0643 183.888 59.3918 183.888C56.7194 183.888 56.4887 180.849 53.706 180.849C50.9233 180.849 51.2251 183.888 48.4815 183.888C45.7379 183.888 45.6379 180.849 42.9081 180.849C40.1784 180.849 40.2211 183.888 37.5348 183.888C34.8485 183.888 34.9711 180.849 32.0905 180.849C29.2099 180.849 29.1013 183.888 26.401 183.888C23.7007 183.888 23.9385 180.849 21.578 180.849C19.2175 180.849 18.2318 184.699 15.6557 183.888C13.0796 183.077 13.3766 180.849 10.5001 180.849C8.77174 180.849 5.5 179.91 5.5 178.182V119.462V94.7608Z" stroke="#72777D" stroke-width="2" stroke-linecap="round"/>
</g>
<path id="Corner" d="M118.425 5.08026L118.426 5.0801C118.812 4.91811 119.253 5.00572 119.553 5.30968L135.927 21.9274L135.987 21.9883L136.057 22.038C136.323 22.2289 136.5 22.5467 136.5 22.9172C136.5 23.5235 136.023 23.9875 135.462 23.9902L135.461 23.9902L135.448 23.9902L135.41 23.9901L135.269 23.9899L134.74 23.9897L132.853 23.9894C131.293 23.9893 129.214 23.9893 127.135 23.9895L121.419 23.99L119.535 23.9902L119.008 23.9902L118.869 23.9902L118.833 23.9903L118.824 23.9903H118.822H118.821C118.821 23.9903 118.821 23.9903 118.821 23.9974V23.9903C118.258 23.9903 117.778 23.5253 117.778 22.9172V6.07347C117.778 5.63047 118.043 5.24054 118.425 5.08026Z" fill="#C8CCD1" stroke="#72777D" stroke-width="2"/>
<g id="illustration">
<ellipse id="Oval" cx="24.5454" cy="27.9889" rx="9.02586" ry="8.99582" fill="#EEB533"/>
<path id="Path 3" fill-rule="evenodd" clip-rule="evenodd" d="M92.093 39.9832C92.093 39.9832 113.848 54.7253 118.742 49.3014C123.637 43.8774 118.742 57.1749 118.742 57.1749H75.7886" fill="#3366CC"/>
<path id="Path 4" fill-rule="evenodd" clip-rule="evenodd" d="M6.49365 47.9795C6.49365 47.9795 23.8309 60.1615 47.9922 60.1615C72.1535 60.1615 53.9037 67.9702 53.9037 67.9702H6.54638" fill="#3366CC"/>
<path id="Path 2" fill-rule="evenodd" clip-rule="evenodd" d="M9.24805 68.0883C9.24805 68.0883 104.137 22.5406 92.2472 45.4644C80.3575 68.3882 134.834 40.0807 134.834 40.0807V68.0883" fill="#EEB533"/>
</g>
<rect id="Rectangle 33" x="6.49365" y="66.9707" width="128.268" height="2" fill="white"/>
<g id="Body text">
<rect id="Rectangle 4" x="17.4229" y="85.9618" width="72.5298" height="2" rx="1" fill="#C8CCD1"/>
<rect id="Rectangle 4_2" x="17.4229" y="109.951" width="80.4782" height="2" rx="1" fill="#72777D"/>
<rect id="Rectangle 4_3" x="17.4229" y="163.926" width="31.7939" height="2" rx="1" fill="#72777D"/>
<rect id="Rectangle 4_4" x="52.1973" y="163.926" width="72.5298" height="2" rx="1" fill="#72777D"/>
<rect id="Rectangle 4_5" x="17.4229" y="123.944" width="16.8905" height="2" rx="1" fill="#72777D"/>
<rect id="Rectangle 4_6" x="107.837" y="123.944" width="16.8905" height="2" rx="1" fill="#72777D"/>
<rect id="Rectangle 4_7" x="37.2939" y="123.944" width="67.562" height="2" rx="1" fill="#72777D"/>
<rect id="Rectangle 4_8" x="17.4229" y="156.929" width="16.8905" height="2" rx="1" fill="#72777D"/>
<rect id="Rectangle 4_9" x="88.959" y="156.929" width="36.7617" height="2" rx="1" fill="#72777D"/>
<rect id="Rectangle 4_10" x="37.2939" y="156.929" width="48.6844" height="2" rx="1" fill="#72777D"/>
<rect id="Rectangle 4_11" width="23.8454" height="2" rx="1" transform="matrix(-1 0 0 1 124.727 109.951)" fill="#72777D"/>
<rect id="Rectangle 4_12" x="17.4229" y="144.934" width="80.4782" height="2" rx="1" fill="#72777D"/>
<rect id="Rectangle 4_13" x="71.0752" y="102.954" width="13.9098" height="2" rx="1" fill="#72777D"/>
<rect id="Rectangle 4_14" x="87.9653" y="102.954" width="36.7617" height="2" rx="1" fill="#72777D"/>
<rect id="Rectangle 4_15" x="17.4229" y="102.954" width="50.6715" height="2" rx="1" fill="#72777D"/>
<rect id="Rectangle 4_16" x="17.4229" y="137.938" width="107.304" height="2" rx="1" fill="#72777D"/>
<rect id="Rectangle 4_17" x="17.4229" y="130.941" width="107.304" height="2" rx="1" fill="#72777D"/>
<rect id="Rectangle 4_18" x="17.4229" y="170.922" width="107.304" height="2" rx="1" fill="#72777D"/>
<rect id="Rectangle 4_19" x="17.4229" y="116.947" width="107.304" height="2" rx="1" fill="#72777D"/>
<rect id="Rectangle 4_20" x="17.4229" y="78.9652" width="50.6715" height="2" rx="1" fill="#72777D"/>
</g>
</g>
<defs>
<filter id="filter0_d_353_342" x="0.5" y="-0.000488281" width="140.441" height="189.002" filterUnits="userSpaceOnUse" color-interpolation-filters="sRGB">
<feFlood flood-opacity="0" result="BackgroundImageFix"/>
<feColorMatrix in="SourceAlpha" type="matrix" values="0 0 0 0 0 0 0 0 0 0 0 0 0 0 0 0 0 0 127 0" result="hardAlpha"/>
<feOffset/>
<feGaussianBlur stdDeviation="2"/>
<feColorMatrix type="matrix" values="0 0 0 0 0.961 0 0 0 0 0.961 0 0 0 0 0.961 0 0 0 1 0"/>
<feBlend mode="normal" in2="BackgroundImageFix" result="effect1_dropShadow_353_342"/>
<feBlend mode="normal" in="SourceGraphic" in2="effect1_dropShadow_353_342" result="shape"/>
</filter>
</defs>
</svg>
