<svg width="310" height="72" viewBox="0 0 310 72" fill="none" xmlns="http://www.w3.org/2000/svg">
<g clip-path="url(#clip0_1476_10067)">
<path d="M94.5488 30.4794L99.1751 15.4729H105.24L109.827 30.4794L114.998 15.4729H121.296L112.199 41.5593H107.884L102.169 23.4038L96.4926 41.5593H92.1773L83.0801 15.4729H89.3781L94.5488 30.4794Z" fill="white"/>
<path d="M124.445 15.4729H130.276V41.5593H124.445V15.4729Z" fill="white"/>
<path d="M136.691 15.4729H142.523V26.2029L152.359 15.4729H159.551L149.171 27.0193C150.065 28.2634 151.737 30.596 154.147 33.9783C156.557 37.3606 158.346 39.8876 159.551 41.5593H152.747L145.089 31.2569L142.484 34.1727V41.5593H136.652V15.4729H136.691Z" fill="white"/>
<path d="M163.166 15.4729H168.998V41.5593H163.166V15.4729Z" fill="white"/>
<path d="M198.777 25.1532L191.741 39.4211H188.281L181.283 25.1532V41.5593H175.451V15.4729H183.343L190.069 29.8185L196.833 15.4729H204.687V41.5593H198.855V25.1532H198.777Z" fill="white"/>
<path d="M229.841 15.4729V20.6435H216.856V26.0474H228.519V31.0237H216.856V36.4275H230.268V41.5593H211.063V15.4729H229.841Z" fill="white"/>
<path d="M255.344 18.8941C257.832 21.1878 259.076 24.3368 259.076 28.38C259.076 32.4232 257.871 35.65 255.422 38.0215C253.011 40.393 249.279 41.5593 244.303 41.5593H235.4V15.4729H244.614C249.318 15.4729 252.856 16.6392 255.344 18.8941ZM251.106 34.4059C252.545 33.0453 253.245 31.1014 253.245 28.5355C253.245 25.9697 252.545 23.9869 251.106 22.6262C249.668 21.2267 247.491 20.5658 244.536 20.5658H241.271V36.4275H244.964C247.607 36.4275 249.668 35.7666 251.106 34.4059Z" fill="white"/>
<path d="M264.13 15.4729H269.961V41.5593H264.13V15.4729Z" fill="white"/>
<path d="M294.959 41.5593L292.549 35.9221H281.624L279.214 41.5593H273.032L284.307 15.4729H289.944L301.218 41.5593H294.959ZM287.067 23.2483L283.801 30.8293H290.333L287.067 23.2483Z" fill="white"/>
<path d="M93.6934 53.4168V56.5658H98.7474V58.3541H93.6934V63.0582H91.7495V51.6284H99.3694V53.4168H93.6934Z" fill="white"/>
<path d="M120.985 61.4253C119.818 62.5527 118.419 63.097 116.708 63.097C114.998 63.097 113.598 62.5527 112.432 61.4253C111.266 60.2979 110.682 58.8983 110.682 57.2266C110.682 55.5549 111.266 54.1553 112.432 53.0279C113.598 51.9005 114.998 51.3562 116.708 51.3562C118.419 51.3562 119.818 51.9005 120.985 53.0279C122.151 54.1553 122.734 55.5549 122.734 57.2266C122.734 58.8983 122.151 60.2979 120.985 61.4253ZM119.585 54.3108C118.808 53.4944 117.836 53.1057 116.708 53.1057C115.581 53.1057 114.609 53.4944 113.831 54.3108C113.054 55.1273 112.665 56.0992 112.665 57.2266C112.665 58.3929 113.054 59.3648 113.831 60.1424C114.609 60.9199 115.581 61.3476 116.708 61.3476C117.836 61.3476 118.808 60.9588 119.585 60.1424C120.363 59.326 120.751 58.354 120.751 57.2266C120.751 56.0603 120.363 55.0884 119.585 54.3108Z" fill="white"/>
<path d="M137.507 60.4145C138.013 61.0366 138.751 61.3476 139.646 61.3476C140.54 61.3476 141.24 61.0366 141.784 60.4145C142.328 59.7925 142.561 58.9761 142.561 57.9264V51.5895H144.505V58.0042C144.505 59.637 144.039 60.9199 143.145 61.8141C142.25 62.7083 141.084 63.1359 139.685 63.1359C138.285 63.1359 137.119 62.7083 136.224 61.8141C135.33 60.9199 134.864 59.6759 134.864 58.0042V51.5895H136.808V57.9264C136.73 58.9761 137.002 59.7925 137.507 60.4145Z" fill="white"/>
<path d="M165.849 51.5895H167.793V63.0193H165.694L159.24 54.6996V63.0193H157.296V51.5895H159.24L165.888 60.1035V51.5895H165.849Z" fill="white"/>
<path d="M189.37 53.1057C190.458 54.1165 191.003 55.4772 191.003 57.2655C191.003 59.0538 190.458 60.4534 189.409 61.4642C188.359 62.5139 186.726 63.0193 184.51 63.0193H180.739V51.5895H184.666C186.687 51.5895 188.281 52.0949 189.37 53.1057ZM189.098 57.3044C189.098 54.6996 187.581 53.3778 184.627 53.3778H182.683V61.1921H184.821C186.221 61.1921 187.27 60.8811 188.009 60.2201C188.709 59.5592 189.098 58.5873 189.098 57.3044Z" fill="white"/>
<path d="M204.92 60.4145L203.793 63.0193H201.732L206.748 51.5895H208.808L213.823 63.0193H211.763L210.635 60.4145H204.92ZM209.858 58.6262L207.797 53.9221L205.737 58.6262H209.858Z" fill="white"/>
<path d="M228.635 53.3779V63.0194H226.691V53.3779H223.231V51.6284H232.095V53.3779H228.635Z" fill="white"/>
<path d="M243.991 51.5895H245.935V63.0193H243.991V51.5895Z" fill="white"/>
<path d="M268.406 61.4253C267.239 62.5527 265.84 63.097 264.129 63.097C262.419 63.097 261.019 62.5527 259.853 61.4253C258.686 60.2979 258.103 58.8983 258.103 57.2266C258.103 55.5549 258.686 54.1553 259.853 53.0279C261.019 51.9005 262.419 51.3562 264.129 51.3562C265.84 51.3562 267.239 51.9005 268.406 53.0279C269.572 54.1553 270.155 55.5549 270.155 57.2266C270.155 58.8983 269.572 60.2979 268.406 61.4253ZM267.006 54.3108C266.229 53.4944 265.257 53.1057 264.129 53.1057C263.002 53.1057 262.03 53.4944 261.252 54.3108C260.475 55.1273 260.086 56.0992 260.086 57.2266C260.086 58.3929 260.475 59.3648 261.252 60.1424C262.03 60.9199 263.002 61.3476 264.129 61.3476C265.257 61.3476 266.229 60.9588 267.006 60.1424C267.784 59.326 268.172 58.354 268.172 57.2266C268.172 56.0603 267.784 55.0884 267.006 54.3108Z" fill="white"/>
<path d="M290.915 51.5895H292.859V63.0193H290.76L284.306 54.6996V63.0193H282.362V51.5895H284.306L290.954 60.1035V51.5895H290.915Z" fill="white"/>
<path d="M42.1031 56.1383C51.939 54.7387 59.4811 46.3024 59.4811 36.1167C59.4811 29.8964 56.682 24.3759 52.2889 20.6437L42.1031 30.8294V56.1383Z" fill="white"/>
<path d="M36.3881 56.1381V30.8292L26.2024 20.6046C21.8093 24.2979 19.0101 29.8573 19.0101 36.0776C19.0101 46.3022 26.5522 54.7385 36.3881 56.1381Z" fill="white"/>
<path d="M56.838 18.5055C61.5421 23.2096 64.108 29.4688 64.108 36.0779C64.108 42.687 61.5032 48.985 56.838 53.6502C52.1339 58.3544 45.8747 60.9202 39.2656 60.9202C32.6566 60.9202 26.3585 58.3155 21.6933 53.6502C17.0281 48.985 14.3844 42.7258 14.3844 36.0779C14.3844 29.4299 16.9892 23.1708 21.6544 18.5055C22.0432 18.1168 22.4708 17.728 22.8985 17.3392L17.2224 11.6632C16.7948 12.052 16.406 12.4407 15.9784 12.8295C12.946 15.8619 10.5745 19.3608 8.94167 23.2874C7.23108 27.3306 6.33691 31.6459 6.33691 36.0779C6.33691 40.5099 7.19221 44.8252 8.94167 48.8684C10.6134 52.795 12.9849 56.2939 15.9784 59.3263C19.0108 62.3587 22.5097 64.7302 26.4363 66.363C30.4795 68.0736 34.7948 68.9677 39.2268 68.9677C43.6587 68.9677 47.9741 68.1124 52.0173 66.363C55.9438 64.6913 59.4427 62.3198 62.4751 59.3263C65.5075 56.2939 67.879 52.795 69.5119 48.8684C71.2225 44.8252 72.1166 40.5099 72.1166 36.0779C72.1166 31.6459 71.2613 27.3306 69.5119 23.2874C67.8402 19.3608 65.4687 15.8619 62.4751 12.8295C62.0864 12.4407 61.6587 12.052 61.2311 11.6632L55.5939 17.3392C56.0216 17.6891 56.4104 18.0779 56.838 18.5055Z" fill="white"/>
<path d="M39.2264 23.5205C44.8948 23.5205 49.4899 18.9254 49.4899 13.257C49.4899 7.58865 44.8948 2.99353 39.2264 2.99353C33.558 2.99353 28.9629 7.58865 28.9629 13.257C28.9629 18.9254 33.558 23.5205 39.2264 23.5205Z" fill="white"/>
</g>
<defs>
<clipPath id="clip0_1476_10067">
<rect width="309.965" height="72" fill="white"/>
</clipPath>
</defs>
</svg>
