<svg width="52" height="52" viewBox="0 0 52 52" fill="none" xmlns="http://www.w3.org/2000/svg">
<path fill-rule="evenodd" clip-rule="evenodd" d="M37.8536 21.5821C37.1684 22.2884 36.0376 22.297 35.3418 21.6012L30.3862 16.6457C29.6953 15.9547 29.6982 14.8336 30.3926 14.1463L32.2044 12.353C32.8156 11.7454 33.8026 11.7454 34.4137 12.353L39.6472 17.5237C40.2547 18.1349 40.2547 19.1219 39.6472 19.733L37.8536 21.5821ZM26.2572 18.3001C26.9457 17.6117 28.0618 17.6117 28.7503 18.3001L33.7 23.2499C34.3884 23.9383 34.3884 25.0545 33.7 25.7429L19.8565 39.5863C19.5259 39.9169 19.0776 40.1027 18.61 40.1027H11.8975V33.3901C11.8975 32.9226 12.0832 32.4742 12.4138 32.1436L26.2572 18.3001Z" fill="#3366CC"/>
</svg>
