<?xml version="1.0" encoding="UTF-8"?>
<!--Generator: Apple Native CoreSVG 175-->
<!DOCTYPE svg
PUBLIC "-//W3C//DTD SVG 1.1//EN"
       "http://www.w3.org/Graphics/SVG/1.1/DTD/svg11.dtd">
<svg version="1.1" xmlns="http://www.w3.org/2000/svg" xmlns:xlink="http://www.w3.org/1999/xlink" width="3300" height="2200">
 <!--glyph: "uni100309.medium", point size: 100.0, font version: "17.0d11e1", template writer version: "65.1"-->
 <g id="Notes">
  <rect height="2200" id="artboard" style="fill:white;opacity:1" width="3300" x="0" y="0"/>
  <line style="fill:none;stroke:black;opacity:1;stroke-width:0.5;" x1="263" x2="3036" y1="292" y2="292"/>
  <text style="stroke:none;fill:black;font-family:sans-serif;font-size:13;font-weight:bold;" transform="matrix(1 0 0 1 263 322)">Weight/Scale Variations</text>
  <text style="stroke:none;fill:black;font-family:sans-serif;font-size:13;text-anchor:middle;" transform="matrix(1 0 0 1 559.711 322)">Ultralight</text>
  <text style="stroke:none;fill:black;font-family:sans-serif;font-size:13;text-anchor:middle;" transform="matrix(1 0 0 1 856.422 322)">Thin</text>
  <text style="stroke:none;fill:black;font-family:sans-serif;font-size:13;text-anchor:middle;" transform="matrix(1 0 0 1 1153.13 322)">Light</text>
  <text style="stroke:none;fill:black;font-family:sans-serif;font-size:13;text-anchor:middle;" transform="matrix(1 0 0 1 1449.84 322)">Regular</text>
  <text style="stroke:none;fill:black;font-family:sans-serif;font-size:13;text-anchor:middle;" transform="matrix(1 0 0 1 1746.56 322)">Medium</text>
  <text style="stroke:none;fill:black;font-family:sans-serif;font-size:13;text-anchor:middle;" transform="matrix(1 0 0 1 2043.27 322)">Semibold</text>
  <text style="stroke:none;fill:black;font-family:sans-serif;font-size:13;text-anchor:middle;" transform="matrix(1 0 0 1 2339.98 322)">Bold</text>
  <text style="stroke:none;fill:black;font-family:sans-serif;font-size:13;text-anchor:middle;" transform="matrix(1 0 0 1 2636.69 322)">Heavy</text>
  <text style="stroke:none;fill:black;font-family:sans-serif;font-size:13;text-anchor:middle;" transform="matrix(1 0 0 1 2933.4 322)">Black</text>
  <line style="fill:none;stroke:black;opacity:1;stroke-width:0.5;" x1="263" x2="3036" y1="1903" y2="1903"/>
  <g transform="matrix(1 0 0 1 263 1933)">
   <path d="M9.24805 0.830078Q10.8691 0.830078 12.2949 0.214844Q13.7207-0.400391 14.8096-1.49414Q15.8984-2.58789 16.5186-4.01367Q17.1387-5.43945 17.1387-7.05078Q17.1387-8.66211 16.5186-10.0879Q15.8984-11.5137 14.8047-12.6074Q13.7109-13.7012 12.2852-14.3164Q10.8594-14.9316 9.23828-14.9316Q7.62695-14.9316 6.20117-14.3164Q4.77539-13.7012 3.69141-12.6074Q2.60742-11.5137 1.9873-10.0879Q1.36719-8.66211 1.36719-7.05078Q1.36719-5.43945 1.9873-4.01367Q2.60742-2.58789 3.69629-1.49414Q4.78516-0.400391 6.21094 0.214844Q7.63672 0.830078 9.24805 0.830078ZM9.24805-0.654297Q7.91992-0.654297 6.7627-1.14746Q5.60547-1.64062 4.73145-2.51953Q3.85742-3.39844 3.36426-4.56055Q2.87109-5.72266 2.87109-7.05078Q2.87109-8.37891 3.35938-9.54102Q3.84766-10.7031 4.72168-11.582Q5.5957-12.4609 6.75293-12.9541Q7.91016-13.4473 9.23828-13.4473Q10.5762-13.4473 11.7334-12.9541Q12.8906-12.4609 13.7695-11.582Q14.6484-10.7031 15.1465-9.54102Q15.6445-8.37891 15.6445-7.05078Q15.6445-5.72266 15.1514-4.56055Q14.6582-3.39844 13.7842-2.51953Q12.9102-1.64062 11.748-1.14746Q10.5859-0.654297 9.24805-0.654297ZM5.6543-7.05078Q5.6543-6.72852 5.85938-6.52832Q6.06445-6.32812 6.40625-6.32812L8.51562-6.32812L8.51562-4.20898Q8.51562-3.88672 8.71094-3.67676Q8.90625-3.4668 9.23828-3.4668Q9.56055-3.4668 9.77051-3.67676Q9.98047-3.88672 9.98047-4.20898L9.98047-6.32812L12.0898-6.32812Q12.4219-6.32812 12.627-6.52832Q12.832-6.72852 12.832-7.05078Q12.832-7.38281 12.627-7.58789Q12.4219-7.79297 12.0898-7.79297L9.98047-7.79297L9.98047-9.90234Q9.98047-10.2344 9.77051-10.4443Q9.56055-10.6543 9.23828-10.6543Q8.90625-10.6543 8.71094-10.4443Q8.51562-10.2344 8.51562-9.90234L8.51562-7.79297L6.40625-7.79297Q6.06445-7.79297 5.85938-7.58789Q5.6543-7.38281 5.6543-7.05078Z"/>
  </g>
  <g transform="matrix(1 0 0 1 281.867 1933)">
   <path d="M11.709 2.91016Q13.75 2.91016 15.5518 2.12891Q17.3535 1.34766 18.7305-0.0292969Q20.1074-1.40625 20.8887-3.20801Q21.6699-5.00977 21.6699-7.05078Q21.6699-9.0918 20.8887-10.8936Q20.1074-12.6953 18.7305-14.0723Q17.3535-15.4492 15.5469-16.2305Q13.7402-17.0117 11.6992-17.0117Q9.6582-17.0117 7.85645-16.2305Q6.05469-15.4492 4.68262-14.0723Q3.31055-12.6953 2.5293-10.8936Q1.74805-9.0918 1.74805-7.05078Q1.74805-5.00977 2.5293-3.20801Q3.31055-1.40625 4.6875-0.0292969Q6.06445 1.34766 7.86621 2.12891Q9.66797 2.91016 11.709 2.91016ZM11.709 1.25Q9.98047 1.25 8.47656 0.605469Q6.97266-0.0390625 5.83496-1.17676Q4.69727-2.31445 4.05762-3.81836Q3.41797-5.32227 3.41797-7.05078Q3.41797-8.7793 4.05762-10.2832Q4.69727-11.7871 5.83008-12.9297Q6.96289-14.0723 8.4668-14.7119Q9.9707-15.3516 11.6992-15.3516Q13.4277-15.3516 14.9316-14.7119Q16.4355-14.0723 17.5781-12.9297Q18.7207-11.7871 19.3652-10.2832Q20.0098-8.7793 20.0098-7.05078Q20.0098-5.32227 19.3701-3.81836Q18.7305-2.31445 17.5928-1.17676Q16.4551-0.0390625 14.9463 0.605469Q13.4375 1.25 11.709 1.25ZM7.17773-7.05078Q7.17773-6.69922 7.41211-6.47461Q7.64648-6.25 8.01758-6.25L10.8887-6.25L10.8887-3.36914Q10.8887-2.99805 11.1133-2.76855Q11.3379-2.53906 11.6895-2.53906Q12.0605-2.53906 12.29-2.76855Q12.5195-2.99805 12.5195-3.36914L12.5195-6.25L15.4004-6.25Q15.7715-6.25 16.001-6.47461Q16.2305-6.69922 16.2305-7.05078Q16.2305-7.42188 16.001-7.65137Q15.7715-7.88086 15.4004-7.88086L12.5195-7.88086L12.5195-10.752Q12.5195-11.1328 12.29-11.3623Q12.0605-11.5918 11.6895-11.5918Q11.3379-11.5918 11.1133-11.3574Q10.8887-11.123 10.8887-10.752L10.8887-7.88086L8.01758-7.88086Q7.63672-7.88086 7.40723-7.65137Q7.17773-7.42188 7.17773-7.05078Z"/>
  </g>
  <g transform="matrix(1 0 0 1 305.646 1933)">
   <path d="M14.9707 5.66406Q17.0605 5.66406 18.96 5.01465Q20.8594 4.36523 22.4512 3.19336Q24.043 2.02148 25.2197 0.429688Q26.3965-1.16211 27.0459-3.06641Q27.6953-4.9707 27.6953-7.05078Q27.6953-9.14062 27.0459-11.04Q26.3965-12.9395 25.2197-14.5312Q24.043-16.123 22.4512-17.2998Q20.8594-18.4766 18.9551-19.126Q17.0508-19.7754 14.9609-19.7754Q12.8711-19.7754 10.9717-19.126Q9.07227-18.4766 7.48535-17.2998Q5.89844-16.123 4.72168-14.5312Q3.54492-12.9395 2.90039-11.04Q2.25586-9.14062 2.25586-7.05078Q2.25586-4.9707 2.90527-3.06641Q3.55469-1.16211 4.72656 0.429688Q5.89844 2.02148 7.49023 3.19336Q9.08203 4.36523 10.9814 5.01465Q12.8809 5.66406 14.9707 5.66406ZM14.9707 3.84766Q13.1641 3.84766 11.5283 3.2959Q9.89258 2.74414 8.53516 1.74805Q7.17773 0.751953 6.17676-0.610352Q5.17578-1.97266 4.62891-3.6084Q4.08203-5.24414 4.08203-7.05078Q4.08203-8.86719 4.62891-10.5029Q5.17578-12.1387 6.17188-13.501Q7.16797-14.8633 8.52539-15.8594Q9.88281-16.8555 11.5186-17.4023Q13.1543-17.9492 14.9609-17.9492Q16.7773-17.9492 18.4131-17.4023Q20.0488-16.8555 21.4111-15.8594Q22.7734-14.8633 23.7695-13.501Q24.7656-12.1387 25.3174-10.5029Q25.8691-8.86719 25.8691-7.05078Q25.8789-5.24414 25.332-3.6084Q24.7852-1.97266 23.7842-0.610352Q22.7832 0.751953 21.4209 1.74805Q20.0586 2.74414 18.4229 3.2959Q16.7871 3.84766 14.9707 3.84766ZM9.19922-7.05078Q9.19922-6.66992 9.45801-6.4209Q9.7168-6.17188 10.1172-6.17188L14.0625-6.17188L14.0625-2.2168Q14.0625-1.81641 14.3115-1.55762Q14.5605-1.29883 14.9512-1.29883Q15.3516-1.29883 15.6104-1.55273Q15.8691-1.80664 15.8691-2.2168L15.8691-6.17188L19.8242-6.17188Q20.2246-6.17188 20.4785-6.4209Q20.7324-6.66992 20.7324-7.05078Q20.7324-7.46094 20.4785-7.71484Q20.2246-7.96875 19.8242-7.96875L15.8691-7.96875L15.8691-11.9141Q15.8691-12.3242 15.6104-12.583Q15.3516-12.8418 14.9512-12.8418Q14.5605-12.8418 14.3115-12.583Q14.0625-12.3242 14.0625-11.9141L14.0625-7.96875L10.1172-7.96875Q9.70703-7.96875 9.45312-7.71484Q9.19922-7.46094 9.19922-7.05078Z"/>
  </g>
  <text style="stroke:none;fill:black;font-family:sans-serif;font-size:13;font-weight:bold;" transform="matrix(1 0 0 1 263 1953)">Design Variations</text>
  <text style="stroke:none;fill:black;font-family:sans-serif;font-size:13;" transform="matrix(1 0 0 1 263 1971)">Symbols are supported in up to nine weights and three scales.</text>
  <text style="stroke:none;fill:black;font-family:sans-serif;font-size:13;" transform="matrix(1 0 0 1 263 1989)">For optimal layout with text and other symbols, vertically align</text>
  <text style="stroke:none;fill:black;font-family:sans-serif;font-size:13;" transform="matrix(1 0 0 1 263 2007)">symbols with the adjacent text.</text>
  <line style="fill:none;stroke:#00AEEF;stroke-width:0.5;opacity:1.0;" x1="776" x2="776" y1="1919" y2="1933"/>
  <g transform="matrix(1 0 0 1 776 1933)">
   <path d="M3.31055 0.15625Q3.70117 0.15625 3.91602-0.00976562Q4.13086-0.175781 4.26758-0.585938L5.52734-4.0332L11.2891-4.0332L12.5488-0.585938Q12.6855-0.175781 12.9004-0.00976562Q13.1152 0.15625 13.4961 0.15625Q13.8867 0.15625 14.1162-0.0585938Q14.3457-0.273438 14.3457-0.644531Q14.3457-0.869141 14.2383-1.17188L9.6582-13.3691Q9.48242-13.8184 9.17969-14.043Q8.87695-14.2676 8.4082-14.2676Q7.5-14.2676 7.17773-13.3789L2.59766-1.16211Q2.49023-0.859375 2.49023-0.634766Q2.49023-0.263672 2.70996-0.0537109Q2.92969 0.15625 3.31055 0.15625ZM6.00586-5.51758L8.37891-12.0898L8.42773-12.0898L10.8008-5.51758Z"/>
  </g>
  <line style="fill:none;stroke:#00AEEF;stroke-width:0.5;opacity:1.0;" x1="793.197" x2="793.197" y1="1919" y2="1933"/>
  <text style="stroke:none;fill:black;font-family:sans-serif;font-size:13;font-weight:bold;" transform="matrix(1 0 0 1 776 1953)">Margins</text>
  <text style="stroke:none;fill:black;font-family:sans-serif;font-size:13;" transform="matrix(1 0 0 1 776 1971)">Leading and trailing margins on the left and right side of each symbol</text>
  <text style="stroke:none;fill:black;font-family:sans-serif;font-size:13;" transform="matrix(1 0 0 1 776 1989)">can be adjusted by modifying the x-location of the margin guidelines.</text>
  <text style="stroke:none;fill:black;font-family:sans-serif;font-size:13;" transform="matrix(1 0 0 1 776 2007)">Modifications are automatically applied proportionally to all</text>
  <text style="stroke:none;fill:black;font-family:sans-serif;font-size:13;" transform="matrix(1 0 0 1 776 2025)">scales and weights.</text>
  <g transform="matrix(1 0 0 1 1289 1933)">
   <path d="M2.8418 1.86523L4.54102 3.57422Q5.18555 4.22852 5.90332 4.17969Q6.62109 4.13086 7.31445 3.35938L18.0078-8.42773L17.041-9.4043L6.42578 2.27539Q6.16211 2.57812 5.89355 2.61719Q5.625 2.65625 5.27344 2.30469L4.10156 1.14258Q3.75 0.791016 3.79395 0.522461Q3.83789 0.253906 4.14062-0.0195312L15.6152-10.8203L14.6387-11.7871L3.04688-0.898438Q2.30469-0.214844 2.25098 0.498047Q2.19727 1.21094 2.8418 1.86523ZM9.25781-16.3281Q8.94531-16.0254 8.90625-15.6348Q8.86719-15.2441 9.04297-14.9512Q9.21875-14.6777 9.55566-14.541Q9.89258-14.4043 10.3809-14.5215Q11.4746-14.7754 12.5977-14.7314Q13.7207-14.6875 14.7949-13.9844L14.209-12.5293Q13.9551-11.9043 14.0674-11.4404Q14.1797-10.9766 14.5801-10.5664L16.875-8.25195Q17.2363-7.88086 17.5781-7.82227Q17.9199-7.76367 18.3398-7.8418L19.4043-8.03711L20.0684-7.36328L20.0293-6.80664Q20-6.43555 20.1221-6.12305Q20.2441-5.81055 20.6055-5.44922L21.3672-4.70703Q21.7285-4.3457 22.1533-4.33105Q22.5781-4.31641 22.9297-4.66797L25.8398-7.58789Q26.1914-7.93945 26.1816-8.35449Q26.1719-8.76953 25.8105-9.13086L25.0391-9.89258Q24.6875-10.2539 24.3799-10.3857Q24.0723-10.5176 23.7109-10.4883L23.1348-10.4395L22.4902-11.0742L22.7344-12.1973Q22.832-12.6172 22.6953-12.9834Q22.5586-13.3496 22.1191-13.7891L19.9219-15.9766Q18.6719-17.2168 17.2607-17.8369Q15.8496-18.457 14.4189-18.4814Q12.9883-18.5059 11.665-17.959Q10.3418-17.4121 9.25781-16.3281ZM10.752-15.957Q11.6602-16.6211 12.7002-16.9043Q13.7402-17.1875 14.8047-17.085Q15.8691-16.9824 16.8701-16.5137Q17.8711-16.0449 18.7012-15.2051L21.1328-12.793Q21.3086-12.6172 21.3525-12.4512Q21.3965-12.2852 21.3379-12.0312L21.0156-10.5469L22.5195-9.0625L23.5059-9.12109Q23.6914-9.13086 23.7891-9.09668Q23.8867-9.0625 24.0332-8.91602L24.6094-8.33984L22.168-5.89844L21.5918-6.47461Q21.4453-6.62109 21.4062-6.71875Q21.3672-6.81641 21.377-7.01172L21.4453-7.98828L19.9512-9.47266L18.4277-9.21875Q18.1836-9.16992 18.042-9.2041Q17.9004-9.23828 17.7148-9.41406L15.7129-11.416Q15.5176-11.5918 15.4932-11.7529Q15.4688-11.9141 15.5859-12.1875L16.4648-14.2773Q15.293-15.3711 13.8281-15.791Q12.3633-16.2109 10.8398-15.7617Q10.7227-15.7324 10.6885-15.8057Q10.6543-15.8789 10.752-15.957Z"/>
  </g>
  <text style="stroke:none;fill:black;font-family:sans-serif;font-size:13;font-weight:bold;" transform="matrix(1 0 0 1 1289 1953)">Exporting</text>
  <text style="stroke:none;fill:black;font-family:sans-serif;font-size:13;" transform="matrix(1 0 0 1 1289 1971)">Symbols should be outlined when exporting to ensure the</text>
  <text style="stroke:none;fill:black;font-family:sans-serif;font-size:13;" transform="matrix(1 0 0 1 1289 1989)">design is preserved when submitting to Xcode.</text>
  <text id="template-version" style="stroke:none;fill:black;font-family:sans-serif;font-size:13;text-anchor:end;" transform="matrix(1 0 0 1 3036 1933)">Template v.2.0</text>
  <text style="stroke:none;fill:black;font-family:sans-serif;font-size:13;text-anchor:end;" transform="matrix(1 0 0 1 3036 1951)">Requires Xcode 13 or greater</text>
  <text id="descriptive-name" style="stroke:none;fill:black;font-family:sans-serif;font-size:13;text-anchor:end;" transform="matrix(1 0 0 1 3036 1969)">Generated from line.3.horizontal.decrease.circle.fill</text>
  <text style="stroke:none;fill:black;font-family:sans-serif;font-size:13;text-anchor:end;" transform="matrix(1 0 0 1 3036 1987)">Typeset at 100 points</text>
  <text style="stroke:none;fill:black;font-family:sans-serif;font-size:13;" transform="matrix(1 0 0 1 263 726)">Small</text>
  <text style="stroke:none;fill:black;font-family:sans-serif;font-size:13;" transform="matrix(1 0 0 1 263 1156)">Medium</text>
  <text style="stroke:none;fill:black;font-family:sans-serif;font-size:13;" transform="matrix(1 0 0 1 263 1586)">Large</text>
 </g>
 <g id="Guides">
  <g id="H-reference" style="fill:#27AAE1;stroke:none;" transform="matrix(1 0 0 1 339 696)">
   <path d="M0.976562 0L3.66211 0L29.3457-67.1387L30.0293-67.1387L30.0293-70.459L28.125-70.459ZM11.6699-24.4629L46.9727-24.4629L46.2402-26.709L12.4512-26.709ZM55.127 0L57.7637 0L30.6152-70.459L29.4434-70.459L29.4434-67.1387Z"/>
  </g>
  <line id="Baseline-S" style="fill:none;stroke:#27AAE1;opacity:1;stroke-width:0.5;" x1="263" x2="3036" y1="696" y2="696"/>
  <line id="Capline-S" style="fill:none;stroke:#27AAE1;opacity:1;stroke-width:0.5;" x1="263" x2="3036" y1="625.541" y2="625.541"/>
  <g id="H-reference" style="fill:#27AAE1;stroke:none;" transform="matrix(1 0 0 1 339 1126)">
   <path d="M0.976562 0L3.66211 0L29.3457-67.1387L30.0293-67.1387L30.0293-70.459L28.125-70.459ZM11.6699-24.4629L46.9727-24.4629L46.2402-26.709L12.4512-26.709ZM55.127 0L57.7637 0L30.6152-70.459L29.4434-70.459L29.4434-67.1387Z"/>
  </g>
  <line id="Baseline-M" style="fill:none;stroke:#27AAE1;opacity:1;stroke-width:0.5;" x1="263" x2="3036" y1="1126" y2="1126"/>
  <line id="Capline-M" style="fill:none;stroke:#27AAE1;opacity:1;stroke-width:0.5;" x1="263" x2="3036" y1="1055.54" y2="1055.54"/>
  <g id="H-reference" style="fill:#27AAE1;stroke:none;" transform="matrix(1 0 0 1 339 1556)">
   <path d="M0.976562 0L3.66211 0L29.3457-67.1387L30.0293-67.1387L30.0293-70.459L28.125-70.459ZM11.6699-24.4629L46.9727-24.4629L46.2402-26.709L12.4512-26.709ZM55.127 0L57.7637 0L30.6152-70.459L29.4434-70.459L29.4434-67.1387Z"/>
  </g>
  <line id="Baseline-L" style="fill:none;stroke:#27AAE1;opacity:1;stroke-width:0.5;" x1="263" x2="3036" y1="1556" y2="1556"/>
  <line id="Capline-L" style="fill:none;stroke:#27AAE1;opacity:1;stroke-width:0.5;" x1="263" x2="3036" y1="1485.54" y2="1485.54"/>
  <line id="left-margin" style="fill:none;stroke:#00AEEF;stroke-width:0.5;opacity:1.0;" x1="1391.3" x2="1391.3" y1="1030.79" y2="1150.12"/>
  <line id="right-margin" style="fill:none;stroke:#00AEEF;stroke-width:0.5;opacity:1.0;" x1="1508.39" x2="1508.39" y1="1030.79" y2="1150.12"/>
 </g>
 <g id="Symbols">
  <g id="Black-L" transform="matrix(1 0 0 1 2854.05 1556)">
   <path d="M79.3457 32.8613Q90.5762 32.8613 100.757 29.3945Q110.938 25.9277 119.458 19.6777Q127.979 13.4277 134.229 4.90723Q140.479-3.61328 143.945-13.7939Q147.412-23.9746 147.412-35.2051Q147.412-46.4355 143.945-56.6162Q140.479-66.7969 134.204-75.3174Q127.93-83.8379 119.434-90.1123Q110.938-96.3867 100.732-99.8291Q90.5273-103.271 79.2969-103.271Q68.1152-103.271 57.9102-99.8291Q47.7051-96.3867 39.209-90.1123Q30.7129-83.8379 24.4385-75.3174Q18.1641-66.7969 14.7217-56.6162Q11.2793-46.4355 11.2793-35.2051Q11.2793-23.9746 14.7217-13.7939Q18.1641-3.61328 24.4385 4.90723Q30.7129 13.4277 39.2334 19.6777Q47.7539 25.9277 57.9346 29.3945Q68.1152 32.8613 79.3457 32.8613ZM48.9258-46.5332Q45.4102-46.5332 43.2129-48.5596Q41.0156-50.5859 41.0156-53.8574Q41.0156-57.1777 43.2129-59.1797Q45.4102-61.1816 48.9258-61.1816L109.814-61.1816Q113.379-61.1816 115.552-59.1797Q117.725-57.1777 117.725-53.8574Q117.725-50.5859 115.552-48.5596Q113.379-46.5332 109.814-46.5332ZM56.1035-24.4629Q52.5879-24.4629 50.3906-26.4893Q48.1934-28.5156 48.1934-31.7871Q48.1934-35.0586 50.3906-37.1338Q52.5879-39.209 56.1035-39.209L102.637-39.209Q106.152-39.209 108.35-37.1338Q110.547-35.0586 110.547-31.7871Q110.547-28.5156 108.35-26.4893Q106.152-24.4629 102.637-24.4629ZM63.4277-2.44141Q59.9121-2.44141 57.6904-4.46777Q55.4688-6.49414 55.4688-9.7168Q55.4688-13.0371 57.6904-15.0635Q59.9121-17.0898 63.4277-17.0898L95.3613-17.0898Q98.877-17.0898 101.074-15.0635Q103.271-13.0371 103.271-9.7168Q103.271-6.49414 101.074-4.46777Q98.877-2.44141 95.3613-2.44141Z"/>
  </g>
  <g id="Heavy-L" transform="matrix(1 0 0 1 2558.39 1556)">
   <path d="M78.2715 31.7871Q89.3555 31.7871 99.3652 28.3691Q109.375 24.9512 117.749 18.7988Q126.123 12.6465 132.3 4.24805Q138.477-4.15039 141.895-14.1602Q145.312-24.1699 145.312-35.2051Q145.312-46.2402 141.895-56.2744Q138.477-66.3086 132.3-74.6826Q126.123-83.0566 117.749-89.2578Q109.375-95.459 99.3408-98.8525Q89.3066-102.246 78.2227-102.246Q67.2363-102.246 57.2021-98.8525Q47.168-95.459 38.7939-89.2578Q30.4199-83.0566 24.2432-74.6826Q18.0664-66.3086 14.6729-56.2744Q11.2793-46.2402 11.2793-35.2051Q11.2793-24.1699 14.6729-14.1602Q18.0664-4.15039 24.2432 4.24805Q30.4199 12.6465 38.8184 18.7988Q47.2168 24.9512 57.2266 28.3691Q67.2363 31.7871 78.2715 31.7871ZM46.6797-47.0703Q43.6035-47.0703 41.626-48.877Q39.6484-50.6836 39.6484-53.6133Q39.6484-56.543 41.626-58.3496Q43.6035-60.1562 46.6797-60.1562L110.01-60.1562Q113.135-60.1562 115.088-58.3496Q117.041-56.543 117.041-53.6133Q117.041-50.6836 115.088-48.877Q113.135-47.0703 110.01-47.0703ZM54.4434-25.1953Q51.3184-25.1953 49.3408-27.002Q47.3633-28.8086 47.3633-31.7383Q47.3633-34.668 49.3408-36.499Q51.3184-38.3301 54.4434-38.3301L102.246-38.3301Q105.371-38.3301 107.349-36.499Q109.326-34.668 109.326-31.7383Q109.326-28.8086 107.349-27.002Q105.371-25.1953 102.246-25.1953ZM62.3535-3.32031Q59.2285-3.32031 57.251-5.12695Q55.2734-6.93359 55.2734-9.81445Q55.2734-12.7441 57.251-14.5508Q59.2285-16.3574 62.3535-16.3574L94.3848-16.3574Q97.5098-16.3574 99.4629-14.5508Q101.416-12.7441 101.416-9.81445Q101.416-6.93359 99.4629-5.12695Q97.5098-3.32031 94.3848-3.32031Z"/>
  </g>
  <g id="Bold-L" transform="matrix(1 0 0 1 2262.85 1556)">
   <path d="M77.0996 30.6152Q87.9395 30.6152 97.7783 27.2461Q107.617 23.877 115.869 17.8223Q124.121 11.7676 130.176 3.51562Q136.23-4.73633 139.6-14.5752Q142.969-24.4141 142.969-35.2539Q142.969-46.0938 139.6-55.9326Q136.23-65.7715 130.151-73.999Q124.072-82.2266 115.845-88.3057Q107.617-94.3848 97.7539-97.7295Q87.8906-101.074 77.0508-101.074Q66.2598-101.074 56.3965-97.7295Q46.5332-94.3848 38.3301-88.3057Q30.127-82.2266 24.0479-73.999Q17.9688-65.7715 14.624-55.9326Q11.2793-46.0938 11.2793-35.2539Q11.2793-24.4141 14.624-14.5752Q17.9688-4.73633 24.0479 3.51562Q30.127 11.7676 38.3545 17.8223Q46.582 23.877 56.4209 27.2461Q66.2598 30.6152 77.0996 30.6152ZM44.1895-47.7051Q41.5039-47.7051 39.7949-49.2676Q38.0859-50.8301 38.0859-53.3203Q38.0859-55.9082 39.7949-57.4463Q41.5039-58.9844 44.1895-58.9844L110.205-58.9844Q112.891-58.9844 114.575-57.4463Q116.26-55.9082 116.26-53.3203Q116.26-50.8301 114.575-49.2676Q112.891-47.7051 110.205-47.7051ZM52.5391-25.9766Q49.8535-25.9766 48.1445-27.5391Q46.4355-29.1016 46.4355-31.6406Q46.4355-34.1797 48.1445-35.7666Q49.8535-37.3535 52.5391-37.3535L101.807-37.3535Q104.492-37.3535 106.201-35.7666Q107.91-34.1797 107.91-31.6406Q107.91-29.1016 106.201-27.5391Q104.492-25.9766 101.807-25.9766ZM61.1816-4.29688Q58.4961-4.29688 56.7871-5.85938Q55.0781-7.42188 55.0781-9.91211Q55.0781-12.4512 56.7871-14.0137Q58.4961-15.5762 61.1816-15.5762L93.2129-15.5762Q95.8984-15.5762 97.6074-14.0137Q99.3164-12.4512 99.3164-9.91211Q99.3164-7.42188 97.6074-5.85938Q95.8984-4.29688 93.2129-4.29688Z"/>
  </g>
  <g id="Semibold-L" transform="matrix(1 0 0 1 1966.97 1556)">
   <path d="M76.2695 29.7852Q86.9629 29.7852 96.6797 26.4648Q106.396 23.1445 114.551 17.1631Q122.705 11.1816 128.687 3.02734Q134.668-5.12695 137.988-14.8438Q141.309-24.5605 141.309-35.2539Q141.309-45.9473 137.988-55.6641Q134.668-65.3809 128.662-73.5107Q122.656-81.6406 114.526-87.6465Q106.396-93.6523 96.6553-96.9727Q86.9141-100.293 76.2207-100.293Q65.5273-100.293 55.8105-96.9727Q46.0938-93.6523 37.9883-87.6465Q29.8828-81.6406 23.877-73.5107Q17.8711-65.3809 14.5752-55.6641Q11.2793-45.9473 11.2793-35.2539Q11.2793-24.5605 14.5996-14.8438Q17.9199-5.12695 23.9014 3.02734Q29.8828 11.1816 38.0127 17.1631Q46.1426 23.1445 55.8594 26.4648Q65.5762 29.7852 76.2695 29.7852ZM42.4316-48.1934Q40.0879-48.1934 38.5498-49.5605Q37.0117-50.9277 37.0117-53.1738Q37.0117-55.4688 38.5498-56.8604Q40.0879-58.252 42.4316-58.252L110.303-58.252Q112.695-58.252 114.185-56.8604Q115.674-55.4688 115.674-53.1738Q115.674-50.9277 114.185-49.5605Q112.695-48.1934 110.303-48.1934ZM51.2207-26.5625Q48.8281-26.5625 47.3145-27.9541Q45.8008-29.3457 45.8008-31.6406Q45.8008-33.8867 47.3145-35.2783Q48.8281-36.6699 51.2207-36.6699L101.514-36.6699Q103.857-36.6699 105.396-35.2783Q106.934-33.8867 106.934-31.6406Q106.934-29.3457 105.396-27.9541Q103.857-26.5625 101.514-26.5625ZM60.3027-4.98047Q57.959-4.98047 56.4209-6.37207Q54.8828-7.76367 54.8828-10.0098Q54.8828-12.3047 56.4209-13.6719Q57.959-15.0391 60.3027-15.0391L92.4316-15.0391Q94.8242-15.0391 96.3379-13.6719Q97.8516-12.3047 97.8516-10.0098Q97.8516-7.76367 96.3379-6.37207Q94.8242-4.98047 92.4316-4.98047Z"/>
  </g>
  <g id="Medium-L" transform="matrix(1 0 0 1 1670.87 1556)">
   <path d="M75.6836 29.1504Q86.2305 29.1504 95.8496 25.8545Q105.469 22.5586 113.55 16.626Q121.631 10.6934 127.563 2.63672Q133.496-5.41992 136.792-15.0635Q140.088-24.707 140.088-35.2539Q140.088-45.8496 136.792-55.4688Q133.496-65.0879 127.539-73.1445Q121.582-81.2012 113.525-87.1582Q105.469-93.1152 95.8252-96.3867Q86.1816-99.6582 75.6348-99.6582Q65.0391-99.6582 55.4199-96.3867Q45.8008-93.1152 37.7441-87.1582Q29.6875-81.2012 23.7549-73.1445Q17.8223-65.0879 14.5508-55.4688Q11.2793-45.8496 11.2793-35.2539Q11.2793-24.707 14.5508-15.0635Q17.8223-5.41992 23.7549 2.63672Q29.6875 10.6934 37.7686 16.626Q45.8496 22.5586 55.4688 25.8545Q65.0879 29.1504 75.6836 29.1504ZM41.1133-48.4863Q39.0137-48.4863 37.6221-49.7314Q36.2305-50.9766 36.2305-53.0273Q36.2305-55.127 37.6221-56.3721Q39.0137-57.6172 41.1133-57.6172L110.449-57.6172Q112.549-57.6172 113.916-56.3721Q115.283-55.127 115.283-53.0273Q115.283-50.9766 113.916-49.7314Q112.549-48.4863 110.449-48.4863ZM50.2441-27.002Q48.0957-27.002 46.7041-28.2715Q45.3125-29.541 45.3125-31.5918Q45.3125-33.6426 46.7041-34.9121Q48.0957-36.1816 50.2441-36.1816L101.318-36.1816Q103.467-36.1816 104.834-34.9121Q106.201-33.6426 106.201-31.5918Q106.201-29.541 104.834-28.2715Q103.467-27.002 101.318-27.002ZM59.7168-5.51758Q57.5684-5.51758 56.1768-6.7627Q54.7852-8.00781 54.7852-10.0586Q54.7852-12.1094 56.1768-13.3545Q57.5684-14.5996 59.7168-14.5996L91.8457-14.5996Q93.9941-14.5996 95.3857-13.3545Q96.7773-12.1094 96.7773-10.0586Q96.7773-8.00781 95.3857-6.7627Q93.9941-5.51758 91.8457-5.51758Z"/>
  </g>
  <g id="Regular-L" transform="matrix(1 0 0 1 1374.97 1556)">
   <path d="M74.8535 28.3203Q85.3027 28.3203 94.7998 25.0732Q104.297 21.8262 112.256 15.9668Q120.215 10.1074 126.099 2.14844Q131.982-5.81055 135.229-15.332Q138.477-24.8535 138.477-35.2539Q138.477-45.7031 135.229-55.2002Q131.982-64.6973 126.099-72.6562Q120.215-80.6152 112.256-86.499Q104.297-92.3828 94.7754-95.6299Q85.2539-98.877 74.8047-98.877Q64.3555-98.877 54.8584-95.6299Q45.3613-92.3828 37.4268-86.499Q29.4922-80.6152 23.6084-72.6562Q17.7246-64.6973 14.502-55.2002Q11.2793-45.7031 11.2793-35.2539Q11.2793-24.8535 14.5264-15.332Q17.7734-5.81055 23.6328 2.14844Q29.4922 10.1074 37.4512 15.9668Q45.4102 21.8262 54.9072 25.0732Q64.4043 28.3203 74.8535 28.3203ZM39.4043-48.9258Q37.5977-48.9258 36.377-50Q35.1562-51.0742 35.1562-52.832Q35.1562-54.6387 36.377-55.7373Q37.5977-56.8359 39.4043-56.8359L110.547-56.8359Q112.354-56.8359 113.55-55.7373Q114.746-54.6387 114.746-52.832Q114.746-51.0742 113.55-50Q112.354-48.9258 110.547-48.9258ZM48.9258-27.5391Q47.0703-27.5391 45.874-28.6377Q44.6777-29.7363 44.6777-31.543Q44.6777-33.3496 45.874-34.4238Q47.0703-35.498 48.9258-35.498L100.977-35.498Q102.832-35.498 104.028-34.4238Q105.225-33.3496 105.225-31.543Q105.225-29.7363 104.028-28.6377Q102.832-27.5391 100.977-27.5391ZM58.8867-6.15234Q57.0312-6.15234 55.835-7.25098Q54.6387-8.34961 54.6387-10.1074Q54.6387-11.9141 55.835-12.9883Q57.0312-14.0625 58.8867-14.0625L91.0645-14.0625Q92.9199-14.0625 94.1162-12.9883Q95.3125-11.9141 95.3125-10.1074Q95.3125-8.34961 94.1162-7.25098Q92.9199-6.15234 91.0645-6.15234Z"/>
  </g>
  <g id="Light-L" transform="matrix(1 0 0 1 1079.18 1556)">
   <path d="M73.9258 27.3926Q84.2285 27.3926 93.6035 24.1943Q102.979 20.9961 110.815 15.2344Q118.652 9.47266 124.438 1.63574Q130.225-6.20117 133.423-15.5762Q136.621-24.9512 136.621-35.2539Q136.621-45.5566 133.423-54.9316Q130.225-64.3066 124.438-72.1436Q118.652-79.9805 110.815-85.7666Q102.979-91.5527 93.6035-94.751Q84.2285-97.9492 73.877-97.9492Q63.5742-97.9492 54.2236-94.751Q44.873-91.5527 37.0361-85.7666Q29.1992-79.9805 23.4131-72.1436Q17.627-64.3066 14.4531-54.9316Q11.2793-45.5566 11.2793-35.2539Q11.2793-24.9512 14.4775-15.5762Q17.6758-6.20117 23.4375 1.63574Q29.1992 9.47266 37.0361 15.2344Q44.873 20.9961 54.248 24.1943Q63.623 27.3926 73.9258 27.3926ZM38.2812-49.9512Q36.9141-49.9512 35.9619-50.7812Q35.0098-51.6113 35.0098-52.9785Q35.0098-54.3945 35.9619-55.249Q36.9141-56.1035 38.2812-56.1035L109.766-56.1035Q111.182-56.1035 112.085-55.249Q112.988-54.3945 112.988-52.9785Q112.988-51.6113 112.085-50.7812Q111.182-49.9512 109.766-49.9512ZM47.6562-28.8086Q46.2402-28.8086 45.3125-29.6631Q44.3848-30.5176 44.3848-31.9336Q44.3848-33.3008 45.3125-34.1553Q46.2402-35.0098 47.6562-35.0098L100.391-35.0098Q101.807-35.0098 102.734-34.1553Q103.662-33.3008 103.662-31.9336Q103.662-30.5176 102.734-29.6631Q101.807-28.8086 100.391-28.8086ZM57.4219-7.61719Q56.0059-7.61719 55.0781-8.47168Q54.1504-9.32617 54.1504-10.6934Q54.1504-12.0605 55.0781-12.915Q56.0059-13.7695 57.4219-13.7695L90.625-13.7695Q92.041-13.7695 92.9688-12.915Q93.8965-12.0605 93.8965-10.6934Q93.8965-9.32617 92.9688-8.47168Q92.041-7.61719 90.625-7.61719Z"/>
  </g>
  <g id="Thin-L" transform="matrix(1 0 0 1 783.693 1556)">
   <path d="M72.7051 26.1719Q82.8613 26.1719 92.041 23.0469Q101.221 19.9219 108.911 14.2822Q116.602 8.64258 122.266 0.952148Q127.93-6.73828 131.055-15.9424Q134.18-25.1465 134.18-35.2539Q134.18-45.4102 131.055-54.5898Q127.93-63.7695 122.29-71.46Q116.65-79.1504 108.936-84.8145Q101.221-90.4785 92.0166-93.6035Q82.8125-96.7285 72.7051-96.7285Q62.5488-96.7285 53.3691-93.6035Q44.1895-90.4785 36.499-84.8145Q28.8086-79.1504 23.1689-71.46Q17.5293-63.7695 14.4043-54.5898Q11.2793-45.4102 11.2793-35.2539Q11.2793-25.1465 14.4043-15.9424Q17.5293-6.73828 23.1689 0.952148Q28.8086 8.64258 36.5234 14.2822Q44.2383 19.9219 53.418 23.0469Q62.5977 26.1719 72.7051 26.1719ZM36.8652-51.2207Q35.9863-51.2207 35.4004-51.7578Q34.8145-52.2949 34.8145-53.125Q34.8145-54.0527 35.4004-54.5654Q35.9863-55.0781 36.8652-55.0781L108.74-55.0781Q109.57-55.0781 110.132-54.5654Q110.693-54.0527 110.693-53.125Q110.693-52.2949 110.132-51.7578Q109.57-51.2207 108.74-51.2207ZM45.9961-30.4688Q45.1172-30.4688 44.5312-31.0059Q43.9453-31.543 43.9453-32.4219Q43.9453-33.252 44.5312-33.7891Q45.1172-34.3262 45.9961-34.3262L99.6094-34.3262Q100.439-34.3262 101.001-33.7891Q101.562-33.252 101.562-32.4219Q101.562-31.543 101.001-31.0059Q100.439-30.4688 99.6094-30.4688ZM55.5176-9.52148Q54.6387-9.52148 54.0771-10.0342Q53.5156-10.5469 53.5156-11.4258Q53.5156-12.3047 54.0771-12.8174Q54.6387-13.3301 55.5176-13.3301L90.0879-13.3301Q90.8691-13.3301 91.4551-12.8174Q92.041-12.3047 92.041-11.4258Q92.041-10.5469 91.4551-10.0342Q90.8691-9.52148 90.0879-9.52148Z"/>
  </g>
  <g id="Ultralight-L" transform="matrix(1 0 0 1 487.592 1556)">
   <path d="M72.0703 25.5371Q82.1289 25.5371 91.2354 22.4609Q100.342 19.3848 107.935 13.7939Q115.527 8.20312 121.143 0.585938Q126.758-7.03125 129.858-16.1133Q132.959-25.1953 132.959-35.2539Q132.959-45.3125 129.858-54.4189Q126.758-63.5254 121.167-71.1182Q115.576-78.7109 107.959-84.3262Q100.342-89.9414 91.2354-93.0176Q82.1289-96.0938 72.0703-96.0938Q62.0605-96.0938 52.9541-93.0176Q43.8477-89.9414 36.2305-84.3262Q28.6133-78.7109 23.0225-71.1182Q17.4316-63.5254 14.3555-54.4189Q11.2793-45.3125 11.2793-35.2539Q11.2793-25.1953 14.3555-16.1133Q17.4316-7.03125 23.0225 0.585938Q28.6133 8.20312 36.2305 13.7939Q43.8477 19.3848 52.9541 22.4609Q62.0605 25.5371 72.0703 25.5371ZM36.084-51.9531Q35.5469-51.9531 35.1318-52.3193Q34.7168-52.6855 34.7168-53.2715Q34.7168-53.8574 35.1318-54.2236Q35.5469-54.5898 36.084-54.5898L108.252-54.5898Q108.789-54.5898 109.155-54.2236Q109.521-53.8574 109.521-53.2715Q109.521-52.6855 109.155-52.3193Q108.789-51.9531 108.252-51.9531ZM45.1172-31.3477Q44.5312-31.3477 44.1406-31.7383Q43.75-32.1289 43.75-32.666Q43.75-33.252 44.1406-33.6426Q44.5312-34.0332 45.1172-34.0332L99.2188-34.0332Q99.7559-34.0332 100.146-33.6426Q100.537-33.252 100.537-32.666Q100.537-32.1289 100.146-31.7383Q99.7559-31.3477 99.2188-31.3477ZM54.541-10.498Q53.9551-10.498 53.5889-10.8643Q53.2227-11.2305 53.2227-11.8652Q53.2227-12.4023 53.5889-12.793Q53.9551-13.1836 54.541-13.1836L89.7949-13.1836Q90.2832-13.1836 90.6982-12.793Q91.1133-12.4023 91.1133-11.8652Q91.1133-11.2305 90.6982-10.8643Q90.2832-10.498 89.7949-10.498Z"/>
  </g>
  <g id="Black-M" transform="matrix(1 0 0 1 2871.32 1126)">
   <path d="M62.0605 18.1152Q73.0957 18.1152 82.7637 13.9648Q92.4316 9.81445 99.7559 2.46582Q107.08-4.88281 111.255-14.5264Q115.43-24.1699 115.43-35.2051Q115.43-46.2402 111.255-55.8838Q107.08-65.5273 99.7559-72.876Q92.4316-80.2246 82.7637-84.375Q73.0957-88.5254 62.0605-88.5254Q51.0742-88.5254 41.4062-84.375Q31.7383-80.2246 24.3896-72.876Q17.041-65.5273 12.8906-55.8838Q8.74023-46.2402 8.74023-35.2051Q8.74023-24.1699 12.8906-14.5264Q17.041-4.88281 24.3896 2.46582Q31.7383 9.81445 41.4062 13.9648Q51.0742 18.1152 62.0605 18.1152ZM39.4531-43.8477Q36.5234-43.8477 34.7168-45.5322Q32.9102-47.2168 32.9102-49.9023Q32.9102-52.6367 34.7168-54.3213Q36.5234-56.0059 39.4531-56.0059L84.7168-56.0059Q87.6465-56.0059 89.4531-54.3213Q91.2598-52.6367 91.2598-49.9023Q91.2598-47.2168 89.4531-45.5322Q87.6465-43.8477 84.7168-43.8477ZM44.4824-26.709Q41.6016-26.709 39.7705-28.3691Q37.9395-30.0293 37.9395-32.7637Q37.9395-35.4492 39.7705-37.1582Q41.6016-38.8672 44.4824-38.8672L79.6875-38.8672Q82.5684-38.8672 84.3994-37.1582Q86.2305-35.4492 86.2305-32.7637Q86.2305-30.0293 84.3994-28.3691Q82.5684-26.709 79.6875-26.709ZM49.5605-9.57031Q46.6309-9.57031 44.8242-11.2305Q43.0176-12.8906 43.0176-15.5762Q43.0176-18.3105 44.8242-19.9951Q46.6309-21.6797 49.5605-21.6797L74.6094-21.6797Q77.4902-21.6797 79.3213-19.9951Q81.1523-18.3105 81.1523-15.5762Q81.1523-12.8906 79.3213-11.2305Q77.4902-9.57031 74.6094-9.57031Z"/>
  </g>
  <g id="Heavy-M" transform="matrix(1 0 0 1 2575.43 1126)">
   <path d="M61.2305 17.2852Q72.0703 17.2852 81.5918 13.1836Q91.1133 9.08203 98.3154 1.85547Q105.518-5.37109 109.644-14.8682Q113.77-24.3652 113.77-35.2051Q113.77-46.0449 109.644-55.542Q105.518-65.0391 98.3154-72.29Q91.1133-79.541 81.5918-83.6182Q72.0703-87.6953 61.2305-87.6953Q50.4395-87.6953 40.918-83.6182Q31.3965-79.541 24.1699-72.29Q16.9434-65.0391 12.8418-55.542Q8.74023-46.0449 8.74023-35.2051Q8.74023-24.3652 12.8418-14.8682Q16.9434-5.37109 24.1699 1.85547Q31.3965 9.08203 40.918 13.1836Q50.4395 17.2852 61.2305 17.2852ZM37.5-44.1895Q34.8633-44.1895 33.2275-45.7031Q31.5918-47.2168 31.5918-49.6582Q31.5918-52.0996 33.2275-53.6377Q34.8633-55.1758 37.5-55.1758L85.0586-55.1758Q87.6465-55.1758 89.3066-53.6377Q90.9668-52.0996 90.9668-49.6582Q90.9668-47.2168 89.3066-45.7031Q87.6465-44.1895 85.0586-44.1895ZM43.1152-27.1484Q40.4785-27.1484 38.8428-28.6377Q37.207-30.127 37.207-32.6172Q37.207-35.0586 38.8428-36.5967Q40.4785-38.1348 43.1152-38.1348L79.4434-38.1348Q82.0312-38.1348 83.6914-36.5967Q85.3516-35.0586 85.3516-32.6172Q85.3516-30.127 83.6914-28.6377Q82.0312-27.1484 79.4434-27.1484ZM48.8281-10.1074Q46.1914-10.1074 44.5557-11.5967Q42.9199-13.0859 42.9199-15.5273Q42.9199-18.0176 44.5557-19.5312Q46.1914-21.0449 48.8281-21.0449L73.7305-21.0449Q76.3184-21.0449 77.9785-19.5312Q79.6387-18.0176 79.6387-15.5273Q79.6387-13.0859 77.9785-11.5967Q76.3184-10.1074 73.7305-10.1074Z"/>
  </g>
  <g id="Bold-M" transform="matrix(1 0 0 1 2279.65 1126)">
   <path d="M60.3027 16.3574Q70.9473 16.3574 80.2734 12.3291Q89.5996 8.30078 96.7041 1.17188Q103.809-5.95703 107.861-15.2832Q111.914-24.6094 111.914-35.2539Q111.914-45.8496 107.861-55.1758Q103.809-64.502 96.7041-71.6309Q89.5996-78.7598 80.249-82.7881Q70.8984-86.8164 60.3027-86.8164Q49.707-86.8164 40.3564-82.7881Q31.0059-78.7598 23.9014-71.6309Q16.7969-64.502 12.7686-55.1758Q8.74023-45.8496 8.74023-35.2539Q8.74023-24.6094 12.7686-15.2832Q16.7969-5.95703 23.9258 1.17188Q31.0547 8.30078 40.3809 12.3291Q49.707 16.3574 60.3027 16.3574ZM35.3516-44.5801Q33.0566-44.5801 31.5918-45.8984Q30.127-47.2168 30.127-49.3652Q30.127-51.5137 31.5918-52.8564Q33.0566-54.1992 35.3516-54.1992L85.4004-54.1992Q87.6953-54.1992 89.1602-52.8564Q90.625-51.5137 90.625-49.3652Q90.625-47.2168 89.1602-45.8984Q87.6953-44.5801 85.4004-44.5801ZM41.6016-27.6367Q39.3066-27.6367 37.8418-28.9551Q36.377-30.2734 36.377-32.4707Q36.377-34.6191 37.8418-35.9619Q39.3066-37.3047 41.6016-37.3047L79.1504-37.3047Q81.4453-37.3047 82.9102-35.9619Q84.375-34.6191 84.375-32.4707Q84.375-30.2734 82.9102-28.9551Q81.4453-27.6367 79.1504-27.6367ZM48.0469-10.7422Q45.7031-10.7422 44.2627-12.0605Q42.8223-13.3789 42.8223-15.5273Q42.8223-17.6758 44.2627-19.0186Q45.7031-20.3613 48.0469-20.3613L72.7539-20.3613Q75-20.3613 76.4648-19.0186Q77.9297-17.6758 77.9297-15.5273Q77.9297-13.3789 76.4648-12.0605Q75-10.7422 72.7539-10.7422Z"/>
  </g>
  <g id="Semibold-M" transform="matrix(1 0 0 1 1983.6 1126)">
   <path d="M59.668 15.6738Q70.1172 15.6738 79.3457 11.6943Q88.5742 7.71484 95.6055 0.683594Q102.637-6.34766 106.616-15.5518Q110.596-24.7559 110.596-35.2539Q110.596-45.7031 106.616-54.9072Q102.637-64.1113 95.6055-71.1426Q88.5742-78.1738 79.3457-82.1777Q70.1172-86.1816 59.6191-86.1816Q49.1699-86.1816 39.9658-82.1777Q30.7617-78.1738 23.7305-71.1426Q16.6992-64.1113 12.7197-54.9072Q8.74023-45.7031 8.74023-35.2539Q8.74023-24.7559 12.7197-15.5518Q16.6992-6.34766 23.7305 0.683594Q30.7617 7.71484 39.9902 11.6943Q49.2188 15.6738 59.668 15.6738ZM33.7891-44.873Q31.7383-44.873 30.4199-46.0693Q29.1016-47.2656 29.1016-49.1699Q29.1016-51.1719 30.4199-52.3926Q31.7383-53.6133 33.7891-53.6133L85.6445-53.6133Q87.6953-53.6133 89.0137-52.3926Q90.332-51.1719 90.332-49.1699Q90.332-47.2656 89.0137-46.0693Q87.6953-44.873 85.6445-44.873ZM40.5273-28.0273Q38.4277-28.0273 37.1094-29.2236Q35.791-30.4199 35.791-32.373Q35.791-34.3262 37.1094-35.5469Q38.4277-36.7676 40.5273-36.7676L78.9551-36.7676Q81.0059-36.7676 82.3242-35.5469Q83.6426-34.3262 83.6426-32.373Q83.6426-30.4199 82.3242-29.2236Q81.0059-28.0273 78.9551-28.0273ZM47.4609-11.1816Q45.3613-11.1816 44.043-12.3779Q42.7246-13.5742 42.7246-15.5273Q42.7246-17.4805 44.043-18.6768Q45.3613-19.873 47.4609-19.873L72.0215-19.873Q74.0723-19.873 75.3906-18.6768Q76.709-17.4805 76.709-15.5273Q76.709-13.5742 75.3906-12.3779Q74.0723-11.1816 72.0215-11.1816Z"/>
  </g>
  <g id="Medium-M" transform="matrix(1 0 0 1 1687.38 1126)">
   <path d="M59.1797 15.1855Q69.5312 15.1855 78.6621 11.2305Q87.793 7.27539 94.751 0.317383Q101.709-6.64062 105.664-15.7715Q109.619-24.9023 109.619-35.2539Q109.619-45.6055 105.664-54.7363Q101.709-63.8672 94.751-70.8252Q87.793-77.7832 78.6377-81.7383Q69.4824-85.6934 59.1309-85.6934Q48.7793-85.6934 39.6484-81.7383Q30.5176-77.7832 23.584-70.8252Q16.6504-63.8672 12.6953-54.7363Q8.74023-45.6055 8.74023-35.2539Q8.74023-24.9023 12.6953-15.7715Q16.6504-6.64062 23.6084 0.317383Q30.5664 7.27539 39.6973 11.2305Q48.8281 15.1855 59.1797 15.1855ZM32.7148-45.0684Q30.8105-45.0684 29.5898-46.167Q28.3691-47.2656 28.3691-49.0234Q28.3691-50.8301 29.5898-51.9531Q30.8105-53.0762 32.7148-53.0762L85.8398-53.0762Q87.7441-53.0762 88.9648-51.9531Q90.1855-50.8301 90.1855-49.0234Q90.1855-47.2656 88.9648-46.167Q87.7441-45.0684 85.8398-45.0684ZM39.7461-28.2715Q37.8418-28.2715 36.6211-29.3701Q35.4004-30.4688 35.4004-32.2754Q35.4004-34.082 36.6211-35.2295Q37.8418-36.377 39.7461-36.377L78.8086-36.377Q80.7617-36.377 81.958-35.2295Q83.1543-34.082 83.1543-32.2754Q83.1543-30.4688 81.958-29.3701Q80.7617-28.2715 78.8086-28.2715ZM47.0703-11.5234Q45.1172-11.5234 43.9209-12.6221Q42.7246-13.7207 42.7246-15.5273Q42.7246-17.334 43.9209-18.4326Q45.1172-19.5312 47.0703-19.5312L71.5332-19.5312Q73.4375-19.5312 74.6338-18.4326Q75.8301-17.334 75.8301-15.5273Q75.8301-13.7207 74.6338-12.6221Q73.4375-11.5234 71.5332-11.5234Z"/>
  </g>
  <g id="Regular-M" transform="matrix(1 0 0 1 1391.3 1126)">
   <path d="M58.5449 14.5508Q68.75 14.5508 77.7588 10.6445Q86.7676 6.73828 93.6523-0.146484Q100.537-7.03125 104.443-16.04Q108.35-25.0488 108.35-35.2539Q108.35-45.459 104.443-54.4678Q100.537-63.4766 93.6523-70.3613Q86.7676-77.2461 77.7344-81.1523Q68.7012-85.0586 58.4961-85.0586Q48.291-85.0586 39.2822-81.1523Q30.2734-77.2461 23.4131-70.3613Q16.5527-63.4766 12.6465-54.4678Q8.74023-45.459 8.74023-35.2539Q8.74023-25.0488 12.6465-16.04Q16.5527-7.03125 23.4375-0.146484Q30.3223 6.73828 39.3311 10.6445Q48.3398 14.5508 58.5449 14.5508ZM31.2012-45.3125Q29.541-45.3125 28.4424-46.2891Q27.3438-47.2656 27.3438-48.8281Q27.3438-50.4395 28.4424-51.4404Q29.541-52.4414 31.2012-52.4414L86.084-52.4414Q87.7441-52.4414 88.8428-51.4404Q89.9414-50.4395 89.9414-48.8281Q89.9414-47.2656 88.8428-46.2891Q87.7441-45.3125 86.084-45.3125ZM38.6719-28.6133Q36.9629-28.6133 35.8887-29.5898Q34.8145-30.5664 34.8145-32.1777Q34.8145-33.7891 35.8887-34.79Q36.9629-35.791 38.6719-35.791L78.6133-35.791Q80.3223-35.791 81.3965-34.79Q82.4707-33.7891 82.4707-32.1777Q82.4707-30.5664 81.3965-29.5898Q80.3223-28.6133 78.6133-28.6133ZM46.4844-11.9141Q44.7754-11.9141 43.7012-12.8906Q42.627-13.8672 42.627-15.4785Q42.627-17.0898 43.7012-18.0664Q44.7754-19.043 46.4844-19.043L70.8496-19.043Q72.5098-19.043 73.584-18.0664Q74.6582-17.0898 74.6582-15.4785Q74.6582-13.8672 73.584-12.8906Q72.5098-11.9141 70.8496-11.9141Z"/>
  </g>
  <g id="Light-M" transform="matrix(1 0 0 1 1095.42 1126)">
   <path d="M57.7148 13.7207Q67.7734 13.7207 76.6357 9.8877Q85.498 6.05469 92.2607-0.708008Q99.0234-7.4707 102.856-16.333Q106.689-25.1953 106.689-35.2539Q106.689-45.3125 102.856-54.1748Q99.0234-63.0371 92.2607-69.7998Q85.498-76.5625 76.6113-80.3955Q67.7246-84.2285 57.666-84.2285Q47.6074-84.2285 38.7451-80.3955Q29.8828-76.5625 23.1445-69.7998Q16.4062-63.0371 12.5732-54.1748Q8.74023-45.3125 8.74023-35.2539Q8.74023-25.1953 12.5732-16.333Q16.4062-7.4707 23.1689-0.708008Q29.9316 6.05469 38.7939 9.8877Q47.6562 13.7207 57.7148 13.7207ZM30.1758-46.2402Q28.9062-46.2402 28.0518-46.9971Q27.1973-47.7539 27.1973-48.9746Q27.1973-50.1953 28.0518-50.9766Q28.9062-51.7578 30.1758-51.7578L85.4004-51.7578Q86.6699-51.7578 87.5244-50.9766Q88.3789-50.1953 88.3789-48.9746Q88.3789-47.7539 87.5244-46.9971Q86.6699-46.2402 85.4004-46.2402ZM37.5-29.7363Q36.1816-29.7363 35.3516-30.4932Q34.5215-31.25 34.5215-32.5195Q34.5215-33.7891 35.3516-34.5703Q36.1816-35.3516 37.5-35.3516L78.0762-35.3516Q79.3945-35.3516 80.2246-34.5703Q81.0547-33.7891 81.0547-32.5195Q81.0547-31.25 80.2246-30.4932Q79.3945-29.7363 78.0762-29.7363ZM45.166-13.2324Q43.8477-13.2324 43.0176-13.9893Q42.1875-14.7461 42.1875-16.0156Q42.1875-17.2363 43.0176-17.9932Q43.8477-18.75 45.166-18.75L70.459-18.75Q71.7285-18.75 72.5586-17.9932Q73.3887-17.2363 73.3887-16.0156Q73.3887-14.7461 72.5586-13.9893Q71.7285-13.2324 70.459-13.2324Z"/>
  </g>
  <g id="Thin-M" transform="matrix(1 0 0 1 799.782 1126)">
   <path d="M56.5918 12.5977Q66.5039 12.5977 75.1709 8.88672Q83.8379 5.17578 90.4297-1.44043Q97.0215-8.05664 100.781-16.7236Q104.541-25.3906 104.541-35.2539Q104.541-45.1172 100.781-53.7842Q97.0215-62.4512 90.4297-69.0674Q83.8379-75.6836 75.1709-79.3945Q66.5039-83.1055 56.5918-83.1055Q46.7285-83.1055 38.0615-79.3945Q29.3945-75.6836 22.8271-69.0674Q16.2598-62.4512 12.5-53.7842Q8.74023-45.1172 8.74023-35.2539Q8.74023-25.3906 12.4756-16.7236Q16.2109-8.05664 22.8027-1.44043Q29.3945 5.17578 38.0859 8.88672Q46.7773 12.5977 56.5918 12.5977ZM28.9062-47.3633Q28.125-47.3633 27.5879-47.8271Q27.0508-48.291 27.0508-49.0723Q27.0508-49.8535 27.5879-50.3418Q28.125-50.8301 28.9062-50.8301L84.5215-50.8301Q85.3027-50.8301 85.8154-50.3418Q86.3281-49.8535 86.3281-49.0723Q86.3281-48.291 85.8154-47.8271Q85.3027-47.3633 84.5215-47.3633ZM36.0352-31.2012Q35.2051-31.2012 34.6924-31.665Q34.1797-32.1289 34.1797-32.9102Q34.1797-33.6914 34.6924-34.1797Q35.2051-34.668 36.0352-34.668L77.3926-34.668Q78.1738-34.668 78.6865-34.1797Q79.1992-33.6914 79.1992-32.9102Q79.1992-32.1289 78.6865-31.665Q78.1738-31.2012 77.3926-31.2012ZM43.5059-14.8926Q42.6758-14.8926 42.1631-15.3809Q41.6504-15.8691 41.6504-16.6016Q41.6504-17.3828 42.1631-17.8711Q42.6758-18.3594 43.5059-18.3594L69.9707-18.3594Q70.7031-18.3594 71.2402-17.8711Q71.7773-17.3828 71.7773-16.6016Q71.7773-15.8691 71.2402-15.3809Q70.7031-14.8926 69.9707-14.8926Z"/>
  </g>
  <g id="Ultralight-M" transform="matrix(1 0 0 1 503.632 1126)">
   <path d="M56.0547 12.0605Q65.8203 12.0605 74.3896 8.37402Q82.959 4.6875 89.4775-1.83105Q95.9961-8.34961 99.707-16.9189Q103.418-25.4883 103.418-35.2539Q103.418-45.0195 99.707-53.5889Q95.9961-62.1582 89.4775-68.6768Q82.959-75.1953 74.3896-78.8818Q65.8203-82.5684 56.0547-82.5684Q46.2891-82.5684 37.7197-78.8818Q29.1504-75.1953 22.6562-68.6768Q16.1621-62.1582 12.4512-53.5889Q8.74023-45.0195 8.74023-35.2539Q8.74023-25.4883 12.4268-16.9189Q16.1133-8.34961 22.6318-1.83105Q29.1504 4.6875 37.7197 8.37402Q46.2891 12.0605 56.0547 12.0605ZM28.2227-47.998Q27.6855-47.998 27.3193-48.3154Q26.9531-48.6328 26.9531-49.2188Q26.9531-49.707 27.3193-50.0488Q27.6855-50.3906 28.2227-50.3906L84.082-50.3906Q84.5703-50.3906 84.9365-50.0488Q85.3027-49.707 85.3027-49.2188Q85.3027-48.6328 84.9365-48.3154Q84.5703-47.998 84.082-47.998ZM35.2539-31.9824Q34.7168-31.9824 34.3506-32.2998Q33.9844-32.6172 33.9844-33.2031Q33.9844-33.6914 34.3506-34.0332Q34.7168-34.375 35.2539-34.375L77.0508-34.375Q77.5391-34.375 77.8809-34.0332Q78.2227-33.6914 78.2227-33.2031Q78.2227-32.6172 77.8809-32.2998Q77.5391-31.9824 77.0508-31.9824ZM42.5781-15.7715Q42.0898-15.7715 41.6992-16.1133Q41.3086-16.4551 41.3086-16.9922Q41.3086-17.5293 41.6992-17.8467Q42.0898-18.1641 42.5781-18.1641L69.6777-18.1641Q70.166-18.1641 70.5322-17.8467Q70.8984-17.5293 70.8984-16.9922Q70.8984-16.4551 70.5322-16.1133Q70.166-15.7715 69.6777-15.7715Z"/>
  </g>
  <g id="Black-S" transform="matrix(1 0 0 1 2884.57 696)">
   <path d="M48.8281 6.78711Q57.5195 6.78711 65.1123 3.51562Q72.7051 0.244141 78.4912-5.54199Q84.2773-11.3281 87.5488-18.9209Q90.8203-26.5137 90.8203-35.2051Q90.8203-43.8965 87.5488-51.4893Q84.2773-59.082 78.4912-64.8682Q72.7051-70.6543 65.1123-73.9258Q57.5195-77.1973 48.8281-77.1973Q40.1367-77.1973 32.5439-73.9258Q24.9512-70.6543 19.165-64.8682Q13.3789-59.082 10.1074-51.4893Q6.83594-43.8965 6.83594-35.2051Q6.83594-26.5137 10.1074-18.9209Q13.3789-11.3281 19.165-5.54199Q24.9512 0.244141 32.5439 3.51562Q40.1367 6.78711 48.8281 6.78711ZM31.4453-41.9434Q29.0527-41.9434 27.6123-43.2861Q26.1719-44.6289 26.1719-46.8262Q26.1719-49.0234 27.6123-50.3662Q29.0527-51.709 31.4453-51.709L66.2109-51.709Q68.6035-51.709 70.0439-50.3662Q71.4844-49.0234 71.4844-46.8262Q71.4844-44.6289 70.0439-43.2861Q68.6035-41.9434 66.2109-41.9434ZM35.2051-28.4668Q32.8613-28.4668 31.3965-29.8096Q29.9316-31.1523 29.9316-33.3496Q29.9316-35.498 31.3965-36.8896Q32.8613-38.2812 35.2051-38.2812L62.4512-38.2812Q64.7949-38.2812 66.2598-36.8896Q67.7246-35.498 67.7246-33.3496Q67.7246-31.1523 66.2598-29.8096Q64.7949-28.4668 62.4512-28.4668ZM38.9648-15.0391Q36.6211-15.0391 35.1562-16.3818Q33.6914-17.7246 33.6914-19.873Q33.6914-22.0703 35.1562-23.4375Q36.6211-24.8047 38.9648-24.8047L58.6914-24.8047Q61.0352-24.8047 62.5-23.4375Q63.9648-22.0703 63.9648-19.873Q63.9648-17.7246 62.5-16.3818Q61.0352-15.0391 58.6914-15.0391Z"/>
  </g>
  <g id="Heavy-S" transform="matrix(1 0 0 1 2588.47 696)">
   <path d="M48.1934 6.15234Q56.7871 6.15234 64.2578 2.92969Q71.7285-0.292969 77.4414-6.00586Q83.1543-11.7188 86.377-19.1895Q89.5996-26.6602 89.5996-35.2051Q89.5996-43.75 86.377-51.2451Q83.1543-58.7402 77.4414-64.4531Q71.7285-70.166 64.2334-73.3887Q56.7383-76.6113 48.1934-76.6113Q39.6484-76.6113 32.1777-73.3887Q24.707-70.166 18.9941-64.4531Q13.2812-58.7402 10.0586-51.2451Q6.83594-43.75 6.83594-35.2051Q6.83594-26.6602 10.0586-19.1895Q13.2812-11.7188 18.9941-6.00586Q24.707-0.292969 32.2021 2.92969Q39.6973 6.15234 48.1934 6.15234ZM29.8828-42.1387Q27.7344-42.1387 26.3916-43.3594Q25.0488-44.5801 25.0488-46.582Q25.0488-48.6328 26.3916-49.8535Q27.7344-51.0742 29.8828-51.0742L66.5527-51.0742Q68.75-51.0742 70.0684-49.8535Q71.3867-48.6328 71.3867-46.582Q71.3867-44.5801 70.0684-43.3594Q68.75-42.1387 66.5527-42.1387ZM34.1797-28.7109Q32.0312-28.7109 30.6885-29.9316Q29.3457-31.1523 29.3457-33.2031Q29.3457-35.1562 30.6885-36.4258Q32.0312-37.6953 34.1797-37.6953L62.3047-37.6953Q64.4531-37.6953 65.7959-36.4258Q67.1387-35.1562 67.1387-33.2031Q67.1387-31.1523 65.7959-29.9316Q64.4531-28.7109 62.3047-28.7109ZM38.4766-15.332Q36.3281-15.332 34.9854-16.5771Q33.6426-17.8223 33.6426-19.7754Q33.6426-21.7773 34.9854-23.0469Q36.3281-24.3164 38.4766-24.3164L57.959-24.3164Q60.1074-24.3164 61.4502-23.0469Q62.793-21.7773 62.793-19.7754Q62.793-17.8223 61.4502-16.5771Q60.1074-15.332 57.959-15.332Z"/>
  </g>
  <g id="Bold-S" transform="matrix(1 0 0 1 2292.42 696)">
   <path d="M47.5586 5.46875Q55.957 5.46875 63.3057 2.29492Q70.6543-0.878906 76.2695-6.51855Q81.8848-12.1582 85.083-19.5068Q88.2812-26.8555 88.2812-35.2539Q88.2812-43.6035 85.083-50.9766Q81.8848-58.3496 76.2695-63.9648Q70.6543-69.5801 63.2812-72.7539Q55.9082-75.9277 47.5098-75.9277Q39.1602-75.9277 31.7871-72.7539Q24.4141-69.5801 18.8232-63.9648Q13.2324-58.3496 10.0342-50.9766Q6.83594-43.6035 6.83594-35.2539Q6.83594-26.8555 10.0342-19.5068Q13.2324-12.1582 18.8477-6.51855Q24.4629-0.878906 31.8115 2.29492Q39.1602 5.46875 47.5586 5.46875ZM28.1738-42.334Q26.2695-42.334 25.0488-43.4326Q23.8281-44.5312 23.8281-46.3379Q23.8281-48.1445 25.0488-49.2676Q26.2695-50.3906 28.1738-50.3906L66.9922-50.3906Q68.9453-50.3906 70.1416-49.2676Q71.3379-48.1445 71.3379-46.3379Q71.3379-44.5312 70.1416-43.4326Q68.9453-42.334 66.9922-42.334ZM33.0566-28.9551Q31.1035-28.9551 29.9072-30.0781Q28.7109-31.2012 28.7109-33.0078Q28.7109-34.8145 29.9072-35.9375Q31.1035-37.0605 33.0566-37.0605L62.1582-37.0605Q64.1113-37.0605 65.3076-35.9375Q66.5039-34.8145 66.5039-33.0078Q66.5039-31.2012 65.3076-30.0781Q64.1113-28.9551 62.1582-28.9551ZM37.9883-15.6738Q36.084-15.6738 34.8633-16.7969Q33.6426-17.9199 33.6426-19.6777Q33.6426-21.4844 34.8633-22.6074Q36.084-23.7305 37.9883-23.7305L57.1777-23.7305Q59.1309-23.7305 60.3271-22.6074Q61.5234-21.4844 61.5234-19.6777Q61.5234-17.9199 60.3271-16.7969Q59.1309-15.6738 57.1777-15.6738Z"/>
  </g>
  <g id="Semibold-S" transform="matrix(1 0 0 1 1996.2 696)">
   <path d="M47.0703 4.98047Q55.3711 4.98047 62.6465 1.85547Q69.9219-1.26953 75.4639-6.86035Q81.0059-12.4512 84.1553-19.7266Q87.3047-27.002 87.3047-35.2539Q87.3047-43.5059 84.1553-50.7812Q81.0059-58.0566 75.4395-63.623Q69.873-69.1895 62.5977-72.3389Q55.3223-75.4883 47.0215-75.4883Q38.7695-75.4883 31.4941-72.3389Q24.2188-69.1895 18.6768-63.623Q13.1348-58.0566 9.98535-50.7812Q6.83594-43.5059 6.83594-35.2539Q6.83594-27.002 9.98535-19.7266Q13.1348-12.4512 18.7012-6.86035Q24.2676-1.26953 31.543 1.85547Q38.8184 4.98047 47.0703 4.98047ZM27.002-42.4316Q25.2441-42.4316 24.1211-43.457Q22.998-44.4824 22.998-46.1426Q22.998-47.8027 24.1211-48.8281Q25.2441-49.8535 27.002-49.8535L67.2852-49.8535Q69.0918-49.8535 70.1904-48.8281Q71.2891-47.8027 71.2891-46.1426Q71.2891-44.4824 70.1904-43.457Q69.0918-42.4316 67.2852-42.4316ZM32.2754-29.1504Q30.4688-29.1504 29.3701-30.1758Q28.2715-31.2012 28.2715-32.8613Q28.2715-34.5703 29.3701-35.5957Q30.4688-36.6211 32.2754-36.6211L62.0605-36.6211Q63.8672-36.6211 64.9658-35.5957Q66.0645-34.5703 66.0645-32.8613Q66.0645-31.2012 64.9658-30.1758Q63.8672-29.1504 62.0605-29.1504ZM37.6465-15.918Q35.8887-15.918 34.7656-16.9434Q33.6426-17.9688 33.6426-19.6289Q33.6426-21.2891 34.7656-22.3145Q35.8887-23.3398 37.6465-23.3398L56.6406-23.3398Q58.4473-23.3398 59.5459-22.3145Q60.6445-21.2891 60.6445-19.6289Q60.6445-17.9688 59.5459-16.9434Q58.4473-15.918 56.6406-15.918Z"/>
  </g>
  <g id="Medium-S" transform="matrix(1 0 0 1 1699.83 696)">
   <path d="M46.7285 4.63867Q54.9316 4.63867 62.1338 1.51367Q69.3359-1.61133 74.8535-7.12891Q80.3711-12.6465 83.4961-19.8486Q86.6211-27.0508 86.6211-35.2539Q86.6211-43.4082 83.4961-50.6348Q80.3711-57.8613 74.8291-63.3789Q69.2871-68.8965 62.085-71.9971Q54.8828-75.0977 46.6797-75.0977Q38.4766-75.0977 31.2744-71.9971Q24.0723-68.8965 18.5791-63.3789Q13.0859-57.8613 9.96094-50.6348Q6.83594-43.4082 6.83594-35.2539Q6.83594-27.0508 9.96094-19.8486Q13.0859-12.6465 18.6035-7.12891Q24.1211-1.61133 31.3232 1.51367Q38.5254 4.63867 46.7285 4.63867ZM26.0742-42.5293Q24.4141-42.5293 23.3643-43.4814Q22.3145-44.4336 22.3145-45.9961Q22.3145-47.5586 23.3643-48.5352Q24.4141-49.5117 26.0742-49.5117L67.4805-49.5117Q69.1406-49.5117 70.1904-48.5352Q71.2402-47.5586 71.2402-45.9961Q71.2402-44.4336 70.1904-43.4814Q69.1406-42.5293 67.4805-42.5293ZM31.6406-29.248Q29.9805-29.248 28.9307-30.2246Q27.8809-31.2012 27.8809-32.8125Q27.8809-34.375 28.9307-35.3271Q29.9805-36.2793 31.6406-36.2793L61.9629-36.2793Q63.623-36.2793 64.6729-35.3271Q65.7227-34.375 65.7227-32.8125Q65.7227-31.2012 64.6729-30.2246Q63.623-29.248 61.9629-29.248ZM37.3535-16.0645Q35.6934-16.0645 34.6436-17.041Q33.5938-18.0176 33.5938-19.5312Q33.5938-21.0938 34.6436-22.0703Q35.6934-23.0469 37.3535-23.0469L56.2012-23.0469Q57.8613-23.0469 58.9111-22.0703Q59.9609-21.0938 59.9609-19.5312Q59.9609-18.0176 58.9111-17.041Q57.8613-16.0645 56.2012-16.0645Z"/>
  </g>
  <g id="Regular-S" transform="matrix(1 0 0 1 1403.58 696)">
   <path d="M46.2402 4.15039Q54.3457 4.15039 61.4746 1.07422Q68.6035-2.00195 74.0479-7.4707Q79.4922-12.9395 82.5928-20.0684Q85.6934-27.1973 85.6934-35.2539Q85.6934-43.3105 82.5928-50.4395Q79.4922-57.5684 74.0234-63.0371Q68.5547-68.5059 61.4258-71.582Q54.2969-74.6582 46.1914-74.6582Q38.1348-74.6582 31.0059-71.582Q23.877-68.5059 18.457-63.0371Q13.0371-57.5684 9.93652-50.4395Q6.83594-43.3105 6.83594-35.2539Q6.83594-27.1973 9.93652-20.0684Q13.0371-12.9395 18.4814-7.4707Q23.9258-2.00195 31.0547 1.07422Q38.1836 4.15039 46.2402 4.15039ZM24.9023-42.6758Q23.4375-42.6758 22.4609-43.5303Q21.4844-44.3848 21.4844-45.8008Q21.4844-47.2656 22.4609-48.1445Q23.4375-49.0234 24.9023-49.0234L67.7734-49.0234Q69.2871-49.0234 70.2393-48.1445Q71.1914-47.2656 71.1914-45.8008Q71.1914-44.3848 70.2393-43.5303Q69.2871-42.6758 67.7734-42.6758ZM30.8594-29.4434Q29.3457-29.4434 28.3936-30.3223Q27.4414-31.2012 27.4414-32.666Q27.4414-34.1309 28.3936-34.9854Q29.3457-35.8398 30.8594-35.8398L61.8652-35.8398Q63.3789-35.8398 64.3311-34.9854Q65.2832-34.1309 65.2832-32.666Q65.2832-31.2012 64.3311-30.3223Q63.3789-29.4434 61.8652-29.4434ZM37.0117-16.3086Q35.498-16.3086 34.5459-17.1875Q33.5938-18.0664 33.5938-19.4824Q33.5938-20.8984 34.5459-21.7773Q35.498-22.6562 37.0117-22.6562L55.6641-22.6562Q57.1777-22.6562 58.1299-21.7773Q59.082-20.8984 59.082-19.4824Q59.082-18.0664 58.1299-17.1875Q57.1777-16.3086 55.6641-16.3086Z"/>
  </g>
  <g id="Light-S" transform="matrix(1 0 0 1 1107.6 696)">
   <path d="M45.5078 3.41797Q53.4668 3.41797 60.4736 0.415039Q67.4805-2.58789 72.8271-7.95898Q78.1738-13.3301 81.2012-20.3125Q84.2285-27.2949 84.2285-35.2539Q84.2285-43.2129 81.2012-50.1953Q78.1738-57.1777 72.8027-62.5488Q67.4316-67.9199 60.4492-70.9229Q53.4668-73.9258 45.459-73.9258Q37.5488-73.9258 30.542-70.9229Q23.5352-67.9199 18.2129-62.5488Q12.8906-57.1777 9.86328-50.1953Q6.83594-43.2129 6.83594-35.2539Q6.83594-27.2949 9.86328-20.3125Q12.8906-13.3301 18.2373-7.95898Q23.584-2.58789 30.5908 0.415039Q37.5977 3.41797 45.5078 3.41797ZM24.0723-43.457Q22.9004-43.457 22.1436-44.1406Q21.3867-44.8242 21.3867-45.9473Q21.3867-47.0703 22.1436-47.7539Q22.9004-48.4375 24.0723-48.4375L67.1875-48.4375Q68.3594-48.4375 69.0918-47.7539Q69.8242-47.0703 69.8242-45.9473Q69.8242-44.8242 69.0918-44.1406Q68.3594-43.457 67.1875-43.457ZM29.8828-30.4688Q28.7109-30.4688 27.9541-31.1523Q27.1973-31.8359 27.1973-32.959Q27.1973-34.1309 27.9541-34.79Q28.7109-35.4492 29.8828-35.4492L61.4258-35.4492Q62.5488-35.4492 63.3057-34.79Q64.0625-34.1309 64.0625-32.959Q64.0625-31.8359 63.3057-31.1523Q62.5488-30.4688 61.4258-30.4688ZM35.8887-17.4805Q34.7168-17.4805 33.9844-18.1641Q33.252-18.8477 33.252-19.9707Q33.252-21.0449 33.9844-21.7285Q34.7168-22.4121 35.8887-22.4121L55.3711-22.4121Q56.4941-22.4121 57.251-21.7285Q58.0078-21.0449 58.0078-19.9707Q58.0078-18.8477 57.251-18.1641Q56.4941-17.4805 55.3711-17.4805Z"/>
  </g>
  <g id="Thin-S" transform="matrix(1 0 0 1 811.867 696)">
   <path d="M44.5312 2.44141Q52.3438 2.44141 59.1553-0.488281Q65.9668-3.41797 71.1914-8.64258Q76.416-13.8672 79.3457-20.6787Q82.2754-27.4902 82.2754-35.2539Q82.2754-43.0176 79.3457-49.8291Q76.416-56.6406 71.1914-61.8652Q65.9668-67.0898 59.1553-70.0195Q52.3438-72.9492 44.5312-72.9492Q36.7676-72.9492 29.9316-70.0195Q23.0957-67.0898 17.9199-61.8652Q12.7441-56.6406 9.79004-49.8291Q6.83594-43.0176 6.83594-35.2539Q6.83594-27.4902 9.79004-20.6787Q12.7441-13.8672 17.9199-8.64258Q23.0957-3.41797 29.9316-0.488281Q36.7676 2.44141 44.5312 2.44141ZM22.8516-44.4824Q22.1191-44.4824 21.6553-44.9219Q21.1914-45.3613 21.1914-46.0449Q21.1914-46.7285 21.6553-47.168Q22.1191-47.6074 22.8516-47.6074L66.3574-47.6074Q67.041-47.6074 67.5049-47.168Q67.9688-46.7285 67.9688-46.0449Q67.9688-45.3613 67.5049-44.9219Q67.041-44.4824 66.3574-44.4824ZM28.5156-31.7383Q27.7344-31.7383 27.2949-32.1777Q26.8555-32.6172 26.8555-33.3008Q26.8555-34.0332 27.2949-34.4482Q27.7344-34.8633 28.5156-34.8633L60.7422-34.8633Q61.4258-34.8633 61.8896-34.4482Q62.3535-34.0332 62.3535-33.3008Q62.3535-32.6172 61.8896-32.1777Q61.4258-31.7383 60.7422-31.7383ZM34.375-18.9453Q33.6426-18.9453 33.1787-19.3848Q32.7148-19.8242 32.7148-20.5078Q32.7148-21.1914 33.1787-21.6309Q33.6426-22.0703 34.375-22.0703L54.8828-22.0703Q55.5664-22.0703 56.0303-21.6309Q56.4941-21.1914 56.4941-20.5078Q56.4941-19.8242 56.0303-19.3848Q55.5664-18.9453 54.8828-18.9453Z"/>
  </g>
  <g id="Ultralight-S" transform="matrix(1 0 0 1 515.644 696)">
   <path d="M44.043 1.95312Q51.7578 1.95312 58.4717-0.927734Q65.1855-3.80859 70.3369-8.95996Q75.4883-14.1113 78.3936-20.8252Q81.2988-27.5391 81.2988-35.2539Q81.2988-42.9688 78.3936-49.6826Q75.4883-56.3965 70.3369-61.5479Q65.1855-66.6992 58.4717-69.5801Q51.7578-72.4609 44.043-72.4609Q36.377-72.4609 29.6387-69.5801Q22.9004-66.6992 17.7734-61.5479Q12.6465-56.3965 9.74121-49.6826Q6.83594-42.9688 6.83594-35.2539Q6.83594-27.5391 9.74121-20.8252Q12.6465-14.1113 17.7734-8.95996Q22.9004-3.80859 29.6387-0.927734Q36.377 1.95312 44.043 1.95312ZM22.3145-45.0195Q21.7773-45.0195 21.46-45.3369Q21.1426-45.6543 21.1426-46.1426Q21.1426-46.6309 21.46-46.9238Q21.7773-47.2168 22.3145-47.2168L65.9668-47.2168Q66.4551-47.2168 66.7725-46.9238Q67.0898-46.6309 67.0898-46.1426Q67.0898-45.6543 66.7725-45.3369Q66.4551-45.0195 65.9668-45.0195ZM27.832-32.4707Q27.3438-32.4707 27.0264-32.7637Q26.709-33.0566 26.709-33.5449Q26.709-34.0332 27.0264-34.3262Q27.3438-34.6191 27.832-34.6191L60.4492-34.6191Q60.8887-34.6191 61.2061-34.3262Q61.5234-34.0332 61.5234-33.5449Q61.5234-33.0566 61.2061-32.7637Q60.8887-32.4707 60.4492-32.4707ZM33.6426-19.7754Q33.1055-19.7754 32.7881-20.0684Q32.4707-20.3613 32.4707-20.8496Q32.4707-21.3379 32.7881-21.6309Q33.1055-21.9238 33.6426-21.9238L54.6875-21.9238Q55.127-21.9238 55.4688-21.6309Q55.8105-21.3379 55.8105-20.8496Q55.8105-20.3613 55.4688-20.0684Q55.127-19.7754 54.6875-19.7754Z"/>
  </g>
 </g>
</svg>
