<svg width="20" height="20" viewBox="0 0 20 20" fill="none" xmlns="http://www.w3.org/2000/svg">
<g clip-path="url(#clip0_1_25)">
<path d="M8.68699 13.161C9.10175 13.1279 9.5394 13.1104 10 13.1104V18.0004H9V20H7V18.0004H5V20H3V18.0004L1 18V20.0004H19V16.6704C19 14.4404 16.66 11.1104 10 11.1104C9.26734 11.1104 8.58696 11.1507 7.95622 11.2254L8.68699 13.161Z" fill="#202122"/>
<path d="M6.67034 13.4819C6.1786 13.6059 5.73663 13.7571 5.34421 13.93L3.88102 12.4668C4.47089 12.1309 5.16223 11.839 5.96476 11.613L6.67034 13.4819Z" fill="#202122"/>
<path d="M3.11348 16H1.06678C1.21206 15.2558 1.6005 14.447 2.29105 13.7053L3.6676 15.0818C3.40579 15.3744 3.22122 15.6843 3.11348 16Z" fill="#202122"/>
<path d="M10.3894 0.0149379C13.0066 0.211194 15.06 2.36956 15.06 5.0004C15.06 7.7594 12.8 10.0004 10 10.0004C9.66607 10.0004 9.33979 9.96727 9.02419 9.90483L9.41233 7.94285C9.60079 7.98014 9.79708 8 10 8V2C9.79708 2 9.60079 2.01986 9.41233 2.05715L9.02419 0.0951702C9.33979 0.0327347 9.66607 0 10 0C10.131 0 10.2609 0.00504041 10.3894 0.0149379Z" fill="#202122"/>
<path d="M8.33456 2.50411L7.22192 0.842173C6.67666 1.20721 6.20721 1.67666 5.84217 2.22192L7.50411 3.33456C7.72371 3.00654 8.00654 2.72371 8.33456 2.50411Z" fill="#202122"/>
<path d="M5 5C5 4.66607 5.03273 4.33979 5.09517 4.02419L7.05715 4.41233C7.01986 4.60079 7 4.79708 7 5C7 5.20292 7.01986 5.39921 7.05715 5.58767L5.09517 5.97581C5.03273 5.66021 5 5.33393 5 5Z" fill="#202122"/>
<path d="M7.50411 6.66544L5.84217 7.77808C6.20721 8.32334 6.67666 8.79279 7.22192 9.15783L8.33456 7.49589C8.00654 7.27629 7.72371 6.99346 7.50411 6.66544Z" fill="#202122"/>
</g>
<defs>
<clipPath id="clip0_1_25">
<rect width="20" height="20" fill="white"/>
</clipPath>
</defs>
</svg>
