<svg width="95" height="182" viewBox="0 0 95 182" fill="none" xmlns="http://www.w3.org/2000/svg">
<g id="Group 44">
<path id="Vector" fill-rule="evenodd" clip-rule="evenodd" d="M9.38995 1C7.53344 1 5.753 1.7375 4.44025 3.05025C3.12749 4.36301 2.38995 6.14348 2.38995 8V26.63C2.12662 26.7472 1.90265 26.9378 1.74481 27.179C1.58697 27.4202 1.50199 27.7018 1.5 27.99V35.51C1.5 36.11 1.86995 36.64 2.38995 36.87V40.13C2.12662 40.2472 1.90265 40.4378 1.74481 40.679C1.58697 40.9202 1.50199 41.2018 1.5 41.49V43.01C1.5 43.61 1.86995 44.14 2.38995 44.37V46.13C2.12662 46.2472 1.90265 46.4378 1.74481 46.679C1.58697 46.9202 1.50199 47.2018 1.5 47.49V49.01C1.5 49.61 1.86995 50.14 2.38995 50.37V174C2.38995 175.857 3.12749 177.637 4.44025 178.95C5.753 180.263 7.53344 181 9.38995 181H86.5C88.3565 181 90.137 180.263 91.4497 178.95C92.7625 177.637 93.5 175.857 93.5 174V8C93.5 6.14348 92.7625 4.36301 91.4497 3.05025C90.137 1.7375 88.3565 1 86.5 1H9.38995Z" fill="#72777D"/>
<g id="Mask group">
<mask id="mask0_232_1245" style="mask-type:luminance" maskUnits="userSpaceOnUse" x="0" y="0" width="95" height="182">
<g id="Group">
<path id="Vector_2" d="M0.5 0H94.5V182H0.5V0Z" fill="white"/>
<path id="Vector_3" fill-rule="evenodd" clip-rule="evenodd" d="M9.38995 1C7.53344 1 5.753 1.7375 4.44025 3.05025C3.12749 4.36301 2.38995 6.14348 2.38995 8V26.63C2.12662 26.7472 1.90265 26.9378 1.74481 27.179C1.58697 27.4202 1.50199 27.7018 1.5 27.99V35.51C1.5 36.11 1.86995 36.64 2.38995 36.87V40.13C2.12662 40.2472 1.90265 40.4378 1.74481 40.679C1.58697 40.9202 1.50199 41.2018 1.5 41.49V43.01C1.5 43.61 1.86995 44.14 2.38995 44.37V46.13C2.12662 46.2472 1.90265 46.4378 1.74481 46.679C1.58697 46.9202 1.50199 47.2018 1.5 47.49V49.01C1.5 49.61 1.86995 50.14 2.38995 50.37V174C2.38995 175.857 3.12749 177.637 4.44025 178.95C5.753 180.263 7.53344 181 9.38995 181H86.5C88.3565 181 90.137 180.263 91.4497 178.95C92.7625 177.637 93.5 175.857 93.5 174V8C93.5 6.14348 92.7625 4.36301 91.4497 3.05025C90.137 1.7375 88.3565 1 86.5 1H9.38995Z" fill="black"/>
</g>
</mask>
<g mask="url(#mask0_232_1245)">
<path id="Vector_4" d="M2.38995 26.63L2.78998 27.54L3.38995 27.28V26.63H2.38995ZM2.38995 36.87H3.38995V36.22L2.78998 35.96L2.38995 36.87ZM2.38995 40.13L2.78998 41.04L3.38995 40.78V40.13H2.38995ZM2.38995 44.37H3.38995V43.72L2.78998 43.46L2.38995 44.37ZM2.38995 46.13L2.78998 47.04L3.38995 46.78V46.13H2.38995ZM2.38995 50.37H3.38995V49.72L2.78998 49.46L2.38995 50.37ZM3.38995 8C3.38995 6.4087 4.02212 4.88258 5.14734 3.75736C6.27256 2.63214 7.79865 2 9.38995 2V0C7.26822 0 5.23338 0.842856 3.73309 2.34315C2.2328 3.84344 1.38995 5.87827 1.38995 8H3.38995ZM3.38995 26.63V8H1.38995V26.63H3.38995ZM2.5 27.99C2.50667 27.7767 2.60665 27.6267 2.79999 27.54L1.97998 25.71C1.53965 25.9068 1.16562 26.2267 0.903015 26.6313C0.640414 27.0358 0.500474 27.5077 0.5 27.99H2.5ZM2.5 35.51V27.99H0.5V35.51H2.5ZM2.79999 35.96C2.7121 35.9217 2.63705 35.8588 2.58386 35.7791C2.53067 35.6993 2.50159 35.6059 2.5 35.51H0.5C0.500474 35.9923 0.640414 36.4642 0.903015 36.8687C1.16562 37.2733 1.53965 37.5932 1.97998 37.79L2.79999 35.96ZM3.38995 40.13V36.87H1.38995V40.13H3.38995ZM1.98999 39.21C1.54778 39.4053 1.17168 39.7246 0.907227 40.1293C0.642776 40.5339 0.501335 41.0066 0.5 41.49H2.5C2.50667 41.2767 2.60665 41.1267 2.79999 41.04L1.97998 39.21H1.98999ZM0.5 41.49V43.01H2.5V41.49H0.5ZM0.5 43.01C0.500474 43.4923 0.640414 43.9642 0.903015 44.3687C1.16562 44.7733 1.53965 45.0932 1.97998 45.29L2.79999 43.46C2.7121 43.4217 2.63705 43.3588 2.58386 43.2791C2.53067 43.1993 2.50159 43.1059 2.5 43.01H0.5ZM3.38995 46.13V44.37H1.38995V46.13H3.38995ZM2.5 47.49C2.50667 47.2767 2.60665 47.1267 2.79999 47.04L1.97998 45.21C1.53965 45.4068 1.16562 45.7267 0.903015 46.1313C0.640414 46.5358 0.500474 47.0077 0.5 47.49H2.5ZM2.5 49.01V47.49H0.5V49.01H2.5ZM2.79999 49.46C2.7121 49.4217 2.63705 49.3588 2.58386 49.2791C2.53067 49.1993 2.50159 49.1059 2.5 49.01H0.5C0.500474 49.4923 0.640414 49.9642 0.903015 50.3687C1.16562 50.7733 1.53965 51.0932 1.97998 51.29L2.79999 49.46ZM3.38995 174V50.37H1.38995V174H3.38995ZM9.38995 180C7.79865 180 6.27256 179.368 5.14734 178.243C4.02212 177.117 3.38995 175.591 3.38995 174H1.38995C1.38995 176.122 2.2328 178.157 3.73309 179.657C5.23338 181.157 7.26822 182 9.38995 182V180ZM86.5 180H9.38995V182H86.5V180ZM92.5 174C92.5 175.591 91.8678 177.117 90.7426 178.243C89.6174 179.368 88.0913 180 86.5 180V182C88.6217 182 90.6565 181.157 92.1568 179.657C93.6571 178.157 94.5 176.122 94.5 174H92.5ZM92.5 8V174H94.5V8H92.5ZM86.5 2C88.0913 2 89.6174 2.63214 90.7426 3.75736C91.8678 4.88258 92.5 6.4087 92.5 8H94.5C94.5 5.87827 93.6571 3.84344 92.1568 2.34315C90.6565 0.842856 88.6217 0 86.5 0V2ZM9.38995 2H86.5V0H9.38995V2Z" fill="#72777D"/>
</g>
</g>
<path id="Vector_5" d="M85.756 2.125H10.137C6.27097 2.125 3.13696 5.25901 3.13696 9.125V172.875C3.13696 176.741 6.27097 179.875 10.137 179.875H85.756C89.622 179.875 92.756 176.741 92.756 172.875V9.125C92.756 5.25901 89.622 2.125 85.756 2.125Z" fill="#233566"/>
<path id="Vector_6" fill-rule="evenodd" clip-rule="evenodd" d="M7.61987 18C7.61987 17.8674 7.67253 17.7402 7.7663 17.6464C7.86006 17.5527 7.98726 17.5 8.11987 17.5H87.7698C87.9024 17.5 88.0296 17.5527 88.1234 17.6464C88.2172 17.7402 88.2698 17.8674 88.2698 18V164C88.2698 164.133 88.2172 164.26 88.1234 164.354C88.0296 164.447 87.9024 164.5 87.7698 164.5H8.11987C7.98726 164.5 7.86006 164.447 7.7663 164.354C7.67253 164.26 7.61987 164.133 7.61987 164V18Z" fill="#3366CC"/>
<path id="Vector_7" fill-rule="evenodd" clip-rule="evenodd" d="M36.0598 10.3201C36.0598 9.92224 36.2178 9.54071 36.4991 9.25941C36.7805 8.9781 37.162 8.82007 37.5598 8.82007H60.0198C60.4176 8.82007 60.7991 8.9781 61.0804 9.25941C61.3617 9.54071 61.5198 9.92224 61.5198 10.3201C61.5198 10.7179 61.3617 11.0994 61.0804 11.3807C60.7991 11.662 60.4176 11.8201 60.0198 11.8201H37.5598C37.162 11.8201 36.7805 11.662 36.4991 11.3807C36.2178 11.0994 36.0598 10.7179 36.0598 10.3201Z" fill="#052463"/>
<path id="Vector_8" d="M34.6948 10.3141C34.6948 9.48895 34.0261 8.82007 33.2013 8.82007C32.3765 8.82007 31.7078 9.48895 31.7078 10.3141V10.3261C31.7078 11.1512 32.3765 11.8201 33.2013 11.8201C34.0261 11.8201 34.6948 11.1512 34.6948 10.3261V10.3141Z" fill="#759ACF"/>
<path id="Vector_9" fill-rule="evenodd" clip-rule="evenodd" d="M78.7199 76.2601C78.7199 76.4765 78.6497 76.687 78.5199 76.8601C78.3999 77.0268 78.2532 77.1135 78.0799 77.1201C76.7799 77.2535 75.7166 77.6768 74.8899 78.3901C74.0566 79.1168 73.1999 80.4901 72.3199 82.5101L58.8199 113.19C58.7399 113.477 58.4966 113.62 58.0899 113.62C57.9385 113.626 57.7886 113.589 57.6576 113.512C57.5266 113.436 57.4199 113.325 57.3499 113.19L49.7899 97.2301L41.0899 113.2C41.0213 113.336 40.9152 113.45 40.7841 113.528C40.653 113.606 40.5024 113.645 40.3499 113.64C39.9566 113.64 39.7032 113.493 39.5899 113.2L26.3399 82.5201C25.5132 80.6135 24.6399 79.2834 23.7199 78.5301C22.6105 77.6937 21.2772 77.2063 19.8899 77.1301C19.7566 77.1301 19.6233 77.0568 19.4899 76.9101C19.3703 76.7635 19.3066 76.5793 19.3099 76.3901C19.3099 75.8968 19.4499 75.6501 19.7299 75.6501C20.9166 75.6501 22.1499 75.7001 23.4299 75.8001C24.5538 75.9023 25.6815 75.9557 26.8099 75.9601C27.8899 75.9601 29.1566 75.9101 30.6099 75.8101C31.9678 75.7113 33.3285 75.6579 34.6899 75.6501C34.9766 75.6501 35.1199 75.8968 35.1199 76.3901C35.1199 76.8901 35.0333 77.1401 34.8599 77.1401C33.6733 77.2401 32.7432 77.5401 32.0699 78.0401C31.7458 78.27 31.484 78.5767 31.3077 78.9328C31.1314 79.2888 31.0463 79.6831 31.0599 80.0801C31.0599 80.5068 31.1999 81.0401 31.4799 81.6801L42.4299 106.65L48.6499 94.7901L42.8499 82.5301C41.8166 80.3434 40.9633 78.9335 40.2899 78.3001C39.4356 77.5817 38.3655 77.1698 37.2499 77.1301C37.1166 77.1301 36.9999 77.0568 36.8999 76.9101C36.7978 76.7588 36.739 76.5824 36.7299 76.4001C36.7299 75.9001 36.8566 75.6501 37.1099 75.6501C38.2899 75.6501 39.3699 75.7034 40.3499 75.8101C41.2966 75.9101 42.3099 75.9601 43.3899 75.9601C44.5082 75.9594 45.626 75.9094 46.7399 75.8101C47.9371 75.7053 49.1382 75.6519 50.3399 75.6501C50.6199 75.6501 50.7632 75.9001 50.7699 76.4001C50.7799 77.1501 50.6899 77.1401 50.5099 77.1401C48.1432 77.3001 46.9599 77.9801 46.9599 79.1801C46.9599 79.7134 47.2332 80.5368 47.7799 81.6501L51.6099 89.5101L55.4099 82.3201C55.9432 81.3135 56.2099 80.4568 56.2099 79.7501C56.2099 78.1168 55.0266 77.2434 52.6599 77.1301C52.4399 77.1301 52.3332 76.8801 52.3399 76.3801C52.3448 76.2031 52.3965 76.0306 52.4899 75.8801C52.5966 75.7068 52.7066 75.6201 52.8199 75.6201C53.6599 75.6201 54.6966 75.6734 55.9299 75.7801C57.1166 75.8868 58.0866 75.9401 58.8399 75.9401C59.3866 75.9335 60.1866 75.8901 61.2399 75.8101C62.5799 75.6901 63.7033 75.6268 64.6099 75.6201C64.8099 75.6201 64.9099 75.8334 64.9099 76.2601C64.9099 76.8334 64.7166 77.1201 64.3299 77.1201C63.1397 77.1964 61.9923 77.5938 61.0099 78.2701C60.1699 78.8901 59.1266 80.3068 57.8799 82.5201L52.7999 92.0001L59.6899 106.15L69.8399 82.3001C70.1567 81.5376 70.3362 80.7251 70.3699 79.9001C70.3699 78.1468 69.1899 77.2201 66.8299 77.1201C66.6099 77.1201 66.4999 76.8701 66.4999 76.3701C66.4999 75.6201 66.6599 75.6201 66.9799 75.6201C67.8466 75.6201 68.8699 75.6734 70.0499 75.7801C71.1433 75.8868 72.0599 75.9401 72.7999 75.9401C73.5733 75.9401 74.4733 75.8868 75.4999 75.7801C76.4501 75.6797 77.4045 75.6263 78.3599 75.6201C78.5999 75.6201 78.7199 75.8334 78.7199 76.2601Z" fill="white"/>
<path id="Vector_10" fill-rule="evenodd" clip-rule="evenodd" d="M7.58984 18.9299C7.58984 18.6647 7.69522 18.4104 7.88275 18.2228C8.07029 18.0353 8.32463 17.9299 8.58984 17.9299H88.2598L7.58984 81.6799V18.9299Z" fill="#4272CD"/>
</g>
</svg>
