<svg width="24" height="21" viewBox="0 0 24 21" fill="none" xmlns="http://www.w3.org/2000/svg">
<path d="M18.8242 0C22.0369 2.54544e-05 23.7616 1.65321 23.7617 4.58887V12.2646C23.7617 15.2005 22.037 16.8635 18.8242 16.8535L11.5361 16.8438L7.64355 20.1504C7.13703 20.5911 6.82461 20.7919 6.4043 20.792C5.7898 20.792 5.44438 20.381 5.44434 19.7598V16.8438H4.9375C1.7249 16.8436 1.26094e-05 15.2104 0 12.2646V4.58887C0.000134184 1.64327 1.72501 0.000113891 4.9375 0H18.8242ZM15.916 11.1699C15.916 10.8976 15.6353 10.7724 15.3789 10.8857C14.4877 11.3396 13.4255 11.8506 11.6553 11.8506C9.88495 11.8506 8.82242 11.3283 7.94336 10.8857C7.67485 10.7725 7.39453 10.8977 7.39453 11.1699C7.39469 11.9189 9.10369 13.4961 11.6553 13.4961C14.2068 13.496 15.9159 11.9189 15.916 11.1699ZM8.04102 3.68066C7.27193 3.68078 6.60059 4.32804 6.60059 5.24707C6.60081 6.15452 7.27206 6.80066 8.04102 6.80078C8.81006 6.80078 9.49392 6.1546 9.49414 5.24707C9.49414 4.32795 8.8224 3.68066 8.04102 3.68066ZM15.2812 3.68066C14.5121 3.68066 13.8408 4.32795 13.8408 5.24707C13.841 6.1546 14.5122 6.80078 15.2812 6.80078C16.0503 6.80077 16.7341 6.1546 16.7344 5.24707C16.7344 4.32796 16.0626 3.68068 15.2812 3.68066Z" fill="#3366CC"/>
</svg>
