<svg width="201" height="200" viewBox="0 0 201 200" fill="none" xmlns="http://www.w3.org/2000/svg">
<mask id="path-1-outside-1_146_4803" maskUnits="userSpaceOnUse" x="19.5" y="17" width="162" height="166" fill="black">
<rect fill="white" x="19.5" y="17" width="162" height="166"/>
<path fill-rule="evenodd" clip-rule="evenodd" d="M36.5067 24.5034C36.5067 22.0163 38.523 20 41.0102 20C43.4973 20 45.5136 22.0163 45.5136 24.5034V32.656L155.639 32.656V24.5034C155.639 22.0163 157.655 20 160.142 20C162.629 20 164.646 22.0163 164.646 24.5034V32.656H173.496C176.259 32.656 178.498 34.897 178.496 37.66L178.388 174.952C178.386 177.711 176.148 179.948 173.388 179.948L27.5 179.948C24.737 179.948 22.4978 177.707 22.5 174.944L22.6076 37.6521C22.6098 34.8922 24.8477 32.656 27.6076 32.656H36.5067V24.5034Z"/>
</mask>
<path fill-rule="evenodd" clip-rule="evenodd" d="M36.5067 24.5034C36.5067 22.0163 38.523 20 41.0102 20C43.4973 20 45.5136 22.0163 45.5136 24.5034V32.656L155.639 32.656V24.5034C155.639 22.0163 157.655 20 160.142 20C162.629 20 164.646 22.0163 164.646 24.5034V32.656H173.496C176.259 32.656 178.498 34.897 178.496 37.66L178.388 174.952C178.386 177.711 176.148 179.948 173.388 179.948L27.5 179.948C24.737 179.948 22.4978 177.707 22.5 174.944L22.6076 37.6521C22.6098 34.8922 24.8477 32.656 27.6076 32.656H36.5067V24.5034Z" fill="#72777D"/>
<path d="M45.5136 32.656H42.5136V35.656H45.5136V32.656ZM155.639 32.656V35.656L158.639 35.656V32.656L155.639 32.656ZM164.646 32.656H161.646V35.656H164.646V32.656ZM178.496 37.66L175.496 37.6576L178.496 37.66ZM178.388 174.952L181.388 174.954L178.388 174.952ZM22.5 174.944L19.5 174.941L22.5 174.944ZM22.6076 37.6521L25.6076 37.6545L22.6076 37.6521ZM36.5067 32.656V35.656H39.5067V32.656H36.5067ZM41.0102 17C36.8661 17 33.5067 20.3594 33.5067 24.5034H39.5067C39.5067 23.6731 40.1798 23 41.0102 23V17ZM48.5136 24.5034C48.5136 20.3594 45.1542 17 41.0102 17V23C41.8405 23 42.5136 23.6731 42.5136 24.5034H48.5136ZM48.5136 32.656V24.5034H42.5136V32.656H48.5136ZM155.639 29.656L45.5136 29.656V35.656L155.639 35.656V29.656ZM158.639 32.656V24.5034L152.639 24.5034V32.656L158.639 32.656ZM158.639 24.5034C158.639 23.6731 159.312 23 160.142 23V17C155.998 17 152.639 20.3594 152.639 24.5034L158.639 24.5034ZM160.142 23C160.973 23 161.646 23.6731 161.646 24.5034H167.646C167.646 20.3594 164.286 17 160.142 17V23ZM161.646 24.5034V32.656H167.646V24.5034H161.646ZM173.496 29.656H164.646V35.656H173.496V29.656ZM181.496 37.6623C181.5 33.2416 177.917 29.656 173.496 29.656V35.656C174.601 35.656 175.497 36.5524 175.496 37.6576L181.496 37.6623ZM181.388 174.954L181.496 37.6623L175.496 37.6576L175.388 174.949L181.388 174.954ZM173.388 182.948C177.804 182.948 181.385 179.37 181.388 174.954L175.388 174.949C175.388 176.053 174.492 176.948 173.388 176.948V182.948ZM27.5 182.948L173.388 182.948V176.948L27.5 176.948V182.948ZM19.5 174.941C19.4965 179.362 23.0793 182.948 27.5 182.948V176.948C26.3948 176.948 25.4991 176.051 25.5 174.946L19.5 174.941ZM19.6076 37.6498L19.5 174.941L25.5 174.946L25.6076 37.6545L19.6076 37.6498ZM27.6076 29.656C23.1918 29.656 19.6111 33.2339 19.6076 37.6498L25.6076 37.6545C25.6085 36.5505 26.5037 35.656 27.6076 35.656V29.656ZM36.5067 29.656L27.6076 29.656V35.656H36.5067V29.656ZM33.5067 24.5034V32.656H39.5067V24.5034H33.5067Z" fill="#72777D" mask="url(#path-1-outside-1_146_4803)"/>
<path d="M22.6116 67.282L178.5 67.282L178.5 176C178.5 178.209 176.709 180 174.5 180L26.6116 180C24.4024 180 22.6116 178.209 22.6116 176L22.6116 67.282Z" fill="#F8F9FA"/>
<path d="M22.6116 36.656C22.6116 34.4469 24.4024 32.656 26.6116 32.656L174.5 32.656C176.709 32.656 178.5 34.4469 178.5 36.656V67.1897L22.6116 67.1897L22.6116 36.656Z" fill="#EE6365"/>
<ellipse cx="42.5114" cy="93.4759" rx="6.00459" ry="6.49788" fill="#FECC44"/>
<ellipse cx="100.556" cy="93.4759" rx="6.00459" ry="6.49788" fill="#C8CCD1"/>
<ellipse cx="71.5336" cy="93.4759" rx="6.00459" ry="6.49788" fill="#C8CCD1"/>
<ellipse cx="129.578" cy="93.4759" rx="6.00459" ry="6.49788" fill="#C8CCD1"/>
<ellipse cx="158.6" cy="93.4759" rx="6.00459" ry="6.49788" fill="#C8CCD1"/>
<ellipse cx="42.5114" cy="125.466" rx="6.00459" ry="6.49788" fill="#C8CCD1"/>
<ellipse cx="102.557" cy="125.466" rx="6.00459" ry="6.49788" fill="#C8CCD1"/>
<ellipse cx="72.5344" cy="125.466" rx="6.00459" ry="6.49788" fill="#C8CCD1"/>
<ellipse cx="131.58" cy="125.466" rx="6.00459" ry="6.49788" fill="#C8CCD1"/>
<ellipse cx="158.6" cy="125.466" rx="6.00459" ry="6.49788" fill="#C8CCD1"/>
<ellipse cx="42.5114" cy="156.455" rx="6.00459" ry="6.49788" fill="#C8CCD1"/>
<ellipse cx="102.557" cy="156.455" rx="6.00459" ry="6.49788" fill="#C8CCD1"/>
<ellipse cx="72.5344" cy="156.455" rx="6.00459" ry="6.49788" fill="#C8CCD1"/>
<ellipse cx="131.58" cy="156.455" rx="6.00459" ry="6.49788" fill="#C8CCD1"/>
<ellipse cx="158.6" cy="156.455" rx="6.00459" ry="6.49788" fill="#C8CCD1"/>
<rect x="36.5068" y="20" width="9.00689" height="25.9915" rx="4.50344" fill="#EEB533"/>
<rect x="155.598" y="20" width="9.00689" height="25.9915" rx="4.50344" fill="#EEB533"/>
</svg>
